<mxfile host="app.diagrams.net" agent="Mozilla/5.0 (Windows NT 10.0; Win64; x64) AppleWebKit/537.36 (KHTML, like Gecko) Chrome/132.0.0.0 Safari/537.36 Edg/132.0.0.0" version="26.0.10">
  <diagram name="Page-1" id="NiP1_um2W-qjVFfPF-_h">
    <mxGraphModel dx="9012" dy="5326" grid="1" gridSize="10" guides="1" tooltips="1" connect="1" arrows="1" fold="1" page="1" pageScale="1" pageWidth="827" pageHeight="1169" math="0" shadow="0">
      <root>
        <mxCell id="0" />
        <mxCell id="1" parent="0" />
        <mxCell id="0Hs6mU-e-wpHHnGf_45k-3" value="" style="html=1;whiteSpace=wrap;fontFamily=Sarabun;fontSource=https%3A%2F%2Ffonts.googleapis.com%2Fcss%3Ffamily%3DSarabun;labelBorderColor=none;labelBackgroundColor=none;" parent="1" vertex="1">
          <mxGeometry x="-3140" y="-2210" width="410" height="440" as="geometry" />
        </mxCell>
        <mxCell id="0Hs6mU-e-wpHHnGf_45k-27" style="rounded=0;orthogonalLoop=1;jettySize=auto;html=1;exitX=0.5;exitY=0.5;exitDx=0;exitDy=0;exitPerimeter=0;entryX=0;entryY=0.5;entryDx=0;entryDy=0;endArrow=none;endFill=0;fontFamily=Sarabun;fontSource=https%3A%2F%2Ffonts.googleapis.com%2Fcss%3Ffamily%3DSarabun;labelBorderColor=none;labelBackgroundColor=none;" parent="1" source="0Hs6mU-e-wpHHnGf_45k-1" target="0Hs6mU-e-wpHHnGf_45k-4" edge="1">
          <mxGeometry relative="1" as="geometry" />
        </mxCell>
        <mxCell id="0Hs6mU-e-wpHHnGf_45k-1" value="บุคคลทั่วไป" style="shape=umlActor;verticalLabelPosition=bottom;verticalAlign=top;html=1;fontFamily=Sarabun;fontSource=https%3A%2F%2Ffonts.googleapis.com%2Fcss%3Ffamily%3DSarabun;labelBorderColor=none;labelBackgroundColor=none;" parent="1" vertex="1">
          <mxGeometry x="-3220" y="-2095" width="30" height="60" as="geometry" />
        </mxCell>
        <mxCell id="0Hs6mU-e-wpHHnGf_45k-24" style="rounded=0;orthogonalLoop=1;jettySize=auto;html=1;exitX=1;exitY=0.3333333333333333;exitDx=0;exitDy=0;exitPerimeter=0;endArrow=none;endFill=0;entryX=0;entryY=0.5;entryDx=0;entryDy=0;fontFamily=Sarabun;fontSource=https%3A%2F%2Ffonts.googleapis.com%2Fcss%3Ffamily%3DSarabun;labelBorderColor=none;labelBackgroundColor=none;" parent="1" source="0Hs6mU-e-wpHHnGf_45k-2" target="0Hs6mU-e-wpHHnGf_45k-4" edge="1">
          <mxGeometry relative="1" as="geometry">
            <mxPoint x="-3110" y="-2110" as="targetPoint" />
          </mxGeometry>
        </mxCell>
        <mxCell id="0Hs6mU-e-wpHHnGf_45k-25" style="rounded=0;orthogonalLoop=1;jettySize=auto;html=1;exitX=1;exitY=0.3333333333333333;exitDx=0;exitDy=0;exitPerimeter=0;entryX=0;entryY=0.5;entryDx=0;entryDy=0;endArrow=none;endFill=0;fontFamily=Sarabun;fontSource=https%3A%2F%2Ffonts.googleapis.com%2Fcss%3Ffamily%3DSarabun;labelBorderColor=none;labelBackgroundColor=none;" parent="1" source="0Hs6mU-e-wpHHnGf_45k-2" target="0Hs6mU-e-wpHHnGf_45k-5" edge="1">
          <mxGeometry relative="1" as="geometry" />
        </mxCell>
        <mxCell id="0Hs6mU-e-wpHHnGf_45k-2" value="นักเรียน" style="shape=umlActor;verticalLabelPosition=bottom;verticalAlign=top;html=1;fontFamily=Sarabun;fontSource=https%3A%2F%2Ffonts.googleapis.com%2Fcss%3Ffamily%3DSarabun;labelBorderColor=none;labelBackgroundColor=none;" parent="1" vertex="1">
          <mxGeometry x="-3220" y="-1930" width="30" height="60" as="geometry" />
        </mxCell>
        <mxCell id="0Hs6mU-e-wpHHnGf_45k-4" value="ระบบค้นหา" style="ellipse;whiteSpace=wrap;html=1;fontFamily=Sarabun;fontSource=https%3A%2F%2Ffonts.googleapis.com%2Fcss%3Ffamily%3DSarabun;labelBorderColor=none;labelBackgroundColor=none;" parent="1" vertex="1">
          <mxGeometry x="-3095" y="-2090" width="100" height="50" as="geometry" />
        </mxCell>
        <mxCell id="0Hs6mU-e-wpHHnGf_45k-21" style="rounded=0;orthogonalLoop=1;jettySize=auto;html=1;entryX=0;entryY=0.5;entryDx=0;entryDy=0;dashed=1;fontFamily=Sarabun;fontSource=https%3A%2F%2Ffonts.googleapis.com%2Fcss%3Ffamily%3DSarabun;labelBorderColor=none;labelBackgroundColor=none;" parent="1" source="0Hs6mU-e-wpHHnGf_45k-5" target="0Hs6mU-e-wpHHnGf_45k-20" edge="1">
          <mxGeometry relative="1" as="geometry" />
        </mxCell>
        <mxCell id="0Hs6mU-e-wpHHnGf_45k-22" value="Include" style="edgeLabel;html=1;align=center;verticalAlign=middle;resizable=0;points=[];fontFamily=Sarabun;fontSource=https%3A%2F%2Ffonts.googleapis.com%2Fcss%3Ffamily%3DSarabun;labelBorderColor=none;labelBackgroundColor=none;" parent="0Hs6mU-e-wpHHnGf_45k-21" vertex="1" connectable="0">
          <mxGeometry x="-0.2129" relative="1" as="geometry">
            <mxPoint as="offset" />
          </mxGeometry>
        </mxCell>
        <mxCell id="0Hs6mU-e-wpHHnGf_45k-5" value="ระบบตรวจสอบ&lt;div&gt;ตัวตน&lt;/div&gt;" style="ellipse;whiteSpace=wrap;html=1;fontFamily=Sarabun;fontSource=https%3A%2F%2Ffonts.googleapis.com%2Fcss%3Ffamily%3DSarabun;labelBorderColor=none;labelBackgroundColor=none;" parent="1" vertex="1">
          <mxGeometry x="-3090" y="-1880" width="100" height="50" as="geometry" />
        </mxCell>
        <mxCell id="0Hs6mU-e-wpHHnGf_45k-12" style="rounded=0;orthogonalLoop=1;jettySize=auto;html=1;exitX=0;exitY=0.5;exitDx=0;exitDy=0;entryX=1;entryY=0.5;entryDx=0;entryDy=0;dashed=1;fontFamily=Sarabun;fontSource=https%3A%2F%2Ffonts.googleapis.com%2Fcss%3Ffamily%3DSarabun;labelBorderColor=none;labelBackgroundColor=none;" parent="1" source="0Hs6mU-e-wpHHnGf_45k-6" target="0Hs6mU-e-wpHHnGf_45k-4" edge="1">
          <mxGeometry relative="1" as="geometry" />
        </mxCell>
        <mxCell id="0Hs6mU-e-wpHHnGf_45k-19" value="Extend" style="edgeLabel;html=1;align=center;verticalAlign=middle;resizable=0;points=[];fontFamily=Sarabun;fontSource=https%3A%2F%2Ffonts.googleapis.com%2Fcss%3Ffamily%3DSarabun;labelBorderColor=none;labelBackgroundColor=none;" parent="0Hs6mU-e-wpHHnGf_45k-12" vertex="1" connectable="0">
          <mxGeometry x="-0.1702" relative="1" as="geometry">
            <mxPoint as="offset" />
          </mxGeometry>
        </mxCell>
        <mxCell id="0Hs6mU-e-wpHHnGf_45k-6" value="ดูรายละเอียด&lt;div&gt;โครงงาน&lt;/div&gt;" style="ellipse;whiteSpace=wrap;html=1;fontFamily=Sarabun;fontSource=https%3A%2F%2Ffonts.googleapis.com%2Fcss%3Ffamily%3DSarabun;labelBorderColor=none;labelBackgroundColor=none;" parent="1" vertex="1">
          <mxGeometry x="-2890" y="-2030" width="100" height="50" as="geometry" />
        </mxCell>
        <mxCell id="0Hs6mU-e-wpHHnGf_45k-17" style="rounded=0;orthogonalLoop=1;jettySize=auto;html=1;entryX=1;entryY=0.5;entryDx=0;entryDy=0;dashed=1;fontFamily=Sarabun;fontSource=https%3A%2F%2Ffonts.googleapis.com%2Fcss%3Ffamily%3DSarabun;labelBorderColor=none;labelBackgroundColor=none;" parent="1" source="0Hs6mU-e-wpHHnGf_45k-7" target="0Hs6mU-e-wpHHnGf_45k-4" edge="1">
          <mxGeometry relative="1" as="geometry" />
        </mxCell>
        <mxCell id="0Hs6mU-e-wpHHnGf_45k-18" value="Extend" style="edgeLabel;html=1;align=center;verticalAlign=middle;resizable=0;points=[];fontFamily=Sarabun;fontSource=https%3A%2F%2Ffonts.googleapis.com%2Fcss%3Ffamily%3DSarabun;labelBorderColor=none;labelBackgroundColor=none;" parent="0Hs6mU-e-wpHHnGf_45k-17" vertex="1" connectable="0">
          <mxGeometry x="-0.1527" relative="1" as="geometry">
            <mxPoint as="offset" />
          </mxGeometry>
        </mxCell>
        <mxCell id="0Hs6mU-e-wpHHnGf_45k-7" value="บันทึกเอกสาร" style="ellipse;whiteSpace=wrap;html=1;fontFamily=Sarabun;fontSource=https%3A%2F%2Ffonts.googleapis.com%2Fcss%3Ffamily%3DSarabun;labelBorderColor=none;labelBackgroundColor=none;" parent="1" vertex="1">
          <mxGeometry x="-2890" y="-2095" width="100" height="50" as="geometry" />
        </mxCell>
        <mxCell id="0Hs6mU-e-wpHHnGf_45k-10" style="rounded=0;orthogonalLoop=1;jettySize=auto;html=1;entryX=1;entryY=0.5;entryDx=0;entryDy=0;dashed=1;fontFamily=Sarabun;fontSource=https%3A%2F%2Ffonts.googleapis.com%2Fcss%3Ffamily%3DSarabun;labelBorderColor=none;labelBackgroundColor=none;" parent="1" source="0Hs6mU-e-wpHHnGf_45k-8" target="0Hs6mU-e-wpHHnGf_45k-4" edge="1">
          <mxGeometry relative="1" as="geometry" />
        </mxCell>
        <mxCell id="0Hs6mU-e-wpHHnGf_45k-13" value="Extend" style="edgeLabel;html=1;align=center;verticalAlign=middle;resizable=0;points=[];fontFamily=Sarabun;fontSource=https%3A%2F%2Ffonts.googleapis.com%2Fcss%3Ffamily%3DSarabun;labelBorderColor=none;labelBackgroundColor=none;" parent="0Hs6mU-e-wpHHnGf_45k-10" vertex="1" connectable="0">
          <mxGeometry x="-0.154" y="-1" relative="1" as="geometry">
            <mxPoint as="offset" />
          </mxGeometry>
        </mxCell>
        <mxCell id="0Hs6mU-e-wpHHnGf_45k-8" value="ค้นหาตามชื่อ ประเภท ปี" style="ellipse;whiteSpace=wrap;html=1;fontFamily=Sarabun;fontSource=https%3A%2F%2Ffonts.googleapis.com%2Fcss%3Ffamily%3DSarabun;labelBorderColor=none;labelBackgroundColor=none;" parent="1" vertex="1">
          <mxGeometry x="-2890" y="-2160" width="100" height="50" as="geometry" />
        </mxCell>
        <mxCell id="0Hs6mU-e-wpHHnGf_45k-20" value="ระบบบริหารจัด&lt;div&gt;การโครงงาน&lt;/div&gt;" style="ellipse;whiteSpace=wrap;html=1;fontFamily=Sarabun;fontSource=https%3A%2F%2Ffonts.googleapis.com%2Fcss%3Ffamily%3DSarabun;labelBorderColor=none;labelBackgroundColor=none;" parent="1" vertex="1">
          <mxGeometry x="-2890" y="-1880" width="100" height="50" as="geometry" />
        </mxCell>
        <mxCell id="0Hs6mU-e-wpHHnGf_45k-38" style="rounded=0;orthogonalLoop=1;jettySize=auto;html=1;exitX=1;exitY=0.3333333333333333;exitDx=0;exitDy=0;exitPerimeter=0;entryX=0;entryY=0.5;entryDx=0;entryDy=0;endArrow=none;endFill=0;fontFamily=Sarabun;fontSource=https%3A%2F%2Ffonts.googleapis.com%2Fcss%3Ffamily%3DSarabun;labelBorderColor=none;labelBackgroundColor=none;" parent="1" source="0Hs6mU-e-wpHHnGf_45k-30" target="0Hs6mU-e-wpHHnGf_45k-33" edge="1">
          <mxGeometry relative="1" as="geometry" />
        </mxCell>
        <mxCell id="0Hs6mU-e-wpHHnGf_45k-30" value="นักเรียน" style="shape=umlActor;verticalLabelPosition=bottom;verticalAlign=top;html=1;fontFamily=Sarabun;fontSource=https%3A%2F%2Ffonts.googleapis.com%2Fcss%3Ffamily%3DSarabun;labelBorderColor=none;labelBackgroundColor=none;" parent="1" vertex="1">
          <mxGeometry x="-3300" y="-1470" width="30" height="60" as="geometry" />
        </mxCell>
        <mxCell id="0Hs6mU-e-wpHHnGf_45k-31" value="" style="html=1;whiteSpace=wrap;fontFamily=Sarabun;fontSource=https%3A%2F%2Ffonts.googleapis.com%2Fcss%3Ffamily%3DSarabun;labelBorderColor=none;labelBackgroundColor=none;" parent="1" vertex="1">
          <mxGeometry x="-3180" y="-1610" width="560" height="320" as="geometry" />
        </mxCell>
        <mxCell id="0Hs6mU-e-wpHHnGf_45k-39" style="rounded=0;orthogonalLoop=1;jettySize=auto;html=1;exitX=0;exitY=0.3333333333333333;exitDx=0;exitDy=0;exitPerimeter=0;entryX=1;entryY=0.5;entryDx=0;entryDy=0;endArrow=none;endFill=0;fontFamily=Sarabun;fontSource=https%3A%2F%2Ffonts.googleapis.com%2Fcss%3Ffamily%3DSarabun;labelBorderColor=none;labelBackgroundColor=none;" parent="1" source="0Hs6mU-e-wpHHnGf_45k-32" target="0Hs6mU-e-wpHHnGf_45k-37" edge="1">
          <mxGeometry relative="1" as="geometry" />
        </mxCell>
        <mxCell id="0Hs6mU-e-wpHHnGf_45k-32" value="อาจารย์" style="shape=umlActor;verticalLabelPosition=bottom;verticalAlign=top;html=1;fontFamily=Sarabun;fontSource=https%3A%2F%2Ffonts.googleapis.com%2Fcss%3Ffamily%3DSarabun;labelBorderColor=none;labelBackgroundColor=none;" parent="1" vertex="1">
          <mxGeometry x="-2570" y="-1475" width="30" height="60" as="geometry" />
        </mxCell>
        <mxCell id="0Hs6mU-e-wpHHnGf_45k-33" value="ระบบค้นหาโครงงาน" style="ellipse;whiteSpace=wrap;html=1;fontFamily=Sarabun;fontSource=https%3A%2F%2Ffonts.googleapis.com%2Fcss%3Ffamily%3DSarabun;labelBorderColor=none;labelBackgroundColor=none;" parent="1" vertex="1">
          <mxGeometry x="-3150" y="-1475" width="100" height="50" as="geometry" />
        </mxCell>
        <mxCell id="0Hs6mU-e-wpHHnGf_45k-40" style="rounded=0;orthogonalLoop=1;jettySize=auto;html=1;entryX=1;entryY=0.5;entryDx=0;entryDy=0;dashed=1;exitX=0;exitY=0.5;exitDx=0;exitDy=0;fontFamily=Sarabun;fontSource=https%3A%2F%2Ffonts.googleapis.com%2Fcss%3Ffamily%3DSarabun;labelBorderColor=none;labelBackgroundColor=none;" parent="1" source="0Hs6mU-e-wpHHnGf_45k-34" target="0Hs6mU-e-wpHHnGf_45k-33" edge="1">
          <mxGeometry relative="1" as="geometry" />
        </mxCell>
        <mxCell id="0Hs6mU-e-wpHHnGf_45k-47" value="Extend" style="edgeLabel;html=1;align=center;verticalAlign=middle;resizable=0;points=[];fontFamily=Sarabun;fontSource=https%3A%2F%2Ffonts.googleapis.com%2Fcss%3Ffamily%3DSarabun;labelBorderColor=none;labelBackgroundColor=none;" parent="0Hs6mU-e-wpHHnGf_45k-40" vertex="1" connectable="0">
          <mxGeometry x="-0.3665" y="-2" relative="1" as="geometry">
            <mxPoint as="offset" />
          </mxGeometry>
        </mxCell>
        <mxCell id="0Hs6mU-e-wpHHnGf_45k-34" value="ค้นหาตามชื่อ ประเภท ปี" style="ellipse;whiteSpace=wrap;html=1;fontFamily=Sarabun;fontSource=https%3A%2F%2Ffonts.googleapis.com%2Fcss%3Ffamily%3DSarabun;labelBorderColor=none;labelBackgroundColor=none;" parent="1" vertex="1">
          <mxGeometry x="-2950" y="-1550" width="100" height="50" as="geometry" />
        </mxCell>
        <mxCell id="0Hs6mU-e-wpHHnGf_45k-43" style="rounded=0;orthogonalLoop=1;jettySize=auto;html=1;entryX=1;entryY=0.5;entryDx=0;entryDy=0;dashed=1;exitX=0;exitY=0.5;exitDx=0;exitDy=0;fontFamily=Sarabun;fontSource=https%3A%2F%2Ffonts.googleapis.com%2Fcss%3Ffamily%3DSarabun;labelBorderColor=none;labelBackgroundColor=none;" parent="1" source="0Hs6mU-e-wpHHnGf_45k-35" target="0Hs6mU-e-wpHHnGf_45k-33" edge="1">
          <mxGeometry relative="1" as="geometry" />
        </mxCell>
        <mxCell id="0Hs6mU-e-wpHHnGf_45k-48" value="Extend" style="edgeLabel;html=1;align=center;verticalAlign=middle;resizable=0;points=[];fontFamily=Sarabun;fontSource=https%3A%2F%2Ffonts.googleapis.com%2Fcss%3Ffamily%3DSarabun;labelBorderColor=none;labelBackgroundColor=none;" parent="0Hs6mU-e-wpHHnGf_45k-43" vertex="1" connectable="0">
          <mxGeometry x="-0.312" y="-1" relative="1" as="geometry">
            <mxPoint x="-1" as="offset" />
          </mxGeometry>
        </mxCell>
        <mxCell id="0Hs6mU-e-wpHHnGf_45k-35" value="บันทึกเอกสาร" style="ellipse;whiteSpace=wrap;html=1;fontFamily=Sarabun;fontSource=https%3A%2F%2Ffonts.googleapis.com%2Fcss%3Ffamily%3DSarabun;labelBorderColor=none;labelBackgroundColor=none;" parent="1" vertex="1">
          <mxGeometry x="-2950" y="-1480" width="100" height="50" as="geometry" />
        </mxCell>
        <mxCell id="0Hs6mU-e-wpHHnGf_45k-42" style="rounded=0;orthogonalLoop=1;jettySize=auto;html=1;entryX=1;entryY=0.5;entryDx=0;entryDy=0;dashed=1;exitX=0;exitY=0.5;exitDx=0;exitDy=0;fontFamily=Sarabun;fontSource=https%3A%2F%2Ffonts.googleapis.com%2Fcss%3Ffamily%3DSarabun;labelBorderColor=none;labelBackgroundColor=none;" parent="1" source="0Hs6mU-e-wpHHnGf_45k-36" target="0Hs6mU-e-wpHHnGf_45k-33" edge="1">
          <mxGeometry relative="1" as="geometry" />
        </mxCell>
        <mxCell id="0Hs6mU-e-wpHHnGf_45k-49" value="Extend" style="edgeLabel;html=1;align=center;verticalAlign=middle;resizable=0;points=[];fontFamily=Sarabun;fontSource=https%3A%2F%2Ffonts.googleapis.com%2Fcss%3Ffamily%3DSarabun;labelBorderColor=none;labelBackgroundColor=none;" parent="0Hs6mU-e-wpHHnGf_45k-42" vertex="1" connectable="0">
          <mxGeometry x="0.0462" y="2" relative="1" as="geometry">
            <mxPoint as="offset" />
          </mxGeometry>
        </mxCell>
        <mxCell id="0Hs6mU-e-wpHHnGf_45k-36" value="ดูรายละเอียด&lt;div&gt;โครงงาน&lt;/div&gt;" style="ellipse;whiteSpace=wrap;html=1;fontFamily=Sarabun;fontSource=https%3A%2F%2Ffonts.googleapis.com%2Fcss%3Ffamily%3DSarabun;labelBorderColor=none;labelBackgroundColor=none;" parent="1" vertex="1">
          <mxGeometry x="-2950" y="-1390" width="100" height="50" as="geometry" />
        </mxCell>
        <mxCell id="0Hs6mU-e-wpHHnGf_45k-44" style="rounded=0;orthogonalLoop=1;jettySize=auto;html=1;entryX=1;entryY=0.5;entryDx=0;entryDy=0;dashed=1;exitX=0;exitY=0.5;exitDx=0;exitDy=0;fontFamily=Sarabun;fontSource=https%3A%2F%2Ffonts.googleapis.com%2Fcss%3Ffamily%3DSarabun;labelBorderColor=none;labelBackgroundColor=none;" parent="1" source="0Hs6mU-e-wpHHnGf_45k-37" target="0Hs6mU-e-wpHHnGf_45k-34" edge="1">
          <mxGeometry relative="1" as="geometry" />
        </mxCell>
        <mxCell id="0Hs6mU-e-wpHHnGf_45k-50" value="Extend" style="edgeLabel;html=1;align=center;verticalAlign=middle;resizable=0;points=[];fontFamily=Sarabun;fontSource=https%3A%2F%2Ffonts.googleapis.com%2Fcss%3Ffamily%3DSarabun;labelBorderColor=none;labelBackgroundColor=none;" parent="0Hs6mU-e-wpHHnGf_45k-44" vertex="1" connectable="0">
          <mxGeometry x="-0.02" y="-4" relative="1" as="geometry">
            <mxPoint as="offset" />
          </mxGeometry>
        </mxCell>
        <mxCell id="0Hs6mU-e-wpHHnGf_45k-45" style="rounded=0;orthogonalLoop=1;jettySize=auto;html=1;entryX=1;entryY=0.5;entryDx=0;entryDy=0;dashed=1;exitX=0;exitY=0.5;exitDx=0;exitDy=0;fontFamily=Sarabun;fontSource=https%3A%2F%2Ffonts.googleapis.com%2Fcss%3Ffamily%3DSarabun;labelBorderColor=none;labelBackgroundColor=none;" parent="1" source="0Hs6mU-e-wpHHnGf_45k-37" target="0Hs6mU-e-wpHHnGf_45k-35" edge="1">
          <mxGeometry relative="1" as="geometry" />
        </mxCell>
        <mxCell id="0Hs6mU-e-wpHHnGf_45k-51" value="Extend" style="edgeLabel;html=1;align=center;verticalAlign=middle;resizable=0;points=[];fontFamily=Sarabun;fontSource=https%3A%2F%2Ffonts.googleapis.com%2Fcss%3Ffamily%3DSarabun;labelBorderColor=none;labelBackgroundColor=none;" parent="0Hs6mU-e-wpHHnGf_45k-45" vertex="1" connectable="0">
          <mxGeometry x="0.1609" y="2" relative="1" as="geometry">
            <mxPoint as="offset" />
          </mxGeometry>
        </mxCell>
        <mxCell id="0Hs6mU-e-wpHHnGf_45k-46" style="rounded=0;orthogonalLoop=1;jettySize=auto;html=1;entryX=1;entryY=0.5;entryDx=0;entryDy=0;dashed=1;exitX=0;exitY=0.5;exitDx=0;exitDy=0;fontFamily=Sarabun;fontSource=https%3A%2F%2Ffonts.googleapis.com%2Fcss%3Ffamily%3DSarabun;labelBorderColor=none;labelBackgroundColor=none;" parent="1" source="0Hs6mU-e-wpHHnGf_45k-37" target="0Hs6mU-e-wpHHnGf_45k-36" edge="1">
          <mxGeometry relative="1" as="geometry" />
        </mxCell>
        <mxCell id="0Hs6mU-e-wpHHnGf_45k-52" value="Extend" style="edgeLabel;html=1;align=center;verticalAlign=middle;resizable=0;points=[];fontFamily=Sarabun;fontSource=https%3A%2F%2Ffonts.googleapis.com%2Fcss%3Ffamily%3DSarabun;labelBorderColor=none;labelBackgroundColor=none;" parent="0Hs6mU-e-wpHHnGf_45k-46" vertex="1" connectable="0">
          <mxGeometry x="0.08" relative="1" as="geometry">
            <mxPoint as="offset" />
          </mxGeometry>
        </mxCell>
        <mxCell id="0Hs6mU-e-wpHHnGf_45k-37" value="ระบบจัดเก็บ&lt;div&gt;เอกสารโครงงาน&lt;/div&gt;" style="ellipse;whiteSpace=wrap;html=1;fontFamily=Sarabun;fontSource=https%3A%2F%2Ffonts.googleapis.com%2Fcss%3Ffamily%3DSarabun;labelBorderColor=none;labelBackgroundColor=none;" parent="1" vertex="1">
          <mxGeometry x="-2750" y="-1480" width="100" height="50" as="geometry" />
        </mxCell>
        <mxCell id="D9_A-52A2xUWyffd58kj-2" value="" style="html=1;dashed=0;whiteSpace=wrap;fontFamily=Sarabun;fontSource=https%3A%2F%2Ffonts.googleapis.com%2Fcss%3Ffamily%3DSarabun;labelBorderColor=none;labelBackgroundColor=none;" parent="1" vertex="1">
          <mxGeometry x="-2375" y="-2225" width="560" height="470" as="geometry" />
        </mxCell>
        <mxCell id="D9_A-52A2xUWyffd58kj-4" value="&lt;span style=&quot;font-size: 10px;&quot;&gt;ดาวน์โหลดเอกสาร&lt;/span&gt;&lt;div&gt;&lt;span style=&quot;font-size: 10px;&quot;&gt;ประกอบโครงงาน&lt;/span&gt;&lt;/div&gt;" style="shape=ellipse;html=1;dashed=0;whiteSpace=wrap;perimeter=ellipsePerimeter;fontFamily=Sarabun;fontSource=https%3A%2F%2Ffonts.googleapis.com%2Fcss%3Ffamily%3DSarabun;labelBorderColor=none;labelBackgroundColor=none;" parent="1" vertex="1">
          <mxGeometry x="-2355" y="-2175" width="100" height="50" as="geometry" />
        </mxCell>
        <mxCell id="D9_A-52A2xUWyffd58kj-8" value="&lt;span style=&quot;font-size: 10px;&quot;&gt;ส่งเอกสาร&lt;/span&gt;" style="shape=ellipse;html=1;dashed=0;whiteSpace=wrap;perimeter=ellipsePerimeter;fontFamily=Sarabun;fontSource=https%3A%2F%2Ffonts.googleapis.com%2Fcss%3Ffamily%3DSarabun;labelBorderColor=none;labelBackgroundColor=none;" parent="1" vertex="1">
          <mxGeometry x="-2125" y="-1865" width="100" height="50" as="geometry" />
        </mxCell>
        <mxCell id="0Hs6mU-e-wpHHnGf_45k-54" style="rounded=0;orthogonalLoop=1;jettySize=auto;html=1;entryX=1;entryY=0.5;entryDx=0;entryDy=0;dashed=1;fontFamily=Sarabun;fontSource=https%3A%2F%2Ffonts.googleapis.com%2Fcss%3Ffamily%3DSarabun;labelBorderColor=none;labelBackgroundColor=none;" parent="1" source="D9_A-52A2xUWyffd58kj-9" target="D9_A-52A2xUWyffd58kj-13" edge="1">
          <mxGeometry relative="1" as="geometry" />
        </mxCell>
        <mxCell id="0Hs6mU-e-wpHHnGf_45k-55" value="Extend" style="edgeLabel;html=1;align=center;verticalAlign=middle;resizable=0;points=[];fontFamily=Sarabun;fontSource=https%3A%2F%2Ffonts.googleapis.com%2Fcss%3Ffamily%3DSarabun;labelBorderColor=none;labelBackgroundColor=none;" parent="0Hs6mU-e-wpHHnGf_45k-54" vertex="1" connectable="0">
          <mxGeometry x="-0.0785" relative="1" as="geometry">
            <mxPoint as="offset" />
          </mxGeometry>
        </mxCell>
        <mxCell id="D9_A-52A2xUWyffd58kj-9" value="&lt;span style=&quot;font-size: 10px;&quot;&gt;จัดเก็บข้อมูลโครงงาน&lt;/span&gt;" style="shape=ellipse;html=1;dashed=0;whiteSpace=wrap;perimeter=ellipsePerimeter;fontFamily=Sarabun;fontSource=https%3A%2F%2Ffonts.googleapis.com%2Fcss%3Ffamily%3DSarabun;labelBorderColor=none;labelBackgroundColor=none;" parent="1" vertex="1">
          <mxGeometry x="-2125" y="-2095" width="100" height="50" as="geometry" />
        </mxCell>
        <mxCell id="D9_A-52A2xUWyffd58kj-43" style="rounded=0;orthogonalLoop=1;jettySize=auto;html=1;entryX=1;entryY=0.5;entryDx=0;entryDy=0;dashed=1;fontFamily=Sarabun;fontSource=https%3A%2F%2Ffonts.googleapis.com%2Fcss%3Ffamily%3DSarabun;labelBorderColor=none;labelBackgroundColor=none;" parent="1" source="D9_A-52A2xUWyffd58kj-10" target="D9_A-52A2xUWyffd58kj-4" edge="1">
          <mxGeometry relative="1" as="geometry" />
        </mxCell>
        <mxCell id="D9_A-52A2xUWyffd58kj-50" value="Extend" style="edgeLabel;html=1;align=center;verticalAlign=middle;resizable=0;points=[];fontFamily=Sarabun;fontSource=https%3A%2F%2Ffonts.googleapis.com%2Fcss%3Ffamily%3DSarabun;labelBorderColor=none;labelBackgroundColor=none;" parent="D9_A-52A2xUWyffd58kj-43" vertex="1" connectable="0">
          <mxGeometry x="-0.148" relative="1" as="geometry">
            <mxPoint as="offset" />
          </mxGeometry>
        </mxCell>
        <mxCell id="D9_A-52A2xUWyffd58kj-10" value="&lt;span style=&quot;font-size: 10px;&quot;&gt;แบบร่างเอกสาร&lt;/span&gt;" style="shape=ellipse;html=1;dashed=0;whiteSpace=wrap;perimeter=ellipsePerimeter;fontFamily=Sarabun;fontSource=https%3A%2F%2Ffonts.googleapis.com%2Fcss%3Ffamily%3DSarabun;labelBorderColor=none;labelBackgroundColor=none;" parent="1" vertex="1">
          <mxGeometry x="-1945" y="-2175" width="100" height="50" as="geometry" />
        </mxCell>
        <mxCell id="D9_A-52A2xUWyffd58kj-12" value="&lt;span style=&quot;font-size: 10px;&quot;&gt;ตรวจสอบเอกสาร&lt;/span&gt;" style="shape=ellipse;html=1;dashed=0;whiteSpace=wrap;perimeter=ellipsePerimeter;fontFamily=Sarabun;fontSource=https%3A%2F%2Ffonts.googleapis.com%2Fcss%3Ffamily%3DSarabun;labelBorderColor=none;labelBackgroundColor=none;" parent="1" vertex="1">
          <mxGeometry x="-1945" y="-1865" width="100" height="50" as="geometry" />
        </mxCell>
        <mxCell id="D9_A-52A2xUWyffd58kj-13" value="&lt;span style=&quot;font-size: 10px;&quot;&gt;ขออนุมัติการทำ&lt;/span&gt;&lt;div&gt;&lt;span style=&quot;font-size: 10px;&quot;&gt;โครงงาน&lt;/span&gt;&lt;/div&gt;" style="shape=ellipse;html=1;dashed=0;whiteSpace=wrap;perimeter=ellipsePerimeter;fontFamily=Sarabun;fontSource=https%3A%2F%2Ffonts.googleapis.com%2Fcss%3Ffamily%3DSarabun;labelBorderColor=none;labelBackgroundColor=none;" parent="1" vertex="1">
          <mxGeometry x="-2355" y="-2010" width="125" height="50" as="geometry" />
        </mxCell>
        <mxCell id="D9_A-52A2xUWyffd58kj-35" style="rounded=0;orthogonalLoop=1;jettySize=auto;html=1;exitX=1;exitY=0.3333333333333333;exitDx=0;exitDy=0;exitPerimeter=0;entryX=0;entryY=0.5;entryDx=0;entryDy=0;endArrow=none;endFill=0;fontFamily=Sarabun;fontSource=https%3A%2F%2Ffonts.googleapis.com%2Fcss%3Ffamily%3DSarabun;labelBorderColor=none;labelBackgroundColor=none;" parent="1" source="D9_A-52A2xUWyffd58kj-19" target="D9_A-52A2xUWyffd58kj-34" edge="1">
          <mxGeometry relative="1" as="geometry" />
        </mxCell>
        <mxCell id="D9_A-52A2xUWyffd58kj-19" value="นักศึกษา" style="shape=umlActor;verticalLabelPosition=bottom;verticalAlign=top;html=1;outlineConnect=0;fontFamily=Sarabun;fontSource=https%3A%2F%2Ffonts.googleapis.com%2Fcss%3Ffamily%3DSarabun;labelBorderColor=none;labelBackgroundColor=none;" parent="1" vertex="1">
          <mxGeometry x="-2470" y="-2005" width="30" height="60" as="geometry" />
        </mxCell>
        <mxCell id="D9_A-52A2xUWyffd58kj-41" style="rounded=0;orthogonalLoop=1;jettySize=auto;html=1;entryX=1;entryY=0.5;entryDx=0;entryDy=0;exitX=0;exitY=0.3333333333333333;exitDx=0;exitDy=0;exitPerimeter=0;endArrow=none;endFill=0;fontFamily=Sarabun;fontSource=https%3A%2F%2Ffonts.googleapis.com%2Fcss%3Ffamily%3DSarabun;labelBorderColor=none;labelBackgroundColor=none;" parent="1" source="D9_A-52A2xUWyffd58kj-23" target="D9_A-52A2xUWyffd58kj-12" edge="1">
          <mxGeometry relative="1" as="geometry" />
        </mxCell>
        <mxCell id="D9_A-52A2xUWyffd58kj-42" style="rounded=0;orthogonalLoop=1;jettySize=auto;html=1;exitX=0;exitY=0.3333333333333333;exitDx=0;exitDy=0;exitPerimeter=0;entryX=1;entryY=0.5;entryDx=0;entryDy=0;endArrow=none;endFill=0;fontFamily=Sarabun;fontSource=https%3A%2F%2Ffonts.googleapis.com%2Fcss%3Ffamily%3DSarabun;labelBorderColor=none;labelBackgroundColor=none;" parent="1" source="D9_A-52A2xUWyffd58kj-23" target="D9_A-52A2xUWyffd58kj-10" edge="1">
          <mxGeometry relative="1" as="geometry" />
        </mxCell>
        <mxCell id="D9_A-52A2xUWyffd58kj-47" style="rounded=0;orthogonalLoop=1;jettySize=auto;html=1;exitX=0;exitY=0.3333333333333333;exitDx=0;exitDy=0;exitPerimeter=0;entryX=1;entryY=0.5;entryDx=0;entryDy=0;endArrow=none;endFill=0;fontFamily=Sarabun;fontSource=https%3A%2F%2Ffonts.googleapis.com%2Fcss%3Ffamily%3DSarabun;labelBorderColor=none;labelBackgroundColor=none;" parent="1" source="D9_A-52A2xUWyffd58kj-23" target="D9_A-52A2xUWyffd58kj-46" edge="1">
          <mxGeometry relative="1" as="geometry" />
        </mxCell>
        <mxCell id="D9_A-52A2xUWyffd58kj-23" value="อาจารย์" style="shape=umlActor;verticalLabelPosition=bottom;verticalAlign=top;html=1;outlineConnect=0;fontFamily=Sarabun;fontSource=https%3A%2F%2Ffonts.googleapis.com%2Fcss%3Ffamily%3DSarabun;labelBorderColor=none;labelBackgroundColor=none;" parent="1" vertex="1">
          <mxGeometry x="-1730" y="-2005" width="30" height="60" as="geometry" />
        </mxCell>
        <mxCell id="D9_A-52A2xUWyffd58kj-24" value="" style="endArrow=classic;html=1;rounded=0;entryX=1;entryY=1;entryDx=0;entryDy=0;dashed=1;exitX=0;exitY=0.5;exitDx=0;exitDy=0;fontFamily=Sarabun;fontSource=https%3A%2F%2Ffonts.googleapis.com%2Fcss%3Ffamily%3DSarabun;labelBorderColor=none;labelBackgroundColor=none;" parent="1" source="D9_A-52A2xUWyffd58kj-9" target="D9_A-52A2xUWyffd58kj-4" edge="1">
          <mxGeometry width="50" height="50" relative="1" as="geometry">
            <mxPoint x="-2117" y="-1970" as="sourcePoint" />
            <mxPoint x="-2067" y="-2020" as="targetPoint" />
          </mxGeometry>
        </mxCell>
        <mxCell id="D9_A-52A2xUWyffd58kj-55" value="Extend" style="edgeLabel;html=1;align=center;verticalAlign=middle;resizable=0;points=[];fontFamily=Sarabun;fontSource=https%3A%2F%2Ffonts.googleapis.com%2Fcss%3Ffamily%3DSarabun;labelBorderColor=none;labelBackgroundColor=none;" parent="D9_A-52A2xUWyffd58kj-24" vertex="1" connectable="0">
          <mxGeometry x="-0.1293" y="-1" relative="1" as="geometry">
            <mxPoint as="offset" />
          </mxGeometry>
        </mxCell>
        <mxCell id="D9_A-52A2xUWyffd58kj-25" value="" style="endArrow=none;html=1;rounded=0;entryX=0.057;entryY=0.661;entryDx=0;entryDy=0;entryPerimeter=0;exitX=1;exitY=0.3333333333333333;exitDx=0;exitDy=0;exitPerimeter=0;endFill=0;fontFamily=Sarabun;fontSource=https%3A%2F%2Ffonts.googleapis.com%2Fcss%3Ffamily%3DSarabun;labelBorderColor=none;labelBackgroundColor=none;" parent="1" source="D9_A-52A2xUWyffd58kj-19" target="D9_A-52A2xUWyffd58kj-4" edge="1">
          <mxGeometry width="50" height="50" relative="1" as="geometry">
            <mxPoint x="-2455" y="-1955" as="sourcePoint" />
            <mxPoint x="-2415" y="-1988" as="targetPoint" />
          </mxGeometry>
        </mxCell>
        <mxCell id="D9_A-52A2xUWyffd58kj-28" value="" style="endArrow=none;html=1;rounded=0;entryX=0;entryY=0.5;entryDx=0;entryDy=0;exitX=1;exitY=0.3333333333333333;exitDx=0;exitDy=0;exitPerimeter=0;endFill=0;fontFamily=Sarabun;fontSource=https%3A%2F%2Ffonts.googleapis.com%2Fcss%3Ffamily%3DSarabun;labelBorderColor=none;labelBackgroundColor=none;" parent="1" source="D9_A-52A2xUWyffd58kj-19" target="D9_A-52A2xUWyffd58kj-13" edge="1">
          <mxGeometry width="50" height="50" relative="1" as="geometry">
            <mxPoint x="-2445" y="-1925" as="sourcePoint" />
            <mxPoint x="-2319" y="-2107" as="targetPoint" />
          </mxGeometry>
        </mxCell>
        <mxCell id="D9_A-52A2xUWyffd58kj-33" value="" style="endArrow=classic;html=1;rounded=0;dashed=1;exitX=1;exitY=0.5;exitDx=0;exitDy=0;fontFamily=Sarabun;fontSource=https%3A%2F%2Ffonts.googleapis.com%2Fcss%3Ffamily%3DSarabun;labelBorderColor=none;labelBackgroundColor=none;" parent="1" source="D9_A-52A2xUWyffd58kj-8" target="D9_A-52A2xUWyffd58kj-12" edge="1">
          <mxGeometry width="50" height="50" relative="1" as="geometry">
            <mxPoint x="-2099" y="-1945" as="sourcePoint" />
            <mxPoint x="-2049" y="-1995" as="targetPoint" />
          </mxGeometry>
        </mxCell>
        <mxCell id="D9_A-52A2xUWyffd58kj-58" value="Include" style="edgeLabel;html=1;align=center;verticalAlign=middle;resizable=0;points=[];fontFamily=Sarabun;fontSource=https%3A%2F%2Ffonts.googleapis.com%2Fcss%3Ffamily%3DSarabun;labelBorderColor=none;labelBackgroundColor=none;" parent="D9_A-52A2xUWyffd58kj-33" vertex="1" connectable="0">
          <mxGeometry x="-0.1743" y="-1" relative="1" as="geometry">
            <mxPoint as="offset" />
          </mxGeometry>
        </mxCell>
        <mxCell id="D9_A-52A2xUWyffd58kj-56" style="rounded=0;orthogonalLoop=1;jettySize=auto;html=1;exitX=1;exitY=0.5;exitDx=0;exitDy=0;entryX=0;entryY=0.5;entryDx=0;entryDy=0;dashed=1;fontFamily=Sarabun;fontSource=https%3A%2F%2Ffonts.googleapis.com%2Fcss%3Ffamily%3DSarabun;labelBorderColor=none;labelBackgroundColor=none;" parent="1" source="D9_A-52A2xUWyffd58kj-34" target="D9_A-52A2xUWyffd58kj-8" edge="1">
          <mxGeometry relative="1" as="geometry" />
        </mxCell>
        <mxCell id="D9_A-52A2xUWyffd58kj-57" value="Include" style="edgeLabel;html=1;align=center;verticalAlign=middle;resizable=0;points=[];fontFamily=Sarabun;fontSource=https%3A%2F%2Ffonts.googleapis.com%2Fcss%3Ffamily%3DSarabun;labelBorderColor=none;labelBackgroundColor=none;" parent="D9_A-52A2xUWyffd58kj-56" vertex="1" connectable="0">
          <mxGeometry x="-0.0536" relative="1" as="geometry">
            <mxPoint as="offset" />
          </mxGeometry>
        </mxCell>
        <mxCell id="D9_A-52A2xUWyffd58kj-34" value="&lt;div&gt;&lt;span style=&quot;font-size: 10px;&quot;&gt;โครงงาน&lt;/span&gt;&lt;/div&gt;" style="shape=ellipse;html=1;dashed=0;whiteSpace=wrap;perimeter=ellipsePerimeter;fontFamily=Sarabun;fontSource=https%3A%2F%2Ffonts.googleapis.com%2Fcss%3Ffamily%3DSarabun;labelBorderColor=none;labelBackgroundColor=none;" parent="1" vertex="1">
          <mxGeometry x="-2325" y="-1865" width="100" height="50" as="geometry" />
        </mxCell>
        <mxCell id="D9_A-52A2xUWyffd58kj-48" style="rounded=0;orthogonalLoop=1;jettySize=auto;html=1;exitX=0;exitY=0.5;exitDx=0;exitDy=0;entryX=1;entryY=0.5;entryDx=0;entryDy=0;endArrow=classic;endFill=1;dashed=1;fontFamily=Sarabun;fontSource=https%3A%2F%2Ffonts.googleapis.com%2Fcss%3Ffamily%3DSarabun;labelBorderColor=none;labelBackgroundColor=none;" parent="1" source="D9_A-52A2xUWyffd58kj-46" target="D9_A-52A2xUWyffd58kj-9" edge="1">
          <mxGeometry relative="1" as="geometry">
            <Array as="points" />
          </mxGeometry>
        </mxCell>
        <mxCell id="D9_A-52A2xUWyffd58kj-51" value="In" style="edgeLabel;html=1;align=center;verticalAlign=middle;resizable=0;points=[];fontFamily=Sarabun;fontSource=https%3A%2F%2Ffonts.googleapis.com%2Fcss%3Ffamily%3DSarabun;labelBorderColor=none;labelBackgroundColor=none;" parent="D9_A-52A2xUWyffd58kj-48" vertex="1" connectable="0">
          <mxGeometry x="-0.046" y="-1" relative="1" as="geometry">
            <mxPoint as="offset" />
          </mxGeometry>
        </mxCell>
        <mxCell id="D9_A-52A2xUWyffd58kj-54" value="Include" style="edgeLabel;html=1;align=center;verticalAlign=middle;resizable=0;points=[];fontFamily=Sarabun;fontSource=https%3A%2F%2Ffonts.googleapis.com%2Fcss%3Ffamily%3DSarabun;labelBorderColor=none;labelBackgroundColor=none;" parent="D9_A-52A2xUWyffd58kj-48" vertex="1" connectable="0">
          <mxGeometry x="-0.0515" relative="1" as="geometry">
            <mxPoint as="offset" />
          </mxGeometry>
        </mxCell>
        <mxCell id="D9_A-52A2xUWyffd58kj-46" value="&lt;span style=&quot;font-size: 10px;&quot;&gt;เพิ่มหัวข้อโครงงาน&lt;/span&gt;" style="shape=ellipse;html=1;dashed=0;whiteSpace=wrap;perimeter=ellipsePerimeter;fontFamily=Sarabun;fontSource=https%3A%2F%2Ffonts.googleapis.com%2Fcss%3Ffamily%3DSarabun;labelBorderColor=none;labelBackgroundColor=none;" parent="1" vertex="1">
          <mxGeometry x="-1945" y="-2095" width="100" height="50" as="geometry" />
        </mxCell>
        <mxCell id="D9_A-52A2xUWyffd58kj-61" value="use case ระบบการจัดการโครงงาน" style="text;html=1;align=center;verticalAlign=middle;resizable=0;points=[];autosize=1;strokeColor=none;fillColor=none;fontFamily=Sarabun;fontSource=https%3A%2F%2Ffonts.googleapis.com%2Fcss%3Ffamily%3DSarabun;labelBorderColor=none;labelBackgroundColor=none;" parent="1" vertex="1">
          <mxGeometry x="-2190" y="-2215" width="190" height="30" as="geometry" />
        </mxCell>
        <mxCell id="RSBKByFq2x5yV56y8QZ8-1" value="&lt;span style=&quot;font-family: Sarabun;&quot;&gt;use case ภาพรวมของระบบ&lt;/span&gt;" style="text;html=1;align=center;verticalAlign=middle;whiteSpace=wrap;rounded=0;labelBorderColor=none;labelBackgroundColor=none;" parent="1" vertex="1">
          <mxGeometry x="-3050" y="-2210" width="190" height="30" as="geometry" />
        </mxCell>
        <mxCell id="fJh2C3fmbB4TxrB6Jk7D-4" value="" style="shape=image;verticalLabelPosition=bottom;labelBackgroundColor=none;verticalAlign=top;aspect=fixed;imageAspect=0;image=https://cdn.pixabay.com/photo/2023/09/13/07/29/ghost-8250317_640.png;labelBorderColor=none;" parent="1" vertex="1">
          <mxGeometry x="-2720" y="-2130" width="214.5" height="240" as="geometry" />
        </mxCell>
        <mxCell id="RSBKByFq2x5yV56y8QZ8-31" value="&lt;span style=&quot;font-family: Sarabun;&quot;&gt;Use case&lt;/span&gt;&lt;div style=&quot;font-family: Sarabun;&quot;&gt;การทำงานของระบบค้นหา&lt;/div&gt;" style="text;html=1;align=center;verticalAlign=middle;whiteSpace=wrap;rounded=0;labelBorderColor=none;labelBackgroundColor=none;" parent="1" vertex="1">
          <mxGeometry x="-2982.5" y="-1607" width="165" height="30" as="geometry" />
        </mxCell>
        <mxCell id="YyjMaU0Ngdekt9YktJRk-47" value="" style="group;labelBorderColor=none;labelBackgroundColor=none;" parent="1" vertex="1" connectable="0">
          <mxGeometry x="3" y="-1948" width="640" height="455" as="geometry" />
        </mxCell>
        <mxCell id="ZaGhDLhcAFXalhAohprH-87" value="" style="html=1;whiteSpace=wrap;align=center;movable=1;resizable=1;rotatable=1;deletable=1;editable=1;locked=0;connectable=1;labelBorderColor=none;labelBackgroundColor=none;" parent="YyjMaU0Ngdekt9YktJRk-47" vertex="1">
          <mxGeometry width="640" height="455" as="geometry" />
        </mxCell>
        <mxCell id="ZaGhDLhcAFXalhAohprH-88" value="&lt;span style=&quot;font-family: Sarabun;&quot;&gt;DFD LV2 &lt;/span&gt;&lt;font&gt;การยื่นคำร้องขอเปิดโครงงาน&lt;/font&gt;" style="text;html=1;align=center;verticalAlign=middle;resizable=0;points=[];autosize=1;strokeColor=none;fillColor=none;labelBorderColor=none;labelBackgroundColor=none;" parent="YyjMaU0Ngdekt9YktJRk-47" vertex="1">
          <mxGeometry x="215" y="35" width="210" height="30" as="geometry" />
        </mxCell>
        <mxCell id="YyjMaU0Ngdekt9YktJRk-6" value="1.1" style="swimlane;fontStyle=0;childLayout=stackLayout;horizontal=1;startSize=20;fillColor=#ffffff;horizontalStack=0;resizeParent=1;resizeParentMax=0;resizeLast=0;collapsible=0;marginBottom=0;swimlaneFillColor=#ffffff;fontFamily=Sarabun;fontSource=https%3A%2F%2Ffonts.googleapis.com%2Fcss%3Ffamily%3DSarabun;labelBorderColor=none;labelBackgroundColor=none;" parent="YyjMaU0Ngdekt9YktJRk-47" vertex="1">
          <mxGeometry x="210" y="195" width="166" height="50" as="geometry" />
        </mxCell>
        <mxCell id="YyjMaU0Ngdekt9YktJRk-7" value="เปิดคำร้องโครงงาน" style="text;html=1;align=center;verticalAlign=middle;resizable=0;points=[];autosize=1;strokeColor=none;fillColor=none;fontFamily=Sarabun;fontSource=https%3A%2F%2Ffonts.googleapis.com%2Fcss%3Ffamily%3DSarabun;labelBorderColor=none;labelBackgroundColor=none;" parent="YyjMaU0Ngdekt9YktJRk-6" vertex="1">
          <mxGeometry y="20" width="166" height="30" as="geometry" />
        </mxCell>
        <mxCell id="YyjMaU0Ngdekt9YktJRk-9" value="" style="group;labelBorderColor=none;labelBackgroundColor=none;" parent="YyjMaU0Ngdekt9YktJRk-47" vertex="1" connectable="0">
          <mxGeometry x="460" y="110" width="121.5" height="30" as="geometry" />
        </mxCell>
        <mxCell id="YyjMaU0Ngdekt9YktJRk-10" value="D8" style="html=1;dashed=0;whiteSpace=wrap;shape=mxgraph.dfd.dataStoreID;align=left;spacingLeft=3;points=[[0,0],[0.5,0],[1,0],[0,0.5],[1,0.5],[0,1],[0.5,1],[1,1]];labelBorderColor=none;labelBackgroundColor=none;" parent="YyjMaU0Ngdekt9YktJRk-9" vertex="1">
          <mxGeometry width="100" height="30" as="geometry" />
        </mxCell>
        <mxCell id="YyjMaU0Ngdekt9YktJRk-11" value="teacher_info" style="text;html=1;align=left;verticalAlign=middle;resizable=0;points=[];autosize=1;strokeColor=none;fillColor=none;labelBorderColor=none;labelBackgroundColor=none;" parent="YyjMaU0Ngdekt9YktJRk-9" vertex="1">
          <mxGeometry x="31.5" width="90" height="30" as="geometry" />
        </mxCell>
        <mxCell id="YyjMaU0Ngdekt9YktJRk-15" value="" style="group;labelBorderColor=none;labelBackgroundColor=none;" parent="YyjMaU0Ngdekt9YktJRk-47" vertex="1" connectable="0">
          <mxGeometry x="460" y="75" width="80" height="30" as="geometry" />
        </mxCell>
        <mxCell id="YyjMaU0Ngdekt9YktJRk-16" value="D9" style="html=1;dashed=0;whiteSpace=wrap;shape=mxgraph.dfd.dataStoreID;align=left;spacingLeft=3;points=[[0,0],[0.5,0],[1,0],[0,0.5],[1,0.5],[0,1],[0.5,1],[1,1]];fontFamily=Sarabun;fontSource=https%3A%2F%2Ffonts.googleapis.com%2Fcss%3Ffamily%3DSarabun;labelBorderColor=none;labelBackgroundColor=none;" parent="YyjMaU0Ngdekt9YktJRk-15" vertex="1">
          <mxGeometry width="67" height="30" as="geometry" />
        </mxCell>
        <mxCell id="YyjMaU0Ngdekt9YktJRk-17" value="Users" style="text;html=1;align=left;verticalAlign=middle;resizable=0;points=[];autosize=1;strokeColor=none;fillColor=none;fontFamily=Sarabun;fontSource=https%3A%2F%2Ffonts.googleapis.com%2Fcss%3Ffamily%3DSarabun;labelBorderColor=none;labelBackgroundColor=none;" parent="YyjMaU0Ngdekt9YktJRk-15" vertex="1">
          <mxGeometry x="30" width="50" height="30" as="geometry" />
        </mxCell>
        <mxCell id="YyjMaU0Ngdekt9YktJRk-18" value="" style="group;labelBorderColor=none;labelBackgroundColor=none;" parent="YyjMaU0Ngdekt9YktJRk-47" vertex="1" connectable="0">
          <mxGeometry x="460" y="145" width="132" height="30" as="geometry" />
        </mxCell>
        <mxCell id="YyjMaU0Ngdekt9YktJRk-19" value="D6" style="html=1;dashed=0;whiteSpace=wrap;shape=mxgraph.dfd.dataStoreID;align=left;spacingLeft=3;points=[[0,0],[0.5,0],[1,0],[0,0.5],[1,0.5],[0,1],[0.5,1],[1,1]];labelBorderColor=none;labelBackgroundColor=none;" parent="YyjMaU0Ngdekt9YktJRk-18" vertex="1">
          <mxGeometry width="112" height="30" as="geometry" />
        </mxCell>
        <mxCell id="YyjMaU0Ngdekt9YktJRk-20" value="Projects_type" style="text;html=1;align=left;verticalAlign=middle;resizable=0;points=[];autosize=1;strokeColor=none;fillColor=none;labelBorderColor=none;labelBackgroundColor=none;" parent="YyjMaU0Ngdekt9YktJRk-18" vertex="1">
          <mxGeometry x="32" width="100" height="30" as="geometry" />
        </mxCell>
        <mxCell id="YyjMaU0Ngdekt9YktJRk-22" value="1.2" style="swimlane;fontStyle=0;childLayout=stackLayout;horizontal=1;startSize=20;fillColor=#ffffff;horizontalStack=0;resizeParent=1;resizeParentMax=0;resizeLast=0;collapsible=0;marginBottom=0;swimlaneFillColor=#ffffff;fontFamily=Sarabun;fontSource=https%3A%2F%2Ffonts.googleapis.com%2Fcss%3Ffamily%3DSarabun;labelBorderColor=none;labelBackgroundColor=none;" parent="YyjMaU0Ngdekt9YktJRk-47" vertex="1">
          <mxGeometry x="210" y="358" width="166" height="50" as="geometry" />
        </mxCell>
        <mxCell id="YyjMaU0Ngdekt9YktJRk-23" value="บันทึกคำร้องโครงงาน" style="text;html=1;align=center;verticalAlign=middle;resizable=0;points=[];autosize=1;strokeColor=none;fillColor=none;fontFamily=Sarabun;fontSource=https%3A%2F%2Ffonts.googleapis.com%2Fcss%3Ffamily%3DSarabun;labelBorderColor=none;labelBackgroundColor=none;" parent="YyjMaU0Ngdekt9YktJRk-22" vertex="1">
          <mxGeometry y="20" width="166" height="30" as="geometry" />
        </mxCell>
        <mxCell id="YyjMaU0Ngdekt9YktJRk-24" style="edgeStyle=orthogonalEdgeStyle;rounded=0;orthogonalLoop=1;jettySize=auto;html=1;entryX=0.25;entryY=0;entryDx=0;entryDy=0;labelBorderColor=none;labelBackgroundColor=none;" parent="YyjMaU0Ngdekt9YktJRk-47" source="YyjMaU0Ngdekt9YktJRk-16" target="YyjMaU0Ngdekt9YktJRk-6" edge="1">
          <mxGeometry relative="1" as="geometry" />
        </mxCell>
        <mxCell id="YyjMaU0Ngdekt9YktJRk-40" value="รายชื่อนักศึกษา" style="edgeLabel;html=1;align=center;verticalAlign=middle;resizable=0;points=[];labelBorderColor=none;labelBackgroundColor=none;" parent="YyjMaU0Ngdekt9YktJRk-24" vertex="1" connectable="0">
          <mxGeometry x="-0.2271" y="-2" relative="1" as="geometry">
            <mxPoint x="51" y="-6" as="offset" />
          </mxGeometry>
        </mxCell>
        <mxCell id="YyjMaU0Ngdekt9YktJRk-25" value="รายชื่ออาจารย์" style="edgeStyle=orthogonalEdgeStyle;rounded=0;orthogonalLoop=1;jettySize=auto;html=1;entryX=0.5;entryY=0;entryDx=0;entryDy=0;labelBorderColor=none;labelBackgroundColor=none;" parent="YyjMaU0Ngdekt9YktJRk-47" source="YyjMaU0Ngdekt9YktJRk-10" target="YyjMaU0Ngdekt9YktJRk-6" edge="1">
          <mxGeometry x="-0.384" y="-7" relative="1" as="geometry">
            <mxPoint as="offset" />
          </mxGeometry>
        </mxCell>
        <mxCell id="YyjMaU0Ngdekt9YktJRk-26" style="edgeStyle=orthogonalEdgeStyle;rounded=0;orthogonalLoop=1;jettySize=auto;html=1;entryX=0.75;entryY=0;entryDx=0;entryDy=0;labelBorderColor=none;labelBackgroundColor=none;" parent="YyjMaU0Ngdekt9YktJRk-47" source="YyjMaU0Ngdekt9YktJRk-19" target="YyjMaU0Ngdekt9YktJRk-6" edge="1">
          <mxGeometry relative="1" as="geometry" />
        </mxCell>
        <mxCell id="YyjMaU0Ngdekt9YktJRk-41" value="ประเภทโครงงาน" style="edgeLabel;html=1;align=center;verticalAlign=middle;resizable=0;points=[];labelBorderColor=none;labelBackgroundColor=none;" parent="YyjMaU0Ngdekt9YktJRk-26" vertex="1" connectable="0">
          <mxGeometry x="-0.0156" y="-1" relative="1" as="geometry">
            <mxPoint x="9" y="-6" as="offset" />
          </mxGeometry>
        </mxCell>
        <mxCell id="YyjMaU0Ngdekt9YktJRk-27" style="edgeStyle=orthogonalEdgeStyle;rounded=0;orthogonalLoop=1;jettySize=auto;html=1;entryX=0;entryY=0.25;entryDx=0;entryDy=0;exitX=-0.001;exitY=0.649;exitDx=0;exitDy=0;exitPerimeter=0;labelBorderColor=none;labelBackgroundColor=none;" parent="YyjMaU0Ngdekt9YktJRk-47" source="YyjMaU0Ngdekt9YktJRk-7" target="YyjMaU0Ngdekt9YktJRk-22" edge="1">
          <mxGeometry relative="1" as="geometry">
            <Array as="points">
              <mxPoint x="127" y="235" />
              <mxPoint x="127" y="371" />
              <mxPoint x="210" y="371" />
            </Array>
          </mxGeometry>
        </mxCell>
        <mxCell id="YyjMaU0Ngdekt9YktJRk-44" value="ข้อมูลโครงงาน" style="edgeLabel;html=1;align=center;verticalAlign=middle;resizable=0;points=[];labelBorderColor=none;labelBackgroundColor=none;" parent="YyjMaU0Ngdekt9YktJRk-27" vertex="1" connectable="0">
          <mxGeometry x="-0.0147" relative="1" as="geometry">
            <mxPoint x="60" y="-54" as="offset" />
          </mxGeometry>
        </mxCell>
        <mxCell id="YyjMaU0Ngdekt9YktJRk-28" value="" style="group;labelBorderColor=none;labelBackgroundColor=none;" parent="YyjMaU0Ngdekt9YktJRk-47" vertex="1" connectable="0">
          <mxGeometry x="460" y="315" width="140" height="30" as="geometry" />
        </mxCell>
        <mxCell id="YyjMaU0Ngdekt9YktJRk-29" value="D5" style="html=1;dashed=0;whiteSpace=wrap;shape=mxgraph.dfd.dataStoreID;align=left;spacingLeft=3;points=[[0,0],[0.5,0],[1,0],[0,0.5],[1,0.5],[0,1],[0.5,1],[1,1]];fontFamily=Sarabun;fontSource=https%3A%2F%2Ffonts.googleapis.com%2Fcss%3Ffamily%3DSarabun;labelBorderColor=none;labelBackgroundColor=none;" parent="YyjMaU0Ngdekt9YktJRk-28" vertex="1">
          <mxGeometry width="117" height="30" as="geometry" />
        </mxCell>
        <mxCell id="YyjMaU0Ngdekt9YktJRk-30" value="Projects_request" style="text;html=1;align=left;verticalAlign=middle;resizable=0;points=[];autosize=1;strokeColor=none;fillColor=none;fontFamily=Sarabun;fontSource=https%3A%2F%2Ffonts.googleapis.com%2Fcss%3Ffamily%3DSarabun;labelBorderColor=none;labelBackgroundColor=none;" parent="YyjMaU0Ngdekt9YktJRk-28" vertex="1">
          <mxGeometry x="30" width="110" height="30" as="geometry" />
        </mxCell>
        <mxCell id="YyjMaU0Ngdekt9YktJRk-31" value="" style="group;labelBorderColor=none;labelBackgroundColor=none;" parent="YyjMaU0Ngdekt9YktJRk-47" vertex="1" connectable="0">
          <mxGeometry x="460" y="275" width="153" height="30" as="geometry" />
        </mxCell>
        <mxCell id="YyjMaU0Ngdekt9YktJRk-34" value="" style="group;labelBorderColor=none;labelBackgroundColor=none;" parent="YyjMaU0Ngdekt9YktJRk-31" vertex="1" connectable="0">
          <mxGeometry width="153" height="30" as="geometry" />
        </mxCell>
        <mxCell id="YyjMaU0Ngdekt9YktJRk-32" value="D7" style="html=1;dashed=0;whiteSpace=wrap;shape=mxgraph.dfd.dataStoreID;align=left;spacingLeft=3;points=[[0,0],[0.5,0],[1,0],[0,0.5],[1,0.5],[0,1],[0.5,1],[1,1]];fontFamily=Sarabun;fontSource=https%3A%2F%2Ffonts.googleapis.com%2Fcss%3Ffamily%3DSarabun;labelBorderColor=none;labelBackgroundColor=none;" parent="YyjMaU0Ngdekt9YktJRk-34" vertex="1">
          <mxGeometry width="127" height="30" as="geometry" />
        </mxCell>
        <mxCell id="YyjMaU0Ngdekt9YktJRk-33" value="students_projects" style="text;html=1;align=left;verticalAlign=middle;resizable=0;points=[];autosize=1;strokeColor=none;fillColor=none;labelBorderColor=none;labelBackgroundColor=none;" parent="YyjMaU0Ngdekt9YktJRk-34" vertex="1">
          <mxGeometry x="33" width="120" height="30" as="geometry" />
        </mxCell>
        <mxCell id="YyjMaU0Ngdekt9YktJRk-35" style="edgeStyle=orthogonalEdgeStyle;rounded=0;orthogonalLoop=1;jettySize=auto;html=1;entryX=0.25;entryY=0;entryDx=0;entryDy=0;endArrow=none;endFill=0;startArrow=classic;startFill=1;labelBorderColor=none;labelBackgroundColor=none;" parent="YyjMaU0Ngdekt9YktJRk-47" source="YyjMaU0Ngdekt9YktJRk-32" target="YyjMaU0Ngdekt9YktJRk-22" edge="1">
          <mxGeometry relative="1" as="geometry" />
        </mxCell>
        <mxCell id="YyjMaU0Ngdekt9YktJRk-42" value="ข้อมูลสมาชิกโครงงาน" style="edgeLabel;html=1;align=center;verticalAlign=middle;resizable=0;points=[];labelBorderColor=none;labelBackgroundColor=none;" parent="YyjMaU0Ngdekt9YktJRk-35" vertex="1" connectable="0">
          <mxGeometry x="-0.1899" relative="1" as="geometry">
            <mxPoint x="17" y="-14" as="offset" />
          </mxGeometry>
        </mxCell>
        <mxCell id="YyjMaU0Ngdekt9YktJRk-36" style="edgeStyle=orthogonalEdgeStyle;rounded=0;orthogonalLoop=1;jettySize=auto;html=1;entryX=0.5;entryY=0;entryDx=0;entryDy=0;startArrow=classic;startFill=1;endArrow=none;endFill=0;labelBorderColor=none;labelBackgroundColor=none;" parent="YyjMaU0Ngdekt9YktJRk-47" source="YyjMaU0Ngdekt9YktJRk-29" target="YyjMaU0Ngdekt9YktJRk-22" edge="1">
          <mxGeometry relative="1" as="geometry" />
        </mxCell>
        <mxCell id="YyjMaU0Ngdekt9YktJRk-43" value="ข้อมูลคำร้องเปิดโครงงาน" style="edgeLabel;html=1;align=center;verticalAlign=middle;resizable=0;points=[];labelBorderColor=none;labelBackgroundColor=none;" parent="YyjMaU0Ngdekt9YktJRk-36" vertex="1" connectable="0">
          <mxGeometry x="0.0872" y="3" relative="1" as="geometry">
            <mxPoint x="11" y="-14" as="offset" />
          </mxGeometry>
        </mxCell>
        <mxCell id="YyjMaU0Ngdekt9YktJRk-38" style="edgeStyle=orthogonalEdgeStyle;rounded=0;orthogonalLoop=1;jettySize=auto;html=1;entryX=0;entryY=0.25;entryDx=0;entryDy=0;labelBorderColor=none;labelBackgroundColor=none;" parent="YyjMaU0Ngdekt9YktJRk-47" source="YyjMaU0Ngdekt9YktJRk-37" target="YyjMaU0Ngdekt9YktJRk-6" edge="1">
          <mxGeometry relative="1" as="geometry">
            <Array as="points">
              <mxPoint x="110" y="208" />
            </Array>
          </mxGeometry>
        </mxCell>
        <mxCell id="YyjMaU0Ngdekt9YktJRk-45" value="ส่งคำร้อง" style="edgeLabel;html=1;align=center;verticalAlign=middle;resizable=0;points=[];labelBorderColor=none;labelBackgroundColor=none;" parent="YyjMaU0Ngdekt9YktJRk-38" vertex="1" connectable="0">
          <mxGeometry x="0.1593" y="1" relative="1" as="geometry">
            <mxPoint x="1" y="-11" as="offset" />
          </mxGeometry>
        </mxCell>
        <mxCell id="YyjMaU0Ngdekt9YktJRk-37" value="นักศึกษา" style="html=1;whiteSpace=wrap;fontFamily=Sarabun;fontSource=https%3A%2F%2Ffonts.googleapis.com%2Fcss%3Ffamily%3DSarabun;labelBorderColor=none;labelBackgroundColor=none;" parent="YyjMaU0Ngdekt9YktJRk-47" vertex="1">
          <mxGeometry x="30" y="110" width="110" height="50" as="geometry" />
        </mxCell>
        <mxCell id="YyjMaU0Ngdekt9YktJRk-39" style="edgeStyle=orthogonalEdgeStyle;rounded=0;orthogonalLoop=1;jettySize=auto;html=1;entryX=0.25;entryY=1;entryDx=0;entryDy=0;labelBorderColor=none;labelBackgroundColor=none;" parent="YyjMaU0Ngdekt9YktJRk-47" source="YyjMaU0Ngdekt9YktJRk-23" target="YyjMaU0Ngdekt9YktJRk-37" edge="1">
          <mxGeometry relative="1" as="geometry" />
        </mxCell>
        <mxCell id="YyjMaU0Ngdekt9YktJRk-46" value="สถานะคำร้อง" style="edgeLabel;html=1;align=center;verticalAlign=middle;resizable=0;points=[];labelBorderColor=none;labelBackgroundColor=none;" parent="YyjMaU0Ngdekt9YktJRk-39" vertex="1" connectable="0">
          <mxGeometry x="-0.4708" y="-1" relative="1" as="geometry">
            <mxPoint x="-11" y="-9" as="offset" />
          </mxGeometry>
        </mxCell>
        <mxCell id="YyjMaU0Ngdekt9YktJRk-49" value="" style="group;labelBorderColor=none;labelBackgroundColor=none;" parent="1" vertex="1" connectable="0">
          <mxGeometry x="875" y="-1890" width="650" height="250" as="geometry" />
        </mxCell>
        <mxCell id="YyjMaU0Ngdekt9YktJRk-50" value="" style="html=1;whiteSpace=wrap;align=center;movable=1;resizable=1;rotatable=1;deletable=1;editable=1;locked=0;connectable=1;labelBorderColor=none;labelBackgroundColor=none;" parent="YyjMaU0Ngdekt9YktJRk-49" vertex="1">
          <mxGeometry y="-2" width="640" height="250" as="geometry" />
        </mxCell>
        <mxCell id="YyjMaU0Ngdekt9YktJRk-51" value="&lt;span style=&quot;font-family: Sarabun;&quot;&gt;DFD LV2 &lt;/span&gt;&lt;font&gt;ส่งข้อมูลเอกสาร&lt;/font&gt;" style="text;html=1;align=center;verticalAlign=middle;resizable=0;points=[];autosize=1;strokeColor=none;fillColor=none;labelBorderColor=none;labelBackgroundColor=none;" parent="YyjMaU0Ngdekt9YktJRk-49" vertex="1">
          <mxGeometry x="220" y="-0.0009146013297254285" width="150" height="30" as="geometry" />
        </mxCell>
        <mxCell id="YyjMaU0Ngdekt9YktJRk-52" value="2.1" style="swimlane;fontStyle=0;childLayout=stackLayout;horizontal=1;startSize=20;fillColor=#ffffff;horizontalStack=0;resizeParent=1;resizeParentMax=0;resizeLast=0;collapsible=0;marginBottom=0;swimlaneFillColor=#ffffff;fontFamily=Sarabun;fontSource=https%3A%2F%2Ffonts.googleapis.com%2Fcss%3Ffamily%3DSarabun;labelBorderColor=none;labelBackgroundColor=none;" parent="YyjMaU0Ngdekt9YktJRk-49" vertex="1">
          <mxGeometry x="227" y="154.5287474245579" width="166" height="50" as="geometry" />
        </mxCell>
        <mxCell id="YyjMaU0Ngdekt9YktJRk-53" value="บันทึกเอกสาร" style="text;html=1;align=center;verticalAlign=middle;resizable=0;points=[];autosize=1;strokeColor=none;fillColor=none;fontFamily=Sarabun;fontSource=https%3A%2F%2Ffonts.googleapis.com%2Fcss%3Ffamily%3DSarabun;labelBorderColor=none;labelBackgroundColor=none;" parent="YyjMaU0Ngdekt9YktJRk-52" vertex="1">
          <mxGeometry y="20" width="166" height="30" as="geometry" />
        </mxCell>
        <mxCell id="YyjMaU0Ngdekt9YktJRk-100" style="edgeStyle=orthogonalEdgeStyle;rounded=0;orthogonalLoop=1;jettySize=auto;html=1;exitX=0.5;exitY=1;exitDx=0;exitDy=0;entryX=0;entryY=0.25;entryDx=0;entryDy=0;labelBorderColor=none;labelBackgroundColor=none;" parent="YyjMaU0Ngdekt9YktJRk-49" source="YyjMaU0Ngdekt9YktJRk-85" target="YyjMaU0Ngdekt9YktJRk-52" edge="1">
          <mxGeometry relative="1" as="geometry">
            <Array as="points">
              <mxPoint x="95" y="167" />
            </Array>
          </mxGeometry>
        </mxCell>
        <mxCell id="YyjMaU0Ngdekt9YktJRk-101" value="เอกสารในกระบวนการ" style="edgeLabel;html=1;align=center;verticalAlign=middle;resizable=0;points=[];labelBorderColor=none;labelBackgroundColor=none;" parent="YyjMaU0Ngdekt9YktJRk-100" vertex="1" connectable="0">
          <mxGeometry x="0.2938" relative="1" as="geometry">
            <mxPoint x="19" y="-8" as="offset" />
          </mxGeometry>
        </mxCell>
        <mxCell id="YyjMaU0Ngdekt9YktJRk-85" value="นักศึกษา" style="html=1;whiteSpace=wrap;fontFamily=Sarabun;fontSource=https%3A%2F%2Ffonts.googleapis.com%2Fcss%3Ffamily%3DSarabun;labelBorderColor=none;labelBackgroundColor=none;" parent="YyjMaU0Ngdekt9YktJRk-49" vertex="1">
          <mxGeometry x="40" y="28.88028747098381" width="110" height="27.181447031514182" as="geometry" />
        </mxCell>
        <mxCell id="YyjMaU0Ngdekt9YktJRk-89" value="" style="group;labelBorderColor=none;labelBackgroundColor=none;" parent="YyjMaU0Ngdekt9YktJRk-49" vertex="1" connectable="0">
          <mxGeometry x="450" y="90.00286628358948" width="150" height="16.308868218908504" as="geometry" />
        </mxCell>
        <mxCell id="YyjMaU0Ngdekt9YktJRk-90" value="D3" style="html=1;dashed=0;whiteSpace=wrap;shape=mxgraph.dfd.dataStoreID;align=left;spacingLeft=3;points=[[0,0],[0.5,0],[1,0],[0,0.5],[1,0.5],[0,1],[0.5,1],[1,1]];fontFamily=Sarabun;fontSource=https%3A%2F%2Ffonts.googleapis.com%2Fcss%3Ffamily%3DSarabun;labelBorderColor=none;labelBackgroundColor=none;" parent="YyjMaU0Ngdekt9YktJRk-89" vertex="1">
          <mxGeometry width="140" height="16.308868218908504" as="geometry" />
        </mxCell>
        <mxCell id="YyjMaU0Ngdekt9YktJRk-91" value="Projects Document" style="text;html=1;align=left;verticalAlign=middle;resizable=0;points=[];autosize=1;strokeColor=none;fillColor=none;fontFamily=Sarabun;fontSource=https%3A%2F%2Ffonts.googleapis.com%2Fcss%3Ffamily%3DSarabun;labelBorderColor=none;labelBackgroundColor=none;" parent="YyjMaU0Ngdekt9YktJRk-89" vertex="1">
          <mxGeometry x="30" y="-6.85" width="120" height="30" as="geometry" />
        </mxCell>
        <mxCell id="YyjMaU0Ngdekt9YktJRk-92" value="" style="group;labelBorderColor=none;labelBackgroundColor=none;" parent="YyjMaU0Ngdekt9YktJRk-49" vertex="1" connectable="0">
          <mxGeometry x="450" y="49.99682183648729" width="140" height="16.308868218908504" as="geometry" />
        </mxCell>
        <mxCell id="YyjMaU0Ngdekt9YktJRk-93" value="D2" style="html=1;dashed=0;whiteSpace=wrap;shape=mxgraph.dfd.dataStoreID;align=left;spacingLeft=3;points=[[0,0],[0.5,0],[1,0],[0,0.5],[1,0.5],[0,1],[0.5,1],[1,1]];labelBorderColor=none;labelBackgroundColor=none;" parent="YyjMaU0Ngdekt9YktJRk-92" vertex="1">
          <mxGeometry width="120" height="16.308868218908504" as="geometry" />
        </mxCell>
        <mxCell id="YyjMaU0Ngdekt9YktJRk-94" value="document_types" style="text;html=1;align=left;verticalAlign=middle;resizable=0;points=[];autosize=1;strokeColor=none;fillColor=none;labelBorderColor=none;labelBackgroundColor=none;" parent="YyjMaU0Ngdekt9YktJRk-92" vertex="1">
          <mxGeometry x="30" y="-6.85" width="110" height="30" as="geometry" />
        </mxCell>
        <mxCell id="YyjMaU0Ngdekt9YktJRk-96" style="edgeStyle=orthogonalEdgeStyle;rounded=0;orthogonalLoop=1;jettySize=auto;html=1;entryX=0.5;entryY=0;entryDx=0;entryDy=0;labelBorderColor=none;labelBackgroundColor=none;" parent="YyjMaU0Ngdekt9YktJRk-49" source="YyjMaU0Ngdekt9YktJRk-93" target="YyjMaU0Ngdekt9YktJRk-52" edge="1">
          <mxGeometry relative="1" as="geometry" />
        </mxCell>
        <mxCell id="YyjMaU0Ngdekt9YktJRk-98" value="หัวข้อเอกสารที่ต้องส่ง" style="edgeLabel;html=1;align=center;verticalAlign=middle;resizable=0;points=[];labelBorderColor=none;labelBackgroundColor=none;" parent="YyjMaU0Ngdekt9YktJRk-96" vertex="1" connectable="0">
          <mxGeometry x="-0.4272" y="2" relative="1" as="geometry">
            <mxPoint x="3" y="-11" as="offset" />
          </mxGeometry>
        </mxCell>
        <mxCell id="YyjMaU0Ngdekt9YktJRk-97" style="edgeStyle=orthogonalEdgeStyle;rounded=0;orthogonalLoop=1;jettySize=auto;html=1;entryX=0.75;entryY=0;entryDx=0;entryDy=0;startArrow=classic;startFill=1;endArrow=none;endFill=0;labelBorderColor=none;labelBackgroundColor=none;" parent="YyjMaU0Ngdekt9YktJRk-49" source="YyjMaU0Ngdekt9YktJRk-90" target="YyjMaU0Ngdekt9YktJRk-52" edge="1">
          <mxGeometry relative="1" as="geometry" />
        </mxCell>
        <mxCell id="YyjMaU0Ngdekt9YktJRk-99" value="จัดเก็บเอกสาร" style="edgeLabel;html=1;align=center;verticalAlign=middle;resizable=0;points=[];labelBorderColor=none;labelBackgroundColor=none;" parent="YyjMaU0Ngdekt9YktJRk-97" vertex="1" connectable="0">
          <mxGeometry x="-0.2619" relative="1" as="geometry">
            <mxPoint x="15" y="-8" as="offset" />
          </mxGeometry>
        </mxCell>
        <mxCell id="YyjMaU0Ngdekt9YktJRk-372" value="" style="group;labelBorderColor=none;labelBackgroundColor=none;" parent="1" vertex="1" connectable="0">
          <mxGeometry x="2515" y="-1908" width="768.5" height="470" as="geometry" />
        </mxCell>
        <mxCell id="YyjMaU0Ngdekt9YktJRk-319" value="" style="html=1;whiteSpace=wrap;align=center;movable=1;resizable=1;rotatable=1;deletable=1;editable=1;locked=0;connectable=1;labelBorderColor=none;labelBackgroundColor=none;" parent="YyjMaU0Ngdekt9YktJRk-372" vertex="1">
          <mxGeometry width="768.5" height="470" as="geometry" />
        </mxCell>
        <mxCell id="YyjMaU0Ngdekt9YktJRk-320" value="&lt;span style=&quot;font-family: Sarabun;&quot;&gt;DFD LV2 &lt;/span&gt;การจัดการข้อมูล" style="text;html=1;align=center;verticalAlign=middle;resizable=0;points=[];autosize=1;strokeColor=none;fillColor=none;labelBorderColor=none;labelBackgroundColor=none;" parent="YyjMaU0Ngdekt9YktJRk-372" vertex="1">
          <mxGeometry x="254.59090909090912" y="21.362637362637315" width="150" height="30" as="geometry" />
        </mxCell>
        <mxCell id="YyjMaU0Ngdekt9YktJRk-321" value="4.1" style="swimlane;fontStyle=0;childLayout=stackLayout;horizontal=1;startSize=20;fillColor=#ffffff;horizontalStack=0;resizeParent=1;resizeParentMax=0;resizeLast=0;collapsible=0;marginBottom=0;swimlaneFillColor=#ffffff;fontFamily=Sarabun;fontSource=https%3A%2F%2Ffonts.googleapis.com%2Fcss%3Ffamily%3DSarabun;labelBorderColor=none;labelBackgroundColor=none;" parent="YyjMaU0Ngdekt9YktJRk-372" vertex="1">
          <mxGeometry x="236.31515151515146" y="146.42571428571432" width="169.52121212121213" height="50" as="geometry" />
        </mxCell>
        <mxCell id="YyjMaU0Ngdekt9YktJRk-322" value="การจัดกการข้อมูล" style="text;html=1;align=center;verticalAlign=middle;resizable=0;points=[];autosize=1;strokeColor=none;fillColor=none;fontFamily=Sarabun;fontSource=https%3A%2F%2Ffonts.googleapis.com%2Fcss%3Ffamily%3DSarabun;labelBorderColor=none;labelBackgroundColor=none;" parent="YyjMaU0Ngdekt9YktJRk-321" vertex="1">
          <mxGeometry y="20" width="169.52121212121213" height="30" as="geometry" />
        </mxCell>
        <mxCell id="YyjMaU0Ngdekt9YktJRk-350" style="edgeStyle=orthogonalEdgeStyle;rounded=0;orthogonalLoop=1;jettySize=auto;html=1;entryX=0.367;entryY=0.983;entryDx=0;entryDy=0;entryPerimeter=0;exitX=1;exitY=0.25;exitDx=0;exitDy=0;labelBorderColor=none;labelBackgroundColor=none;" parent="YyjMaU0Ngdekt9YktJRk-372" target="YyjMaU0Ngdekt9YktJRk-333" edge="1">
          <mxGeometry relative="1" as="geometry">
            <mxPoint x="160.83242424242417" y="394.75307692307706" as="sourcePoint" />
            <mxPoint x="289.71433333333334" y="312.1357142857146" as="targetPoint" />
            <Array as="points">
              <mxPoint x="298.5" y="395" />
            </Array>
          </mxGeometry>
        </mxCell>
        <mxCell id="YyjMaU0Ngdekt9YktJRk-351" value="ค้นหาเอกสารแบบร่าง" style="edgeLabel;html=1;align=center;verticalAlign=middle;resizable=0;points=[];labelBorderColor=none;labelBackgroundColor=none;" parent="YyjMaU0Ngdekt9YktJRk-350" vertex="1" connectable="0">
          <mxGeometry x="-0.4635" y="1" relative="1" as="geometry">
            <mxPoint x="10" y="-6" as="offset" />
          </mxGeometry>
        </mxCell>
        <mxCell id="YyjMaU0Ngdekt9YktJRk-323" value="นักศึกษา" style="html=1;whiteSpace=wrap;fontFamily=Sarabun;fontSource=https%3A%2F%2Ffonts.googleapis.com%2Fcss%3Ffamily%3DSarabun;labelBorderColor=none;labelBackgroundColor=none;" parent="YyjMaU0Ngdekt9YktJRk-372" vertex="1">
          <mxGeometry x="48.49909090909091" y="385.22296703296706" width="112.33333333333334" height="39.56043956043956" as="geometry" />
        </mxCell>
        <mxCell id="YyjMaU0Ngdekt9YktJRk-332" value="4.2" style="swimlane;fontStyle=0;childLayout=stackLayout;horizontal=1;startSize=20;fillColor=#ffffff;horizontalStack=0;resizeParent=1;resizeParentMax=0;resizeLast=0;collapsible=0;marginBottom=0;swimlaneFillColor=#ffffff;fontFamily=Sarabun;fontSource=https%3A%2F%2Ffonts.googleapis.com%2Fcss%3Ffamily%3DSarabun;labelBorderColor=none;labelBackgroundColor=none;" parent="YyjMaU0Ngdekt9YktJRk-372" vertex="1">
          <mxGeometry x="236.31515151515146" y="262.13571428571436" width="169.52121212121213" height="50" as="geometry" />
        </mxCell>
        <mxCell id="YyjMaU0Ngdekt9YktJRk-333" value="ค้นหา" style="text;html=1;align=center;verticalAlign=middle;resizable=0;points=[];autosize=1;strokeColor=none;fillColor=none;fontFamily=Sarabun;fontSource=https%3A%2F%2Ffonts.googleapis.com%2Fcss%3Ffamily%3DSarabun;labelBorderColor=none;labelBackgroundColor=none;" parent="YyjMaU0Ngdekt9YktJRk-332" vertex="1">
          <mxGeometry y="20" width="169.52121212121213" height="30" as="geometry" />
        </mxCell>
        <mxCell id="YyjMaU0Ngdekt9YktJRk-331" value="อาจารย์" style="html=1;whiteSpace=wrap;fontFamily=Sarabun;fontSource=https%3A%2F%2Ffonts.googleapis.com%2Fcss%3Ffamily%3DSarabun;labelBorderColor=none;labelBackgroundColor=none;" parent="YyjMaU0Ngdekt9YktJRk-372" vertex="1">
          <mxGeometry x="608.4993939393939" y="90" width="112.33333333333334" height="50" as="geometry" />
        </mxCell>
        <mxCell id="YyjMaU0Ngdekt9YktJRk-344" style="edgeStyle=orthogonalEdgeStyle;rounded=0;orthogonalLoop=1;jettySize=auto;html=1;entryX=0.5;entryY=0;entryDx=0;entryDy=0;labelBorderColor=none;labelBackgroundColor=none;" parent="YyjMaU0Ngdekt9YktJRk-372" source="YyjMaU0Ngdekt9YktJRk-331" target="YyjMaU0Ngdekt9YktJRk-321" edge="1">
          <mxGeometry relative="1" as="geometry" />
        </mxCell>
        <mxCell id="YyjMaU0Ngdekt9YktJRk-346" value="เอกสารแบบร่าง / ประเภทโครงงาน /&amp;nbsp; อาจารย์" style="edgeLabel;html=1;align=center;verticalAlign=middle;resizable=0;points=[];labelBorderColor=none;labelBackgroundColor=none;" parent="YyjMaU0Ngdekt9YktJRk-344" vertex="1" connectable="0">
          <mxGeometry x="-0.3831" y="-2" relative="1" as="geometry">
            <mxPoint x="-29" y="-3" as="offset" />
          </mxGeometry>
        </mxCell>
        <mxCell id="YyjMaU0Ngdekt9YktJRk-340" value="" style="group;labelBorderColor=none;labelBackgroundColor=none;" parent="YyjMaU0Ngdekt9YktJRk-372" vertex="1" connectable="0">
          <mxGeometry x="48.50090909090909" y="220" width="142.96969696969697" height="30" as="geometry" />
        </mxCell>
        <mxCell id="YyjMaU0Ngdekt9YktJRk-341" value="D1" style="html=1;dashed=0;whiteSpace=wrap;shape=mxgraph.dfd.dataStoreID;align=left;spacingLeft=3;points=[[0,0],[0.5,0],[1,0],[0,0.5],[1,0.5],[0,1],[0.5,1],[1,1]];fontFamily=Sarabun;fontSource=https%3A%2F%2Ffonts.googleapis.com%2Fcss%3Ffamily%3DSarabun;labelBorderColor=none;labelBackgroundColor=none;" parent="YyjMaU0Ngdekt9YktJRk-340" vertex="1">
          <mxGeometry width="122.54545454545455" height="30" as="geometry" />
        </mxCell>
        <mxCell id="YyjMaU0Ngdekt9YktJRk-342" value="Document Form" style="text;html=1;align=left;verticalAlign=middle;resizable=0;points=[];autosize=1;strokeColor=none;fillColor=none;fontFamily=Sarabun;fontSource=https%3A%2F%2Ffonts.googleapis.com%2Fcss%3Ffamily%3DSarabun;labelBorderColor=none;labelBackgroundColor=none;" parent="YyjMaU0Ngdekt9YktJRk-340" vertex="1">
          <mxGeometry x="30.636363636363637" width="110" height="30" as="geometry" />
        </mxCell>
        <mxCell id="YyjMaU0Ngdekt9YktJRk-347" style="edgeStyle=orthogonalEdgeStyle;rounded=0;orthogonalLoop=1;jettySize=auto;html=1;entryX=-0.005;entryY=0.457;entryDx=0;entryDy=0;entryPerimeter=0;labelBorderColor=none;labelBackgroundColor=none;" parent="YyjMaU0Ngdekt9YktJRk-372" source="YyjMaU0Ngdekt9YktJRk-341" target="YyjMaU0Ngdekt9YktJRk-333" edge="1">
          <mxGeometry relative="1" as="geometry">
            <Array as="points">
              <mxPoint x="118.5" y="296" />
            </Array>
          </mxGeometry>
        </mxCell>
        <mxCell id="YyjMaU0Ngdekt9YktJRk-348" value="เอกสารแบบร่าง" style="edgeLabel;html=1;align=center;verticalAlign=middle;resizable=0;points=[];labelBorderColor=none;labelBackgroundColor=none;" parent="YyjMaU0Ngdekt9YktJRk-347" vertex="1" connectable="0">
          <mxGeometry x="-0.0562" y="-1" relative="1" as="geometry">
            <mxPoint x="22" y="-10" as="offset" />
          </mxGeometry>
        </mxCell>
        <mxCell id="YyjMaU0Ngdekt9YktJRk-354" value="" style="group;labelBorderColor=none;labelBackgroundColor=none;" parent="YyjMaU0Ngdekt9YktJRk-372" vertex="1" connectable="0">
          <mxGeometry x="48.5" y="70" width="130" height="30" as="geometry" />
        </mxCell>
        <mxCell id="YyjMaU0Ngdekt9YktJRk-352" value="D2" style="html=1;dashed=0;whiteSpace=wrap;shape=mxgraph.dfd.dataStoreID;align=left;spacingLeft=3;points=[[0,0],[0.5,0],[1,0],[0,0.5],[1,0.5],[0,1],[0.5,1],[1,1]];labelBorderColor=none;labelBackgroundColor=none;" parent="YyjMaU0Ngdekt9YktJRk-354" vertex="1">
          <mxGeometry width="112" height="30" as="geometry" />
        </mxCell>
        <mxCell id="YyjMaU0Ngdekt9YktJRk-353" value="Projects_type" style="text;html=1;align=left;verticalAlign=middle;resizable=0;points=[];autosize=1;strokeColor=none;fillColor=none;labelBorderColor=none;labelBackgroundColor=none;" parent="YyjMaU0Ngdekt9YktJRk-354" vertex="1">
          <mxGeometry x="30" width="100" height="30" as="geometry" />
        </mxCell>
        <mxCell id="YyjMaU0Ngdekt9YktJRk-357" style="edgeStyle=orthogonalEdgeStyle;rounded=0;orthogonalLoop=1;jettySize=auto;html=1;entryX=0.5;entryY=1;entryDx=0;entryDy=0;exitX=0.25;exitY=0;exitDx=0;exitDy=0;labelBorderColor=none;labelBackgroundColor=none;" parent="YyjMaU0Ngdekt9YktJRk-372" source="YyjMaU0Ngdekt9YktJRk-321" target="YyjMaU0Ngdekt9YktJRk-352" edge="1">
          <mxGeometry relative="1" as="geometry">
            <Array as="points">
              <mxPoint x="278.5" y="120" />
              <mxPoint x="104.5" y="120" />
            </Array>
          </mxGeometry>
        </mxCell>
        <mxCell id="YyjMaU0Ngdekt9YktJRk-362" value="ข้อมูลประเภทโครงงาน" style="edgeLabel;html=1;align=center;verticalAlign=middle;resizable=0;points=[];labelBorderColor=none;labelBackgroundColor=none;" parent="YyjMaU0Ngdekt9YktJRk-357" vertex="1" connectable="0">
          <mxGeometry x="-0.1594" y="-2" relative="1" as="geometry">
            <mxPoint x="-23" y="-6" as="offset" />
          </mxGeometry>
        </mxCell>
        <mxCell id="YyjMaU0Ngdekt9YktJRk-358" style="edgeStyle=orthogonalEdgeStyle;rounded=0;orthogonalLoop=1;jettySize=auto;html=1;entryX=0.338;entryY=0.028;entryDx=0;entryDy=0;entryPerimeter=0;labelBorderColor=none;labelBackgroundColor=none;" parent="YyjMaU0Ngdekt9YktJRk-372" source="YyjMaU0Ngdekt9YktJRk-322" target="YyjMaU0Ngdekt9YktJRk-342" edge="1">
          <mxGeometry relative="1" as="geometry" />
        </mxCell>
        <mxCell id="YyjMaU0Ngdekt9YktJRk-361" value="ข้อมูลเอกสารแบบร่าง" style="edgeLabel;html=1;align=center;verticalAlign=middle;resizable=0;points=[];labelBorderColor=none;labelBackgroundColor=none;" parent="YyjMaU0Ngdekt9YktJRk-358" vertex="1" connectable="0">
          <mxGeometry x="-0.2999" y="1" relative="1" as="geometry">
            <mxPoint x="-2" y="-11" as="offset" />
          </mxGeometry>
        </mxCell>
        <mxCell id="YyjMaU0Ngdekt9YktJRk-359" style="edgeStyle=orthogonalEdgeStyle;rounded=0;orthogonalLoop=1;jettySize=auto;html=1;entryX=1;entryY=0.75;entryDx=0;entryDy=0;labelBorderColor=none;labelBackgroundColor=none;" parent="YyjMaU0Ngdekt9YktJRk-372" source="YyjMaU0Ngdekt9YktJRk-333" target="YyjMaU0Ngdekt9YktJRk-323" edge="1">
          <mxGeometry relative="1" as="geometry">
            <Array as="points">
              <mxPoint x="358.5" y="415" />
            </Array>
          </mxGeometry>
        </mxCell>
        <mxCell id="YyjMaU0Ngdekt9YktJRk-360" value="เอกสารแบบร่าง" style="edgeLabel;html=1;align=center;verticalAlign=middle;resizable=0;points=[];labelBorderColor=none;labelBackgroundColor=none;" parent="YyjMaU0Ngdekt9YktJRk-359" vertex="1" connectable="0">
          <mxGeometry x="0.4058" y="2" relative="1" as="geometry">
            <mxPoint y="-9" as="offset" />
          </mxGeometry>
        </mxCell>
        <mxCell id="YyjMaU0Ngdekt9YktJRk-363" value="4.3" style="swimlane;fontStyle=0;childLayout=stackLayout;horizontal=1;startSize=20;fillColor=#ffffff;horizontalStack=0;resizeParent=1;resizeParentMax=0;resizeLast=0;collapsible=0;marginBottom=0;swimlaneFillColor=#ffffff;fontFamily=Sarabun;fontSource=https%3A%2F%2Ffonts.googleapis.com%2Fcss%3Ffamily%3DSarabun;labelBorderColor=none;labelBackgroundColor=none;" parent="YyjMaU0Ngdekt9YktJRk-372" vertex="1">
          <mxGeometry x="438.9751515151515" y="262.13571428571436" width="169.52121212121213" height="50" as="geometry" />
        </mxCell>
        <mxCell id="YyjMaU0Ngdekt9YktJRk-364" value="ประวัติการเพิ่มข้อมูล" style="text;html=1;align=center;verticalAlign=middle;resizable=0;points=[];autosize=1;strokeColor=none;fillColor=none;fontFamily=Sarabun;fontSource=https%3A%2F%2Ffonts.googleapis.com%2Fcss%3Ffamily%3DSarabun;labelBorderColor=none;labelBackgroundColor=none;" parent="YyjMaU0Ngdekt9YktJRk-363" vertex="1">
          <mxGeometry y="20" width="169.52121212121213" height="30" as="geometry" />
        </mxCell>
        <mxCell id="YyjMaU0Ngdekt9YktJRk-368" style="edgeStyle=orthogonalEdgeStyle;rounded=0;orthogonalLoop=1;jettySize=auto;html=1;entryX=0.003;entryY=0.146;entryDx=0;entryDy=0;entryPerimeter=0;exitX=0.999;exitY=0.146;exitDx=0;exitDy=0;exitPerimeter=0;labelBorderColor=none;labelBackgroundColor=none;" parent="YyjMaU0Ngdekt9YktJRk-372" source="YyjMaU0Ngdekt9YktJRk-333" target="YyjMaU0Ngdekt9YktJRk-364" edge="1">
          <mxGeometry relative="1" as="geometry" />
        </mxCell>
        <mxCell id="YyjMaU0Ngdekt9YktJRk-370" style="edgeStyle=orthogonalEdgeStyle;rounded=0;orthogonalLoop=1;jettySize=auto;html=1;labelBorderColor=none;labelBackgroundColor=none;entryX=1;entryY=0.5;entryDx=0;entryDy=0;" parent="YyjMaU0Ngdekt9YktJRk-372" source="YyjMaU0Ngdekt9YktJRk-364" target="YyjMaU0Ngdekt9YktJRk-331" edge="1">
          <mxGeometry relative="1" as="geometry">
            <Array as="points">
              <mxPoint x="751" y="297" />
              <mxPoint x="751" y="115" />
            </Array>
            <mxPoint x="721" y="120" as="targetPoint" />
          </mxGeometry>
        </mxCell>
        <mxCell id="YyjMaU0Ngdekt9YktJRk-371" value="ข้อมูลเอกสารแบบร่าง&amp;nbsp;&lt;div&gt;ประเภทโครงงาน&lt;/div&gt;" style="edgeLabel;html=1;align=center;verticalAlign=middle;resizable=0;points=[];labelBorderColor=none;labelBackgroundColor=none;" parent="YyjMaU0Ngdekt9YktJRk-370" vertex="1" connectable="0">
          <mxGeometry x="0.3083" y="2" relative="1" as="geometry">
            <mxPoint x="-58" y="89" as="offset" />
          </mxGeometry>
        </mxCell>
        <mxCell id="oR3_0PMQ9E6IMNoJmGb4-15" value="" style="group;labelBorderColor=none;labelBackgroundColor=none;" parent="YyjMaU0Ngdekt9YktJRk-372" vertex="1" connectable="0">
          <mxGeometry x="441" y="166.42999999999984" width="130" height="30" as="geometry" />
        </mxCell>
        <mxCell id="oR3_0PMQ9E6IMNoJmGb4-16" value="D8" style="html=1;dashed=0;whiteSpace=wrap;shape=mxgraph.dfd.dataStoreID;align=left;spacingLeft=3;points=[[0,0],[0.5,0],[1,0],[0,0.5],[1,0.5],[0,1],[0.5,1],[1,1]];labelBorderColor=none;labelBackgroundColor=none;" parent="oR3_0PMQ9E6IMNoJmGb4-15" vertex="1">
          <mxGeometry width="112" height="30" as="geometry" />
        </mxCell>
        <mxCell id="oR3_0PMQ9E6IMNoJmGb4-17" value="teacher_info" style="text;html=1;align=left;verticalAlign=middle;resizable=0;points=[];autosize=1;strokeColor=none;fillColor=none;labelBorderColor=none;labelBackgroundColor=none;" parent="oR3_0PMQ9E6IMNoJmGb4-15" vertex="1">
          <mxGeometry x="30" width="90" height="30" as="geometry" />
        </mxCell>
        <mxCell id="oR3_0PMQ9E6IMNoJmGb4-18" style="edgeStyle=orthogonalEdgeStyle;rounded=0;orthogonalLoop=1;jettySize=auto;html=1;entryX=0;entryY=0.5;entryDx=0;entryDy=0;" parent="YyjMaU0Ngdekt9YktJRk-372" source="YyjMaU0Ngdekt9YktJRk-322" target="oR3_0PMQ9E6IMNoJmGb4-16" edge="1">
          <mxGeometry relative="1" as="geometry" />
        </mxCell>
        <mxCell id="3nQMj6U7niMl07bXxISc-2" value="&#xa;&lt;span style=&quot;color: rgb(0, 0, 0); font-family: Sarabun; font-size: 12px; font-style: normal; font-variant-ligatures: normal; font-variant-caps: normal; font-weight: 400; letter-spacing: normal; orphans: 2; text-align: center; text-indent: 0px; text-transform: none; widows: 2; word-spacing: 0px; -webkit-text-stroke-width: 0px; white-space: nowrap; text-decoration-thickness: initial; text-decoration-style: initial; text-decoration-color: initial; float: none; display: inline !important;&quot;&gt;และเอกสารประกอบโครงงาน&lt;/span&gt;&#xa;&#xa;" style="rounded=0;whiteSpace=wrap;html=1;fontFamily=Sarabun;fontSource=https%3A%2F%2Ffonts.googleapis.com%2Fcss%3Ffamily%3DSarabun;fontSize=12;strokeColor=none;labelBorderColor=none;labelBackgroundColor=none;movable=0;resizable=0;rotatable=0;deletable=0;editable=0;locked=1;connectable=0;" parent="1" vertex="1">
          <mxGeometry x="-2458.82" y="-1680" width="802.82" height="400" as="geometry" />
        </mxCell>
        <mxCell id="3nQMj6U7niMl07bXxISc-3" value="0" style="swimlane;fontStyle=0;childLayout=stackLayout;horizontal=1;startSize=20;fillColor=#ffffff;horizontalStack=0;resizeParent=1;resizeParentMax=0;resizeLast=0;collapsible=0;marginBottom=0;swimlaneFillColor=#ffffff;container=0;fontFamily=Sarabun;fontSource=https%3A%2F%2Ffonts.googleapis.com%2Fcss%3Ffamily%3DSarabun;fontSize=12;labelBorderColor=none;labelBackgroundColor=none;" parent="1" vertex="1">
          <mxGeometry x="-2183.5644444444447" y="-1505.7839130434782" width="252.31555555555556" height="90" as="geometry" />
        </mxCell>
        <mxCell id="3nQMj6U7niMl07bXxISc-14" value="&lt;div&gt;&lt;br&gt;&lt;/div&gt;เว็ปแอปพลิเคชั่นบริการจัดการโครงงาน&lt;div&gt;แผนกเทคโนโลยีสารสนเทศวิทยาลัยเทคนิคลำปาง&lt;/div&gt;&lt;div&gt;&lt;br&gt;&lt;/div&gt;" style="text;html=1;align=center;verticalAlign=middle;resizable=0;points=[];autosize=1;strokeColor=none;fillColor=none;container=0;fontFamily=Sarabun;fontSource=https%3A%2F%2Ffonts.googleapis.com%2Fcss%3Ffamily%3DSarabun;fontSize=12;labelBorderColor=none;labelBackgroundColor=none;" parent="3nQMj6U7niMl07bXxISc-3" vertex="1">
          <mxGeometry y="20" width="252.31555555555556" height="70" as="geometry" />
        </mxCell>
        <mxCell id="3nQMj6U7niMl07bXxISc-4" style="edgeStyle=orthogonalEdgeStyle;rounded=0;orthogonalLoop=1;jettySize=auto;html=1;entryX=0.25;entryY=0;entryDx=0;entryDy=0;exitX=1;exitY=0.5;exitDx=0;exitDy=0;fontFamily=Sarabun;fontSource=https%3A%2F%2Ffonts.googleapis.com%2Fcss%3Ffamily%3DSarabun;fontSize=12;labelBorderColor=none;labelBackgroundColor=none;" parent="1" source="3nQMj6U7niMl07bXxISc-5" target="3nQMj6U7niMl07bXxISc-3" edge="1">
          <mxGeometry relative="1" as="geometry" />
        </mxCell>
        <mxCell id="3nQMj6U7niMl07bXxISc-5" value="นักศึกษา" style="html=1;dashed=0;whiteSpace=wrap;container=0;fontFamily=Sarabun;fontSource=https%3A%2F%2Ffonts.googleapis.com%2Fcss%3Ffamily%3DSarabun;fontSize=12;labelBorderColor=none;labelBackgroundColor=none;" parent="1" vertex="1">
          <mxGeometry x="-2451.59" y="-1661.78" width="123.5111111111111" height="54.78260869565218" as="geometry" />
        </mxCell>
        <mxCell id="3nQMj6U7niMl07bXxISc-7" value="อาจารย์" style="html=1;dashed=0;whiteSpace=wrap;container=0;fontFamily=Sarabun;fontSource=https%3A%2F%2Ffonts.googleapis.com%2Fcss%3Ffamily%3DSarabun;fontSize=12;labelBorderColor=none;labelBackgroundColor=none;" parent="1" vertex="1">
          <mxGeometry x="-2112.0044444444443" y="-1342.608695652174" width="88.22222222222223" height="54.78260869565218" as="geometry" />
        </mxCell>
        <mxCell id="3nQMj6U7niMl07bXxISc-8" style="edgeStyle=orthogonalEdgeStyle;rounded=0;orthogonalLoop=1;jettySize=auto;html=1;entryX=0.5;entryY=1;entryDx=0;entryDy=0;fontFamily=Sarabun;fontSource=https%3A%2F%2Ffonts.googleapis.com%2Fcss%3Ffamily%3DSarabun;fontSize=12;exitX=-0.006;exitY=0.118;exitDx=0;exitDy=0;exitPerimeter=0;labelBorderColor=none;labelBackgroundColor=none;" parent="1" source="3nQMj6U7niMl07bXxISc-3" target="3nQMj6U7niMl07bXxISc-5" edge="1">
          <mxGeometry relative="1" as="geometry" />
        </mxCell>
        <mxCell id="3nQMj6U7niMl07bXxISc-9" value="หัวข้อโครงงาน" style="edgeLabel;html=1;align=center;verticalAlign=middle;resizable=0;points=[];container=0;fontStyle=0;fontFamily=Sarabun;fontSource=https%3A%2F%2Ffonts.googleapis.com%2Fcss%3Ffamily%3DSarabun;labelBackgroundColor=none;fontSize=12;labelBorderColor=none;" parent="1" vertex="1" connectable="0">
          <mxGeometry x="-2159.999462322637" y="-1585.2198023715416" as="geometry" />
        </mxCell>
        <mxCell id="3nQMj6U7niMl07bXxISc-10" value="เอกสารโครงงาน" style="edgeLabel;html=1;align=center;verticalAlign=middle;resizable=0;points=[];container=0;fontStyle=0;fontFamily=Sarabun;fontSource=https%3A%2F%2Ffonts.googleapis.com%2Fcss%3Ffamily%3DSarabun;labelBackgroundColor=none;fontSize=12;labelBorderColor=none;" parent="1" vertex="1" connectable="0">
          <mxGeometry x="-2163.998638383838" y="-1569.3430434782608" as="geometry" />
        </mxCell>
        <mxCell id="3nQMj6U7niMl07bXxISc-11" value="ข้อมูลเข้าสู่ระบบ" style="edgeLabel;html=1;align=center;verticalAlign=middle;resizable=0;points=[];container=0;fontStyle=0;fontFamily=Sarabun;fontSource=https%3A%2F%2Ffonts.googleapis.com%2Fcss%3Ffamily%3DSarabun;labelBackgroundColor=none;fontSize=12;labelBorderColor=none;" parent="1" vertex="1" connectable="0">
          <mxGeometry x="-2164.000242424242" y="-1530.9971541501975" as="geometry" />
        </mxCell>
        <mxCell id="3nQMj6U7niMl07bXxISc-12" value="ข้อมูลสมัครสมาชิก" style="edgeLabel;html=1;align=center;verticalAlign=middle;resizable=0;points=[];container=0;fontStyle=0;fontFamily=Sarabun;fontSource=https%3A%2F%2Ffonts.googleapis.com%2Fcss%3Ffamily%3DSarabun;labelBackgroundColor=none;fontSize=12;labelBorderColor=none;" parent="1" vertex="1" connectable="0">
          <mxGeometry x="-2169.9968338066483" y="-1549.998846223975" as="geometry" />
        </mxCell>
        <mxCell id="3nQMj6U7niMl07bXxISc-13" style="edgeStyle=orthogonalEdgeStyle;rounded=0;orthogonalLoop=1;jettySize=auto;html=1;entryX=0;entryY=0.5;entryDx=0;entryDy=0;fontFamily=Sarabun;fontSource=https%3A%2F%2Ffonts.googleapis.com%2Fcss%3Ffamily%3DSarabun;fontSize=12;exitX=-0.003;exitY=0.403;exitDx=0;exitDy=0;exitPerimeter=0;labelBorderColor=none;labelBackgroundColor=none;" parent="1" source="3nQMj6U7niMl07bXxISc-14" target="3nQMj6U7niMl07bXxISc-7" edge="1">
          <mxGeometry relative="1" as="geometry">
            <Array as="points">
              <mxPoint x="-2390" y="-1458" />
              <mxPoint x="-2390" y="-1315" />
            </Array>
          </mxGeometry>
        </mxCell>
        <mxCell id="3nQMj6U7niMl07bXxISc-15" value="&lt;span&gt;ชื่อโครงงาน ,ชื่ออาจารย์,&lt;/span&gt;&lt;div style=&quot;&quot;&gt;&lt;span&gt;ประเภทโครงงาน,ปีการศึกษา&lt;/span&gt;&lt;/div&gt;" style="text;html=1;align=right;verticalAlign=middle;resizable=0;points=[];autosize=1;strokeColor=none;fillColor=none;fontStyle=0;fontFamily=Sarabun;fontSource=https%3A%2F%2Ffonts.googleapis.com%2Fcss%3Ffamily%3DSarabun;labelBackgroundColor=none;fontSize=12;labelBorderColor=none;" parent="1" vertex="1">
          <mxGeometry x="-2284.9966666666664" y="-1632.4378260869564" width="160" height="40" as="geometry" />
        </mxCell>
        <mxCell id="3nQMj6U7niMl07bXxISc-16" value="&lt;span style=&quot;color: rgb(0, 0, 0); font-style: normal; font-variant-ligatures: normal; font-variant-caps: normal; font-weight: 400; letter-spacing: normal; orphans: 2; text-align: center; text-indent: 0px; text-transform: none; widows: 2; word-spacing: 0px; -webkit-text-stroke-width: 0px; white-space: nowrap; text-decoration-thickness: initial; text-decoration-style: initial; text-decoration-color: initial; float: none; display: inline !important;&quot;&gt;ข้อมูลโครงงาน&lt;/span&gt;" style="text;whiteSpace=wrap;html=1;fontFamily=Sarabun;fontSource=https%3A%2F%2Ffonts.googleapis.com%2Fcss%3Ffamily%3DSarabun;fontSize=12;labelBorderColor=none;labelBackgroundColor=none;" parent="1" vertex="1">
          <mxGeometry x="-2387.83" y="-1535.655652173913" width="88.22222222222223" height="31.304347826086957" as="geometry" />
        </mxCell>
        <mxCell id="3nQMj6U7niMl07bXxISc-17" value="&lt;span style=&quot;color: rgb(0, 0, 0); font-style: normal; font-variant-ligatures: normal; font-variant-caps: normal; font-weight: 400; letter-spacing: normal; orphans: 2; text-align: center; text-indent: 0px; text-transform: none; widows: 2; word-spacing: 0px; -webkit-text-stroke-width: 0px; white-space: nowrap; text-decoration-thickness: initial; text-decoration-style: initial; text-decoration-color: initial; float: none; display: inline !important;&quot;&gt;สถานะเอกสาร&lt;/span&gt;" style="text;whiteSpace=wrap;html=1;fontFamily=Sarabun;fontSource=https%3A%2F%2Ffonts.googleapis.com%2Fcss%3Ffamily%3DSarabun;fontSize=12;labelBorderColor=none;labelBackgroundColor=none;" parent="1" vertex="1">
          <mxGeometry x="-2387.83" y="-1553.4747826086957" width="61.75555555555555" height="23.47826086956522" as="geometry" />
        </mxCell>
        <mxCell id="3nQMj6U7niMl07bXxISc-18" value="&lt;span style=&quot;color: rgb(0, 0, 0); font-style: normal; font-variant-ligatures: normal; font-variant-caps: normal; font-weight: 400; letter-spacing: normal; orphans: 2; text-align: center; text-indent: 0px; text-transform: none; widows: 2; word-spacing: 0px; -webkit-text-stroke-width: 0px; white-space: nowrap; text-decoration-thickness: initial; text-decoration-style: initial; text-decoration-color: initial; float: none; display: inline !important;&quot;&gt;ได้รับสิทธิการเข้าใช้งาน&lt;/span&gt;" style="text;whiteSpace=wrap;html=1;fontFamily=Sarabun;fontSource=https%3A%2F%2Ffonts.googleapis.com%2Fcss%3Ffamily%3DSarabun;fontSize=12;labelBorderColor=none;labelBackgroundColor=none;" parent="1" vertex="1">
          <mxGeometry x="-2387.83" y="-1567.6439130434783" width="123.5111111111111" height="31.304347826086957" as="geometry" />
        </mxCell>
        <mxCell id="3nQMj6U7niMl07bXxISc-19" value="จัดการผู้ใช้" style="edgeLabel;html=1;align=center;verticalAlign=middle;resizable=0;points=[];container=0;fontFamily=Sarabun;fontSource=https%3A%2F%2Ffonts.googleapis.com%2Fcss%3Ffamily%3DSarabun;fontSize=12;labelBorderColor=none;labelBackgroundColor=none;" parent="1" vertex="1" connectable="0">
          <mxGeometry x="-1741.0024944928" y="-1366.0041018042023" as="geometry" />
        </mxCell>
        <mxCell id="3nQMj6U7niMl07bXxISc-20" value="ข้อมูลอาจารย์" style="edgeLabel;html=1;align=center;verticalAlign=middle;resizable=0;points=[];container=0;fontFamily=Sarabun;fontSource=https%3A%2F%2Ffonts.googleapis.com%2Fcss%3Ffamily%3DSarabun;fontSize=12;labelBorderColor=none;labelBackgroundColor=none;" parent="1" vertex="1" connectable="0">
          <mxGeometry x="-1748.0030663790308" y="-1385.7878247412084" as="geometry" />
        </mxCell>
        <mxCell id="3nQMj6U7niMl07bXxISc-21" value="ประเภทโครงงาน" style="edgeLabel;html=1;align=center;verticalAlign=middle;resizable=0;points=[];container=0;fontFamily=Sarabun;fontSource=https%3A%2F%2Ffonts.googleapis.com%2Fcss%3Ffamily%3DSarabun;fontSize=12;labelBorderColor=none;labelBackgroundColor=none;" parent="1" vertex="1" connectable="0">
          <mxGeometry x="-1754.0028839650681" y="-1418.7879856484801" as="geometry" />
        </mxCell>
        <mxCell id="3nQMj6U7niMl07bXxISc-22" value="เอกสารโครงงาน" style="edgeLabel;html=1;align=center;verticalAlign=middle;resizable=0;points=[];container=0;fontFamily=Sarabun;fontSource=https%3A%2F%2Ffonts.googleapis.com%2Fcss%3Ffamily%3DSarabun;fontSize=12;labelBorderColor=none;labelBackgroundColor=none;" parent="1" vertex="1" connectable="0">
          <mxGeometry x="-1753.0031841269845" y="-1434.1273913043478" as="geometry" />
        </mxCell>
        <mxCell id="3nQMj6U7niMl07bXxISc-23" value="ตรวจเอกสาร" style="text;html=1;align=center;verticalAlign=middle;resizable=0;points=[];autosize=1;strokeColor=none;fillColor=none;fontFamily=Sarabun;fontSource=https%3A%2F%2Ffonts.googleapis.com%2Fcss%3Ffamily%3DSarabun;fontSize=12;labelBorderColor=none;labelBackgroundColor=none;" parent="1" vertex="1">
          <mxGeometry x="-1791.0033333333333" y="-1416.785652173913" width="90" height="30" as="geometry" />
        </mxCell>
        <mxCell id="3nQMj6U7niMl07bXxISc-24" value="ข้อมูลผู้ใช้" style="edgeLabel;html=1;align=center;verticalAlign=middle;resizable=0;points=[];container=0;fontFamily=Sarabun;fontSource=https%3A%2F%2Ffonts.googleapis.com%2Fcss%3Ffamily%3DSarabun;fontSize=12;labelBorderColor=none;labelBackgroundColor=none;" parent="1" vertex="1" connectable="0">
          <mxGeometry x="-2359.999497584541" y="-1426.9981474480153" as="geometry" />
        </mxCell>
        <mxCell id="3nQMj6U7niMl07bXxISc-25" value="หัวข้อโครงงาน" style="edgeLabel;html=1;align=center;verticalAlign=middle;resizable=0;points=[];container=0;fontFamily=Sarabun;fontSource=https%3A%2F%2Ffonts.googleapis.com%2Fcss%3Ffamily%3DSarabun;fontSize=12;labelBorderColor=none;labelBackgroundColor=none;" parent="1" vertex="1" connectable="0">
          <mxGeometry x="-2348.947734473799" y="-1444.997679993639" as="geometry" />
        </mxCell>
        <mxCell id="3nQMj6U7niMl07bXxISc-26" value="สถานะเอกสาร" style="edgeLabel;html=1;align=center;verticalAlign=middle;resizable=0;points=[];container=0;fontFamily=Sarabun;fontSource=https%3A%2F%2Ffonts.googleapis.com%2Fcss%3Ffamily%3DSarabun;fontSize=12;labelBorderColor=none;labelBackgroundColor=none;" parent="1" vertex="1" connectable="0">
          <mxGeometry x="-2347.9473944423407" y="-1392.607682718556" as="geometry" />
        </mxCell>
        <mxCell id="3nQMj6U7niMl07bXxISc-27" value="สถานะโครงงาน" style="edgeLabel;html=1;align=center;verticalAlign=middle;resizable=0;points=[];container=0;fontFamily=Sarabun;fontSource=https%3A%2F%2Ffonts.googleapis.com%2Fcss%3Ffamily%3DSarabun;fontSize=12;labelBorderColor=none;labelBackgroundColor=none;" parent="1" vertex="1" connectable="0">
          <mxGeometry x="-2344.9495781777373" y="-1408.9981711819673" as="geometry" />
        </mxCell>
        <mxCell id="3nQMj6U7niMl07bXxISc-29" style="edgeStyle=orthogonalEdgeStyle;rounded=0;orthogonalLoop=1;jettySize=auto;html=1;entryX=1.009;entryY=0.341;entryDx=0;entryDy=0;entryPerimeter=0;labelBorderColor=none;labelBackgroundColor=none;" parent="1" source="3nQMj6U7niMl07bXxISc-7" target="3nQMj6U7niMl07bXxISc-14" edge="1">
          <mxGeometry relative="1" as="geometry">
            <Array as="points">
              <mxPoint x="-1710" y="-1462" />
            </Array>
          </mxGeometry>
        </mxCell>
        <mxCell id="3nQMj6U7niMl07bXxISc-30" value="&lt;div&gt;&lt;span style=&quot;font-family: Sarabun; color: light-dark(rgb(0, 0, 0), rgb(255, 255, 255));&quot;&gt;เอกสารประกอบโครงงาน&lt;/span&gt;&lt;/div&gt;" style="text;html=1;align=center;verticalAlign=middle;resizable=0;points=[];autosize=1;strokeColor=none;fillColor=none;labelBorderColor=none;labelBackgroundColor=none;" parent="1" vertex="1">
          <mxGeometry x="-1845" y="-1463.13" width="140" height="30" as="geometry" />
        </mxCell>
        <mxCell id="3nQMj6U7niMl07bXxISc-70" value="" style="group;labelBorderColor=none;labelBackgroundColor=none;" parent="1" vertex="1" connectable="0">
          <mxGeometry x="-1575" y="-2168" width="575" height="326.1300000000001" as="geometry" />
        </mxCell>
        <mxCell id="3nQMj6U7niMl07bXxISc-69" value="" style="rounded=0;whiteSpace=wrap;html=1;labelBorderColor=none;labelBackgroundColor=none;" parent="3nQMj6U7niMl07bXxISc-70" vertex="1">
          <mxGeometry width="570" height="326.13" as="geometry" />
        </mxCell>
        <mxCell id="3nQMj6U7niMl07bXxISc-33" value="&lt;span style=&quot;font-family: Sarabun;&quot;&gt;DFD LV1&amp;nbsp;&lt;/span&gt;&lt;font&gt;สมัครสมาชิคและเข้าสู่ระบบ&lt;/font&gt;" style="text;html=1;align=center;verticalAlign=middle;resizable=0;points=[];autosize=1;strokeColor=none;fillColor=none;labelBorderColor=none;labelBackgroundColor=none;" parent="3nQMj6U7niMl07bXxISc-70" vertex="1">
          <mxGeometry x="155" y="11.132637362637524" width="200" height="30" as="geometry" />
        </mxCell>
        <mxCell id="3nQMj6U7niMl07bXxISc-34" value="1" style="swimlane;fontStyle=0;childLayout=stackLayout;horizontal=1;startSize=20;fillColor=#ffffff;horizontalStack=0;resizeParent=1;resizeParentMax=0;resizeLast=0;collapsible=0;marginBottom=0;swimlaneFillColor=#ffffff;fontFamily=Sarabun;fontSource=https%3A%2F%2Ffonts.googleapis.com%2Fcss%3Ffamily%3DSarabun;labelBorderColor=none;labelBackgroundColor=none;" parent="3nQMj6U7niMl07bXxISc-70" vertex="1">
          <mxGeometry x="174" y="146.12571428571437" width="166" height="50" as="geometry" />
        </mxCell>
        <mxCell id="3nQMj6U7niMl07bXxISc-64" style="edgeStyle=orthogonalEdgeStyle;rounded=0;orthogonalLoop=1;jettySize=auto;html=1;labelBorderColor=none;labelBackgroundColor=none;" parent="3nQMj6U7niMl07bXxISc-34" source="3nQMj6U7niMl07bXxISc-35" edge="1">
          <mxGeometry relative="1" as="geometry">
            <mxPoint x="276" y="60.00428571428574" as="targetPoint" />
          </mxGeometry>
        </mxCell>
        <mxCell id="3nQMj6U7niMl07bXxISc-35" value="ระบบสมัครสมาชิก" style="text;html=1;align=center;verticalAlign=middle;resizable=0;points=[];autosize=1;strokeColor=none;fillColor=none;fontFamily=Sarabun;fontSource=https%3A%2F%2Ffonts.googleapis.com%2Fcss%3Ffamily%3DSarabun;labelBorderColor=none;labelBackgroundColor=none;" parent="3nQMj6U7niMl07bXxISc-34" vertex="1">
          <mxGeometry y="20" width="166" height="30" as="geometry" />
        </mxCell>
        <mxCell id="3nQMj6U7niMl07bXxISc-38" value="นักศึกษา" style="html=1;whiteSpace=wrap;fontFamily=Sarabun;fontSource=https%3A%2F%2Ffonts.googleapis.com%2Fcss%3Ffamily%3DSarabun;labelBorderColor=none;labelBackgroundColor=none;" parent="3nQMj6U7niMl07bXxISc-70" vertex="1">
          <mxGeometry x="10" y="56.352967032966944" width="110" height="39.56043956043956" as="geometry" />
        </mxCell>
        <mxCell id="3nQMj6U7niMl07bXxISc-49" value="2" style="swimlane;fontStyle=0;childLayout=stackLayout;horizontal=1;startSize=20;fillColor=#ffffff;horizontalStack=0;resizeParent=1;resizeParentMax=0;resizeLast=0;collapsible=0;marginBottom=0;swimlaneFillColor=#ffffff;fontFamily=Sarabun;fontSource=https%3A%2F%2Ffonts.googleapis.com%2Fcss%3Ffamily%3DSarabun;labelBorderColor=none;labelBackgroundColor=none;" parent="3nQMj6U7niMl07bXxISc-70" vertex="1">
          <mxGeometry x="174" y="237.12571428571437" width="166" height="50" as="geometry" />
        </mxCell>
        <mxCell id="3nQMj6U7niMl07bXxISc-50" value="เข้าสู่ระบบ" style="text;html=1;align=center;verticalAlign=middle;resizable=0;points=[];autosize=1;strokeColor=none;fillColor=none;fontFamily=Sarabun;fontSource=https%3A%2F%2Ffonts.googleapis.com%2Fcss%3Ffamily%3DSarabun;labelBorderColor=none;labelBackgroundColor=none;" parent="3nQMj6U7niMl07bXxISc-49" vertex="1">
          <mxGeometry y="20" width="166" height="30" as="geometry" />
        </mxCell>
        <mxCell id="3nQMj6U7niMl07bXxISc-51" style="edgeStyle=orthogonalEdgeStyle;rounded=0;orthogonalLoop=1;jettySize=auto;html=1;exitX=0.5;exitY=1;exitDx=0;exitDy=0;labelBorderColor=none;labelBackgroundColor=none;" parent="3nQMj6U7niMl07bXxISc-70" source="3nQMj6U7niMl07bXxISc-38" target="3nQMj6U7niMl07bXxISc-50" edge="1">
          <mxGeometry relative="1" as="geometry">
            <mxPoint x="250" y="146.1300000000001" as="targetPoint" />
            <Array as="points">
              <mxPoint x="60" y="96.13000000000011" />
              <mxPoint x="60" y="266.1300000000001" />
            </Array>
          </mxGeometry>
        </mxCell>
        <mxCell id="3nQMj6U7niMl07bXxISc-52" value="ข้อมูลนักศึกษา" style="text;html=1;align=center;verticalAlign=middle;resizable=0;points=[];autosize=1;strokeColor=none;fillColor=none;labelBorderColor=none;labelBackgroundColor=none;" parent="3nQMj6U7niMl07bXxISc-70" vertex="1">
          <mxGeometry x="74" y="156.12999999999988" width="100" height="30" as="geometry" />
        </mxCell>
        <mxCell id="3nQMj6U7niMl07bXxISc-42" value="" style="group;labelBorderColor=none;labelBackgroundColor=none;" parent="3nQMj6U7niMl07bXxISc-70" vertex="1" connectable="0">
          <mxGeometry x="435" y="206.12524847768805" width="140" height="20.612597332231587" as="geometry" />
        </mxCell>
        <mxCell id="3nQMj6U7niMl07bXxISc-43" value="D9" style="html=1;dashed=0;whiteSpace=wrap;shape=mxgraph.dfd.dataStoreID;align=left;spacingLeft=3;points=[[0,0],[0.5,0],[1,0],[0,0.5],[1,0.5],[0,1],[0.5,1],[1,1]];labelBorderColor=none;labelBackgroundColor=none;" parent="3nQMj6U7niMl07bXxISc-42" vertex="1">
          <mxGeometry width="120" height="16.308868218908504" as="geometry" />
        </mxCell>
        <mxCell id="3nQMj6U7niMl07bXxISc-44" value="&lt;font data-font-src=&quot;https://fonts.googleapis.com/css?family=Sarabun&quot; face=&quot;Sarabun&quot;&gt;Users&lt;/font&gt;" style="text;html=1;align=left;verticalAlign=middle;resizable=0;points=[];autosize=1;strokeColor=none;fillColor=none;labelBorderColor=none;labelBackgroundColor=none;" parent="3nQMj6U7niMl07bXxISc-42" vertex="1">
          <mxGeometry x="30" y="-6.840580988329414" width="50" height="30" as="geometry" />
        </mxCell>
        <mxCell id="3nQMj6U7niMl07bXxISc-54" value="จัดเก็บข้อมูล" style="text;html=1;align=center;verticalAlign=middle;resizable=0;points=[];autosize=1;strokeColor=none;fillColor=none;labelBorderColor=none;labelBackgroundColor=none;" parent="3nQMj6U7niMl07bXxISc-70" vertex="1">
          <mxGeometry x="350" y="156.1235317216549" width="90" height="30" as="geometry" />
        </mxCell>
        <mxCell id="3nQMj6U7niMl07bXxISc-57" style="edgeStyle=orthogonalEdgeStyle;rounded=0;orthogonalLoop=1;jettySize=auto;html=1;entryX=1;entryY=0.5;entryDx=0;entryDy=0;labelBorderColor=none;labelBackgroundColor=none;" parent="3nQMj6U7niMl07bXxISc-70" target="3nQMj6U7niMl07bXxISc-38" edge="1">
          <mxGeometry relative="1" as="geometry">
            <mxPoint x="257" y="146.1300000000001" as="sourcePoint" />
            <Array as="points">
              <mxPoint x="257" y="76.13000000000011" />
            </Array>
          </mxGeometry>
        </mxCell>
        <mxCell id="3nQMj6U7niMl07bXxISc-58" value="รายงานการ&lt;span style=&quot;color: light-dark(rgb(0, 0, 0), rgb(255, 255, 255));&quot;&gt;เป็นสมาชิก&lt;/span&gt;" style="text;html=1;align=center;verticalAlign=middle;resizable=0;points=[];autosize=1;strokeColor=none;fillColor=none;labelBorderColor=none;labelBackgroundColor=none;" parent="3nQMj6U7niMl07bXxISc-70" vertex="1">
          <mxGeometry x="130" y="50.000000000000114" width="130" height="30" as="geometry" />
        </mxCell>
        <mxCell id="3nQMj6U7niMl07bXxISc-61" style="edgeStyle=orthogonalEdgeStyle;rounded=0;orthogonalLoop=1;jettySize=auto;html=1;entryX=-0.002;entryY=0.458;entryDx=0;entryDy=0;entryPerimeter=0;exitX=0.615;exitY=0.994;exitDx=0;exitDy=0;exitPerimeter=0;labelBorderColor=none;labelBackgroundColor=none;" parent="3nQMj6U7niMl07bXxISc-70" source="3nQMj6U7niMl07bXxISc-38" target="3nQMj6U7niMl07bXxISc-35" edge="1">
          <mxGeometry relative="1" as="geometry">
            <Array as="points">
              <mxPoint x="78" y="180.1300000000001" />
            </Array>
          </mxGeometry>
        </mxCell>
        <mxCell id="3nQMj6U7niMl07bXxISc-62" value="อีเมล์/รหัสผ่าน" style="text;html=1;align=center;verticalAlign=middle;resizable=0;points=[];autosize=1;strokeColor=none;fillColor=none;labelBorderColor=none;labelBackgroundColor=none;" parent="3nQMj6U7niMl07bXxISc-70" vertex="1">
          <mxGeometry x="70" y="237.1300000000001" width="90" height="30" as="geometry" />
        </mxCell>
        <mxCell id="3nQMj6U7niMl07bXxISc-65" style="edgeStyle=orthogonalEdgeStyle;rounded=0;orthogonalLoop=1;jettySize=auto;html=1;entryX=0.994;entryY=0.45;entryDx=0;entryDy=0;entryPerimeter=0;labelBorderColor=none;labelBackgroundColor=none;" parent="3nQMj6U7niMl07bXxISc-70" source="3nQMj6U7niMl07bXxISc-43" target="3nQMj6U7niMl07bXxISc-50" edge="1">
          <mxGeometry relative="1" as="geometry">
            <Array as="points">
              <mxPoint x="450" y="270.1300000000001" />
            </Array>
          </mxGeometry>
        </mxCell>
        <mxCell id="3nQMj6U7niMl07bXxISc-66" value="ตรวจสอบข้อมูล" style="text;html=1;align=center;verticalAlign=middle;resizable=0;points=[];autosize=1;strokeColor=none;fillColor=none;labelBorderColor=none;labelBackgroundColor=none;" parent="3nQMj6U7niMl07bXxISc-70" vertex="1">
          <mxGeometry x="345" y="247.1300000000001" width="100" height="30" as="geometry" />
        </mxCell>
        <mxCell id="3nQMj6U7niMl07bXxISc-67" style="edgeStyle=orthogonalEdgeStyle;rounded=0;orthogonalLoop=1;jettySize=auto;html=1;entryX=0.25;entryY=1;entryDx=0;entryDy=0;labelBorderColor=none;labelBackgroundColor=none;" parent="3nQMj6U7niMl07bXxISc-70" source="3nQMj6U7niMl07bXxISc-50" target="3nQMj6U7niMl07bXxISc-38" edge="1">
          <mxGeometry relative="1" as="geometry">
            <Array as="points">
              <mxPoint x="257" y="316.1300000000001" />
              <mxPoint x="38" y="316.1300000000001" />
            </Array>
          </mxGeometry>
        </mxCell>
        <mxCell id="3nQMj6U7niMl07bXxISc-68" value="ยืนยันการเข้าสู่ระบบ" style="text;html=1;align=center;verticalAlign=middle;resizable=0;points=[];autosize=1;strokeColor=none;fillColor=none;labelBorderColor=none;labelBackgroundColor=none;" parent="3nQMj6U7niMl07bXxISc-70" vertex="1">
          <mxGeometry x="54" y="287.1300000000001" width="120" height="30" as="geometry" />
        </mxCell>
        <mxCell id="YyjMaU0Ngdekt9YktJRk-182" value="" style="html=1;whiteSpace=wrap;align=center;movable=1;resizable=1;rotatable=1;deletable=1;editable=1;locked=0;connectable=1;labelBorderColor=none;labelBackgroundColor=none;" parent="1" vertex="1">
          <mxGeometry x="1675" y="-1908" width="720" height="470" as="geometry" />
        </mxCell>
        <mxCell id="YyjMaU0Ngdekt9YktJRk-183" value="&lt;span style=&quot;font-family: Sarabun;&quot;&gt;DFD LV2 &lt;/span&gt;ตรวจสอบเอกสาร" style="text;html=1;align=center;verticalAlign=middle;resizable=0;points=[];autosize=1;strokeColor=none;fillColor=none;labelBorderColor=none;labelBackgroundColor=none;" parent="1" vertex="1">
          <mxGeometry x="1920" y="-1886.6373626373625" width="150" height="30" as="geometry" />
        </mxCell>
        <mxCell id="3nQMj6U7niMl07bXxISc-79" style="edgeStyle=orthogonalEdgeStyle;rounded=0;orthogonalLoop=1;jettySize=auto;html=1;labelBorderColor=none;labelBackgroundColor=none;" parent="1" source="YyjMaU0Ngdekt9YktJRk-184" target="YyjMaU0Ngdekt9YktJRk-279" edge="1">
          <mxGeometry relative="1" as="geometry" />
        </mxCell>
        <mxCell id="YyjMaU0Ngdekt9YktJRk-184" value="3.1" style="swimlane;fontStyle=0;childLayout=stackLayout;horizontal=1;startSize=20;fillColor=#ffffff;horizontalStack=0;resizeParent=1;resizeParentMax=0;resizeLast=0;collapsible=0;marginBottom=0;swimlaneFillColor=#ffffff;fontFamily=Sarabun;fontSource=https%3A%2F%2Ffonts.googleapis.com%2Fcss%3Ffamily%3DSarabun;labelBorderColor=none;labelBackgroundColor=none;" parent="1" vertex="1">
          <mxGeometry x="1904" y="-1827.3442857142854" width="166" height="50" as="geometry" />
        </mxCell>
        <mxCell id="YyjMaU0Ngdekt9YktJRk-185" value="ตรวจสอบเอกสาร" style="text;html=1;align=center;verticalAlign=middle;resizable=0;points=[];autosize=1;strokeColor=none;fillColor=none;fontFamily=Sarabun;fontSource=https%3A%2F%2Ffonts.googleapis.com%2Fcss%3Ffamily%3DSarabun;labelBorderColor=none;labelBackgroundColor=none;" parent="YyjMaU0Ngdekt9YktJRk-184" vertex="1">
          <mxGeometry y="20" width="166" height="30" as="geometry" />
        </mxCell>
        <mxCell id="YyjMaU0Ngdekt9YktJRk-188" value="นักศึกษา" style="html=1;whiteSpace=wrap;fontFamily=Sarabun;fontSource=https%3A%2F%2Ffonts.googleapis.com%2Fcss%3Ffamily%3DSarabun;labelBorderColor=none;labelBackgroundColor=none;" parent="1" vertex="1">
          <mxGeometry x="2265" y="-1502.9970329670327" width="110" height="39.56043956043956" as="geometry" />
        </mxCell>
        <mxCell id="YyjMaU0Ngdekt9YktJRk-189" value="" style="group;labelBorderColor=none;labelBackgroundColor=none;" parent="1" vertex="1" connectable="0">
          <mxGeometry x="2185" y="-1814.212857142857" width="150" height="23.736263736263734" as="geometry" />
        </mxCell>
        <mxCell id="YyjMaU0Ngdekt9YktJRk-190" value="D3" style="html=1;dashed=0;whiteSpace=wrap;shape=mxgraph.dfd.dataStoreID;align=left;spacingLeft=3;points=[[0,0],[0.5,0],[1,0],[0,0.5],[1,0.5],[0,1],[0.5,1],[1,1]];fontFamily=Sarabun;fontSource=https%3A%2F%2Ffonts.googleapis.com%2Fcss%3Ffamily%3DSarabun;labelBorderColor=none;labelBackgroundColor=none;" parent="YyjMaU0Ngdekt9YktJRk-189" vertex="1">
          <mxGeometry width="140" height="23.736263736263734" as="geometry" />
        </mxCell>
        <mxCell id="YyjMaU0Ngdekt9YktJRk-191" value="Projects Document" style="text;html=1;align=left;verticalAlign=middle;resizable=0;points=[];autosize=1;strokeColor=none;fillColor=none;fontFamily=Sarabun;fontSource=https%3A%2F%2Ffonts.googleapis.com%2Fcss%3Ffamily%3DSarabun;labelBorderColor=none;labelBackgroundColor=none;" parent="YyjMaU0Ngdekt9YktJRk-189" vertex="1">
          <mxGeometry x="30" y="-3.13" width="120" height="30" as="geometry" />
        </mxCell>
        <mxCell id="YyjMaU0Ngdekt9YktJRk-197" style="edgeStyle=orthogonalEdgeStyle;rounded=0;orthogonalLoop=1;jettySize=auto;html=1;startArrow=none;startFill=0;endArrow=classic;endFill=1;labelBorderColor=none;labelBackgroundColor=none;" parent="1" source="YyjMaU0Ngdekt9YktJRk-190" edge="1">
          <mxGeometry relative="1" as="geometry">
            <mxPoint x="2070" y="-1803" as="targetPoint" />
            <Array as="points">
              <mxPoint x="2128" y="-1802" />
              <mxPoint x="2085" y="-1803" />
              <mxPoint x="2070" y="-1803" />
            </Array>
          </mxGeometry>
        </mxCell>
        <mxCell id="YyjMaU0Ngdekt9YktJRk-198" value="ข้อมูลเอกสาร" style="edgeLabel;html=1;align=center;verticalAlign=middle;resizable=0;points=[];labelBorderColor=none;labelBackgroundColor=none;" parent="YyjMaU0Ngdekt9YktJRk-197" vertex="1" connectable="0">
          <mxGeometry x="-0.2619" relative="1" as="geometry">
            <mxPoint x="-10" y="-8" as="offset" />
          </mxGeometry>
        </mxCell>
        <mxCell id="YyjMaU0Ngdekt9YktJRk-313" style="edgeStyle=orthogonalEdgeStyle;rounded=0;orthogonalLoop=1;jettySize=auto;html=1;exitX=0.671;exitY=0.984;exitDx=0;exitDy=0;exitPerimeter=0;entryX=-0.003;entryY=0.261;entryDx=0;entryDy=0;entryPerimeter=0;labelBorderColor=none;labelBackgroundColor=none;" parent="1" source="YyjMaU0Ngdekt9YktJRk-279" target="YyjMaU0Ngdekt9YktJRk-296" edge="1">
          <mxGeometry relative="1" as="geometry">
            <Array as="points" />
            <mxPoint x="1759.1799999999998" y="-1771.6999999999998" as="sourcePoint" />
            <mxPoint x="1901.996" y="-1643.0042857142857" as="targetPoint" />
          </mxGeometry>
        </mxCell>
        <mxCell id="YyjMaU0Ngdekt9YktJRk-314" value="ตรวจสอบและอนุมัติ" style="edgeLabel;html=1;align=center;verticalAlign=middle;resizable=0;points=[];labelBorderColor=none;labelBackgroundColor=none;" parent="YyjMaU0Ngdekt9YktJRk-313" vertex="1" connectable="0">
          <mxGeometry x="0.3826" y="-2" relative="1" as="geometry">
            <mxPoint x="-6" y="-11" as="offset" />
          </mxGeometry>
        </mxCell>
        <mxCell id="YyjMaU0Ngdekt9YktJRk-279" value="อาจารย์" style="html=1;whiteSpace=wrap;fontFamily=Sarabun;fontSource=https%3A%2F%2Ffonts.googleapis.com%2Fcss%3Ffamily%3DSarabun;labelBorderColor=none;labelBackgroundColor=none;" parent="1" vertex="1">
          <mxGeometry x="1685" y="-1827.3399999999997" width="110" height="50" as="geometry" />
        </mxCell>
        <mxCell id="YyjMaU0Ngdekt9YktJRk-295" value="3.2" style="swimlane;fontStyle=0;childLayout=stackLayout;horizontal=1;startSize=20;fillColor=#ffffff;horizontalStack=0;resizeParent=1;resizeParentMax=0;resizeLast=0;collapsible=0;marginBottom=0;swimlaneFillColor=#ffffff;fontFamily=Sarabun;fontSource=https%3A%2F%2Ffonts.googleapis.com%2Fcss%3Ffamily%3DSarabun;labelBorderColor=none;labelBackgroundColor=none;" parent="1" vertex="1">
          <mxGeometry x="1902" y="-1721.9142857142856" width="166" height="50" as="geometry" />
        </mxCell>
        <mxCell id="YyjMaU0Ngdekt9YktJRk-296" value="อนุมัติเอกสาร" style="text;html=1;align=center;verticalAlign=middle;resizable=0;points=[];autosize=1;strokeColor=none;fillColor=none;fontFamily=Sarabun;fontSource=https%3A%2F%2Ffonts.googleapis.com%2Fcss%3Ffamily%3DSarabun;labelBorderColor=none;labelBackgroundColor=none;" parent="YyjMaU0Ngdekt9YktJRk-295" vertex="1">
          <mxGeometry y="20" width="166" height="30" as="geometry" />
        </mxCell>
        <mxCell id="3nQMj6U7niMl07bXxISc-71" value="3.3" style="swimlane;fontStyle=0;childLayout=stackLayout;horizontal=1;startSize=20;fillColor=#ffffff;horizontalStack=0;resizeParent=1;resizeParentMax=0;resizeLast=0;collapsible=0;marginBottom=0;swimlaneFillColor=#ffffff;fontFamily=Sarabun;fontSource=https%3A%2F%2Ffonts.googleapis.com%2Fcss%3Ffamily%3DSarabun;labelBorderColor=none;labelBackgroundColor=none;" parent="1" vertex="1">
          <mxGeometry x="1902" y="-1625.6042857142852" width="166" height="50" as="geometry" />
        </mxCell>
        <mxCell id="3nQMj6U7niMl07bXxISc-72" value="ไม่อนุมัติเอกสาร" style="text;html=1;align=center;verticalAlign=middle;resizable=0;points=[];autosize=1;strokeColor=none;fillColor=none;fontFamily=Sarabun;fontSource=https%3A%2F%2Ffonts.googleapis.com%2Fcss%3Ffamily%3DSarabun;labelBorderColor=none;labelBackgroundColor=none;" parent="3nQMj6U7niMl07bXxISc-71" vertex="1">
          <mxGeometry y="20" width="166" height="30" as="geometry" />
        </mxCell>
        <mxCell id="3nQMj6U7niMl07bXxISc-73" value="ได้รับการอนุมัติ" style="edgeLabel;html=1;align=center;verticalAlign=middle;resizable=0;points=[];labelBorderColor=none;labelBackgroundColor=none;" parent="1" vertex="1" connectable="0">
          <mxGeometry x="2145" y="-1703.0003726708073" as="geometry" />
        </mxCell>
        <mxCell id="3nQMj6U7niMl07bXxISc-74" style="edgeStyle=orthogonalEdgeStyle;rounded=0;orthogonalLoop=1;jettySize=auto;html=1;entryX=0.75;entryY=0;entryDx=0;entryDy=0;exitX=1.006;exitY=0.264;exitDx=0;exitDy=0;exitPerimeter=0;labelBorderColor=none;labelBackgroundColor=none;" parent="1" source="YyjMaU0Ngdekt9YktJRk-296" target="YyjMaU0Ngdekt9YktJRk-188" edge="1">
          <mxGeometry relative="1" as="geometry" />
        </mxCell>
        <mxCell id="3nQMj6U7niMl07bXxISc-75" style="edgeStyle=orthogonalEdgeStyle;rounded=0;orthogonalLoop=1;jettySize=auto;html=1;entryX=-0.004;entryY=0.458;entryDx=0;entryDy=0;entryPerimeter=0;labelBorderColor=none;labelBackgroundColor=none;" parent="1" target="3nQMj6U7niMl07bXxISc-72" edge="1">
          <mxGeometry relative="1" as="geometry">
            <mxPoint x="1725" y="-1773" as="sourcePoint" />
            <Array as="points">
              <mxPoint x="1735" y="-1591" />
              <mxPoint x="1901" y="-1591" />
            </Array>
          </mxGeometry>
        </mxCell>
        <mxCell id="3nQMj6U7niMl07bXxISc-76" value="ระบุเหตุผล หรือ ส่งเอกสารกลับคืน" style="edgeLabel;html=1;align=center;verticalAlign=middle;resizable=0;points=[];labelBorderColor=none;labelBackgroundColor=none;" parent="1" vertex="1" connectable="0">
          <mxGeometry x="1808.99999840891" y="-1601" as="geometry" />
        </mxCell>
        <mxCell id="3nQMj6U7niMl07bXxISc-77" style="edgeStyle=orthogonalEdgeStyle;rounded=0;orthogonalLoop=1;jettySize=auto;html=1;entryX=0.5;entryY=0;entryDx=0;entryDy=0;labelBorderColor=none;labelBackgroundColor=none;" parent="1" source="YyjMaU0Ngdekt9YktJRk-296" target="3nQMj6U7niMl07bXxISc-71" edge="1">
          <mxGeometry relative="1" as="geometry" />
        </mxCell>
        <mxCell id="3nQMj6U7niMl07bXxISc-78" value="รายละเอียดโครงงาน" style="edgeLabel;html=1;align=center;verticalAlign=middle;resizable=0;points=[];labelBorderColor=none;labelBackgroundColor=none;" parent="1" vertex="1" connectable="0">
          <mxGeometry x="1855.002124708834" y="-1810.001938107434" as="geometry" />
        </mxCell>
        <mxCell id="3nQMj6U7niMl07bXxISc-80" style="edgeStyle=orthogonalEdgeStyle;rounded=0;orthogonalLoop=1;jettySize=auto;html=1;entryX=0.25;entryY=0;entryDx=0;entryDy=0;labelBorderColor=none;labelBackgroundColor=none;" parent="1" source="3nQMj6U7niMl07bXxISc-72" target="YyjMaU0Ngdekt9YktJRk-188" edge="1">
          <mxGeometry relative="1" as="geometry">
            <mxPoint x="2223" y="-1503" as="targetPoint" />
          </mxGeometry>
        </mxCell>
        <mxCell id="3nQMj6U7niMl07bXxISc-81" value="ไม่ได้รับการอนุมัติ และ ได้เหตุผลหรือเอกสาร" style="edgeLabel;html=1;align=center;verticalAlign=middle;resizable=0;points=[];labelBorderColor=none;labelBackgroundColor=none;" parent="3nQMj6U7niMl07bXxISc-80" vertex="1" connectable="0">
          <mxGeometry x="-0.5371" y="2" relative="1" as="geometry">
            <mxPoint x="35" y="-8" as="offset" />
          </mxGeometry>
        </mxCell>
        <mxCell id="oR3_0PMQ9E6IMNoJmGb4-2" style="edgeStyle=orthogonalEdgeStyle;rounded=0;orthogonalLoop=1;jettySize=auto;html=1;entryX=0.75;entryY=0;entryDx=0;entryDy=0;labelBorderColor=none;labelBackgroundColor=none;" parent="1" source="oR3_0PMQ9E6IMNoJmGb4-1" target="3nQMj6U7niMl07bXxISc-3" edge="1">
          <mxGeometry relative="1" as="geometry" />
        </mxCell>
        <mxCell id="oR3_0PMQ9E6IMNoJmGb4-1" value="บุคคลทั่วไป" style="html=1;dashed=0;whiteSpace=wrap;container=0;fontFamily=Sarabun;fontSource=https%3A%2F%2Ffonts.googleapis.com%2Fcss%3Ffamily%3DSarabun;fontSize=12;labelBorderColor=none;labelBackgroundColor=none;" parent="1" vertex="1">
          <mxGeometry x="-1788.33" y="-1661.78" width="123.5111111111111" height="54.78260869565218" as="geometry" />
        </mxCell>
        <mxCell id="oR3_0PMQ9E6IMNoJmGb4-3" value="&lt;span style=&quot;line-height: 140%;&quot;&gt;ชื่อโครงงาน&amp;nbsp;&lt;/span&gt;&lt;div style=&quot;line-height: 140%;&quot;&gt;&lt;span&gt;ชื่ออาจารย์&lt;/span&gt;&lt;div&gt;&lt;span&gt;ประเภทโครงงาน&lt;/span&gt;&lt;/div&gt;&lt;div&gt;&lt;span&gt;ปีการศึกษา&lt;/span&gt;&lt;/div&gt;&lt;/div&gt;" style="text;html=1;align=left;verticalAlign=middle;resizable=0;points=[];autosize=1;strokeColor=none;fillColor=none;fontStyle=0;fontFamily=Sarabun;fontSource=https%3A%2F%2Ffonts.googleapis.com%2Fcss%3Ffamily%3DSarabun;labelBackgroundColor=none;fontSize=12;labelBorderColor=none;" parent="1" vertex="1">
          <mxGeometry x="-1990.9966666666664" y="-1634.4378260869566" width="100" height="80" as="geometry" />
        </mxCell>
        <mxCell id="oR3_0PMQ9E6IMNoJmGb4-4" style="edgeStyle=orthogonalEdgeStyle;rounded=0;orthogonalLoop=1;jettySize=auto;html=1;entryX=0.5;entryY=1;entryDx=0;entryDy=0;exitX=0.999;exitY=0.126;exitDx=0;exitDy=0;exitPerimeter=0;labelBorderColor=none;labelBackgroundColor=none;" parent="1" source="3nQMj6U7niMl07bXxISc-3" target="oR3_0PMQ9E6IMNoJmGb4-1" edge="1">
          <mxGeometry relative="1" as="geometry" />
        </mxCell>
        <mxCell id="oR3_0PMQ9E6IMNoJmGb4-5" value="&lt;span style=&quot;color: rgb(0, 0, 0); font-style: normal; font-variant-ligatures: normal; font-variant-caps: normal; font-weight: 400; letter-spacing: normal; orphans: 2; text-align: center; text-indent: 0px; text-transform: none; widows: 2; word-spacing: 0px; -webkit-text-stroke-width: 0px; white-space: nowrap; text-decoration-thickness: initial; text-decoration-style: initial; text-decoration-color: initial; float: none; display: inline !important;&quot;&gt;ข้อมูลโครงงาน&lt;/span&gt;" style="text;whiteSpace=wrap;html=1;fontFamily=Sarabun;fontSource=https%3A%2F%2Ffonts.googleapis.com%2Fcss%3Ffamily%3DSarabun;fontSize=12;labelBorderColor=none;labelBackgroundColor=none;" parent="1" vertex="1">
          <mxGeometry x="-1802.11" y="-1520.215652173913" width="88.22222222222223" height="31.304347826086957" as="geometry" />
        </mxCell>
        <mxCell id="oR3_0PMQ9E6IMNoJmGb4-6" value="&lt;span style=&quot;color: rgb(0, 0, 0); font-style: normal; font-variant-ligatures: normal; font-variant-caps: normal; font-weight: 400; letter-spacing: normal; orphans: 2; text-align: center; text-indent: 0px; text-transform: none; widows: 2; word-spacing: 0px; -webkit-text-stroke-width: 0px; white-space: nowrap; text-decoration-thickness: initial; text-decoration-style: initial; text-decoration-color: initial; float: none; display: inline !important;&quot;&gt;ข้อมูลอาจารย์&lt;/span&gt;" style="text;whiteSpace=wrap;html=1;fontFamily=Sarabun;fontSource=https%3A%2F%2Ffonts.googleapis.com%2Fcss%3Ffamily%3DSarabun;fontSize=12;labelBorderColor=none;labelBackgroundColor=none;" parent="1" vertex="1">
          <mxGeometry x="-1802.11" y="-1537.0856521739129" width="88.22222222222223" height="31.304347826086957" as="geometry" />
        </mxCell>
        <mxCell id="oR3_0PMQ9E6IMNoJmGb4-7" value="&lt;span style=&quot;color: rgb(0, 0, 0); font-style: normal; font-variant-ligatures: normal; font-variant-caps: normal; font-weight: 400; letter-spacing: normal; orphans: 2; text-align: center; text-indent: 0px; text-transform: none; widows: 2; word-spacing: 0px; -webkit-text-stroke-width: 0px; white-space: nowrap; text-decoration-thickness: initial; text-decoration-style: initial; text-decoration-color: initial; float: none; display: inline !important;&quot;&gt;ข้อมูลอาจารย์&lt;/span&gt;" style="text;whiteSpace=wrap;html=1;fontFamily=Sarabun;fontSource=https%3A%2F%2Ffonts.googleapis.com%2Fcss%3Ffamily%3DSarabun;fontSize=12;labelBorderColor=none;labelBackgroundColor=none;" parent="1" vertex="1">
          <mxGeometry x="-2386.83" y="-1520.215652173913" width="88.22222222222223" height="31.304347826086957" as="geometry" />
        </mxCell>
        <mxCell id="ZaGhDLhcAFXalhAohprH-99" value="" style="html=1;whiteSpace=wrap;align=center;movable=1;resizable=1;rotatable=1;deletable=1;editable=1;locked=0;connectable=1;" parent="1" vertex="1">
          <mxGeometry x="-800" y="-2258" width="730" height="1010" as="geometry" />
        </mxCell>
        <mxCell id="ZaGhDLhcAFXalhAohprH-109" style="edgeStyle=orthogonalEdgeStyle;rounded=0;orthogonalLoop=1;jettySize=auto;html=1;entryX=0;entryY=0.5;entryDx=0;entryDy=0;labelBorderColor=none;labelBackgroundColor=none;" parent="1" target="ZaGhDLhcAFXalhAohprH-89" edge="1">
          <mxGeometry relative="1" as="geometry">
            <mxPoint x="-501.5" y="-2043" as="sourcePoint" />
            <Array as="points">
              <mxPoint x="-501.5" y="-2158" />
            </Array>
          </mxGeometry>
        </mxCell>
        <mxCell id="ZaGhDLhcAFXalhAohprH-116" value="ข้อมูลสมาชิกโครงงาน" style="edgeLabel;html=1;align=center;verticalAlign=middle;resizable=0;points=[];labelBorderColor=none;labelBackgroundColor=none;" parent="ZaGhDLhcAFXalhAohprH-109" vertex="1" connectable="0">
          <mxGeometry x="0.398" y="-1" relative="1" as="geometry">
            <mxPoint x="11" y="-9" as="offset" />
          </mxGeometry>
        </mxCell>
        <mxCell id="ZaGhDLhcAFXalhAohprH-110" style="edgeStyle=orthogonalEdgeStyle;rounded=0;orthogonalLoop=1;jettySize=auto;html=1;entryX=0;entryY=0.5;entryDx=0;entryDy=0;labelBorderColor=none;labelBackgroundColor=none;" parent="1" source="ZaGhDLhcAFXalhAohprH-4" target="ZaGhDLhcAFXalhAohprH-12" edge="1">
          <mxGeometry relative="1" as="geometry">
            <Array as="points">
              <mxPoint x="-481.5" y="-2118" />
            </Array>
          </mxGeometry>
        </mxCell>
        <mxCell id="ZaGhDLhcAFXalhAohprH-118" value="ข้อมูลคำร้องเปิดโครงงาน" style="edgeLabel;html=1;align=center;verticalAlign=middle;resizable=0;points=[];labelBorderColor=none;labelBackgroundColor=none;" parent="ZaGhDLhcAFXalhAohprH-110" vertex="1" connectable="0">
          <mxGeometry x="0.4307" relative="1" as="geometry">
            <mxPoint x="-12" y="-8" as="offset" />
          </mxGeometry>
        </mxCell>
        <mxCell id="ZaGhDLhcAFXalhAohprH-4" value="1" style="swimlane;fontStyle=0;childLayout=stackLayout;horizontal=1;startSize=20;fillColor=#ffffff;horizontalStack=0;resizeParent=1;resizeParentMax=0;resizeLast=0;collapsible=0;marginBottom=0;swimlaneFillColor=#ffffff;fontFamily=Sarabun;fontSource=https%3A%2F%2Ffonts.googleapis.com%2Fcss%3Ffamily%3DSarabun;labelBorderColor=none;labelBackgroundColor=none;" parent="1" vertex="1">
          <mxGeometry x="-576" y="-2043" width="145" height="50" as="geometry" />
        </mxCell>
        <mxCell id="oR3_0PMQ9E6IMNoJmGb4-32" style="edgeStyle=orthogonalEdgeStyle;rounded=0;orthogonalLoop=1;jettySize=auto;html=1;" parent="ZaGhDLhcAFXalhAohprH-4" source="ZaGhDLhcAFXalhAohprH-5" edge="1">
          <mxGeometry relative="1" as="geometry">
            <mxPoint x="-89" y="35" as="targetPoint" />
          </mxGeometry>
        </mxCell>
        <mxCell id="ZaGhDLhcAFXalhAohprH-5" value="&lt;font&gt;การยื่นคำร้องขอเปิดโครงงาน&lt;/font&gt;" style="text;html=1;align=center;verticalAlign=middle;resizable=0;points=[];autosize=1;strokeColor=none;fillColor=none;fontFamily=Sarabun;fontSource=https%3A%2F%2Ffonts.googleapis.com%2Fcss%3Ffamily%3DSarabun;labelBorderColor=none;labelBackgroundColor=none;" parent="ZaGhDLhcAFXalhAohprH-4" vertex="1">
          <mxGeometry y="20" width="145" height="30" as="geometry" />
        </mxCell>
        <mxCell id="ZaGhDLhcAFXalhAohprH-6" value="3" style="swimlane;fontStyle=0;childLayout=stackLayout;horizontal=1;startSize=20;fillColor=#ffffff;horizontalStack=0;resizeParent=1;resizeParentMax=0;resizeLast=0;collapsible=0;marginBottom=0;swimlaneFillColor=#ffffff;fontFamily=Sarabun;fontSource=https%3A%2F%2Ffonts.googleapis.com%2Fcss%3Ffamily%3DSarabun;labelBorderColor=none;labelBackgroundColor=none;" parent="1" vertex="1">
          <mxGeometry x="-553.5" y="-1803" width="108" height="50" as="geometry" />
        </mxCell>
        <mxCell id="ZaGhDLhcAFXalhAohprH-7" value="ตรวจสอบเอกสาร" style="text;html=1;align=center;verticalAlign=middle;resizable=0;points=[];autosize=1;strokeColor=none;fillColor=none;fontFamily=Sarabun;fontSource=https%3A%2F%2Ffonts.googleapis.com%2Fcss%3Ffamily%3DSarabun;labelBorderColor=none;labelBackgroundColor=none;" parent="ZaGhDLhcAFXalhAohprH-6" vertex="1">
          <mxGeometry y="20" width="108" height="30" as="geometry" />
        </mxCell>
        <mxCell id="ZaGhDLhcAFXalhAohprH-8" value="2" style="swimlane;fontStyle=0;childLayout=stackLayout;horizontal=1;startSize=20;fillColor=#ffffff;horizontalStack=0;resizeParent=1;resizeParentMax=0;resizeLast=0;collapsible=0;marginBottom=0;swimlaneFillColor=#ffffff;fontFamily=Sarabun;fontSource=https%3A%2F%2Ffonts.googleapis.com%2Fcss%3Ffamily%3DSarabun;labelBorderColor=none;labelBackgroundColor=none;" parent="1" vertex="1">
          <mxGeometry x="-553.5" y="-1930" width="100" height="50" as="geometry" />
        </mxCell>
        <mxCell id="ZaGhDLhcAFXalhAohprH-9" value="&lt;font&gt;ส่งข้อมูลเอกสาร&lt;/font&gt;" style="text;html=1;align=center;verticalAlign=middle;resizable=0;points=[];autosize=1;strokeColor=none;fillColor=none;fontFamily=Sarabun;fontSource=https%3A%2F%2Ffonts.googleapis.com%2Fcss%3Ffamily%3DSarabun;labelBorderColor=none;labelBackgroundColor=none;" parent="ZaGhDLhcAFXalhAohprH-8" vertex="1">
          <mxGeometry y="20" width="100" height="30" as="geometry" />
        </mxCell>
        <mxCell id="ZaGhDLhcAFXalhAohprH-10" value="4" style="swimlane;fontStyle=0;childLayout=stackLayout;horizontal=1;startSize=20;fillColor=#ffffff;horizontalStack=0;resizeParent=1;resizeParentMax=0;resizeLast=0;collapsible=0;marginBottom=0;swimlaneFillColor=#ffffff;fontFamily=Sarabun;fontSource=https%3A%2F%2Ffonts.googleapis.com%2Fcss%3Ffamily%3DSarabun;labelBorderColor=none;labelBackgroundColor=none;" parent="1" vertex="1">
          <mxGeometry x="-552" y="-1663" width="105" height="50" as="geometry" />
        </mxCell>
        <mxCell id="ZaGhDLhcAFXalhAohprH-11" value="&lt;font&gt;การจัดการข้อมูล&lt;/font&gt;" style="text;html=1;align=center;verticalAlign=middle;resizable=0;points=[];autosize=1;strokeColor=none;fillColor=none;fontFamily=Sarabun;fontSource=https%3A%2F%2Ffonts.googleapis.com%2Fcss%3Ffamily%3DSarabun;labelBorderColor=none;labelBackgroundColor=none;" parent="ZaGhDLhcAFXalhAohprH-10" vertex="1">
          <mxGeometry y="20" width="105" height="30" as="geometry" />
        </mxCell>
        <mxCell id="ZaGhDLhcAFXalhAohprH-108" style="edgeStyle=orthogonalEdgeStyle;rounded=0;orthogonalLoop=1;jettySize=auto;html=1;labelBorderColor=none;labelBackgroundColor=none;" parent="1" source="ZaGhDLhcAFXalhAohprH-14" edge="1">
          <mxGeometry relative="1" as="geometry">
            <mxPoint x="-548.5" y="-2043" as="targetPoint" />
            <Array as="points">
              <mxPoint x="-691.5" y="-2158" />
              <mxPoint x="-691.5" y="-2063" />
              <mxPoint x="-548.5" y="-2063" />
              <mxPoint x="-548.5" y="-2043" />
              <mxPoint x="-548.5" y="-2043" />
            </Array>
          </mxGeometry>
        </mxCell>
        <mxCell id="ZaGhDLhcAFXalhAohprH-111" value="รายชื่อนักศึกษา" style="edgeLabel;html=1;align=center;verticalAlign=middle;resizable=0;points=[];labelBorderColor=none;labelBackgroundColor=none;" parent="ZaGhDLhcAFXalhAohprH-108" vertex="1" connectable="0">
          <mxGeometry x="0.2146" relative="1" as="geometry">
            <mxPoint x="32" y="-6" as="offset" />
          </mxGeometry>
        </mxCell>
        <mxCell id="ZaGhDLhcAFXalhAohprH-22" style="edgeStyle=orthogonalEdgeStyle;rounded=0;orthogonalLoop=1;jettySize=auto;html=1;entryX=0.611;entryY=0.994;entryDx=0;entryDy=0;fontFamily=Sarabun;fontSource=https%3A%2F%2Ffonts.googleapis.com%2Fcss%3Ffamily%3DSarabun;exitX=0;exitY=0.5;exitDx=0;exitDy=0;entryPerimeter=0;labelBorderColor=none;labelBackgroundColor=none;" parent="1" source="ZaGhDLhcAFXalhAohprH-24" target="ZaGhDLhcAFXalhAohprH-7" edge="1">
          <mxGeometry relative="1" as="geometry">
            <Array as="points">
              <mxPoint x="-203.5" y="-1733" />
              <mxPoint x="-487.5" y="-1733" />
            </Array>
          </mxGeometry>
        </mxCell>
        <mxCell id="ZaGhDLhcAFXalhAohprH-68" value="&lt;span style=&quot;font-family: Sarabun; font-size: 10px;&quot;&gt;ตรวจสอบและอนุมัติเอกสาร&lt;/span&gt;" style="edgeLabel;html=1;align=center;verticalAlign=middle;resizable=0;points=[];labelBorderColor=none;labelBackgroundColor=none;" parent="ZaGhDLhcAFXalhAohprH-22" vertex="1" connectable="0">
          <mxGeometry x="-0.0334" relative="1" as="geometry">
            <mxPoint x="11" y="-7" as="offset" />
          </mxGeometry>
        </mxCell>
        <mxCell id="ZaGhDLhcAFXalhAohprH-23" style="edgeStyle=orthogonalEdgeStyle;rounded=0;orthogonalLoop=1;jettySize=auto;html=1;entryX=1.004;entryY=0.164;entryDx=0;entryDy=0;fontFamily=Sarabun;fontSource=https%3A%2F%2Ffonts.googleapis.com%2Fcss%3Ffamily%3DSarabun;entryPerimeter=0;labelBorderColor=none;labelBackgroundColor=none;" parent="1" target="ZaGhDLhcAFXalhAohprH-11" edge="1">
          <mxGeometry relative="1" as="geometry">
            <Array as="points">
              <mxPoint x="-163.5" y="-1728" />
              <mxPoint x="-163.5" y="-1638" />
            </Array>
            <mxPoint x="-119.45000000000005" y="-1728" as="sourcePoint" />
            <mxPoint x="-417.53" y="-1632.2" as="targetPoint" />
          </mxGeometry>
        </mxCell>
        <mxCell id="ZaGhDLhcAFXalhAohprH-85" value="&lt;font style=&quot;font-size: 10px;&quot;&gt;&lt;span style=&quot;&quot;&gt;เอกสารแบบร่างเปล่า&lt;/span&gt;/ประเภทโครงงาน&lt;/font&gt;" style="edgeLabel;html=1;align=center;verticalAlign=middle;resizable=0;points=[];labelBorderColor=none;labelBackgroundColor=none;" parent="ZaGhDLhcAFXalhAohprH-23" vertex="1" connectable="0">
          <mxGeometry x="0.3459" y="-1" relative="1" as="geometry">
            <mxPoint y="-7" as="offset" />
          </mxGeometry>
        </mxCell>
        <mxCell id="ZaGhDLhcAFXalhAohprH-24" value="อาจารย์" style="html=1;whiteSpace=wrap;fontFamily=Sarabun;fontSource=https%3A%2F%2Ffonts.googleapis.com%2Fcss%3Ffamily%3DSarabun;labelBorderColor=none;labelBackgroundColor=none;" parent="1" vertex="1">
          <mxGeometry x="-203.5" y="-1743" width="110" height="50" as="geometry" />
        </mxCell>
        <mxCell id="ZaGhDLhcAFXalhAohprH-25" style="edgeStyle=orthogonalEdgeStyle;rounded=0;orthogonalLoop=1;jettySize=auto;html=1;entryX=0.5;entryY=0;entryDx=0;entryDy=0;startArrow=classic;startFill=1;fontFamily=Sarabun;fontSource=https%3A%2F%2Ffonts.googleapis.com%2Fcss%3Ffamily%3DSarabun;labelBorderColor=none;labelBackgroundColor=none;" parent="1" source="ZaGhDLhcAFXalhAohprH-26" target="ZaGhDLhcAFXalhAohprH-10" edge="1">
          <mxGeometry relative="1" as="geometry" />
        </mxCell>
        <mxCell id="ZaGhDLhcAFXalhAohprH-35" style="edgeStyle=orthogonalEdgeStyle;rounded=0;orthogonalLoop=1;jettySize=auto;html=1;entryX=0.5;entryY=1;entryDx=0;entryDy=0;fontFamily=Sarabun;fontSource=https%3A%2F%2Ffonts.googleapis.com%2Fcss%3Ffamily%3DSarabun;exitX=1;exitY=0.721;exitDx=0;exitDy=0;exitPerimeter=0;labelBorderColor=none;labelBackgroundColor=none;" parent="1" source="ZaGhDLhcAFXalhAohprH-11" target="ZaGhDLhcAFXalhAohprH-24" edge="1">
          <mxGeometry relative="1" as="geometry" />
        </mxCell>
        <mxCell id="ZaGhDLhcAFXalhAohprH-86" value="&lt;font style=&quot;font-size: 10px;&quot;&gt;&lt;span style=&quot;&quot;&gt;ข้อมูลเอกสารแบบร่าง&lt;/span&gt; / ประเภทโครงงาน&lt;/font&gt;" style="edgeLabel;html=1;align=center;verticalAlign=middle;resizable=0;points=[];labelBorderColor=none;labelBackgroundColor=none;" parent="ZaGhDLhcAFXalhAohprH-35" vertex="1" connectable="0">
          <mxGeometry x="-0.3912" y="1" relative="1" as="geometry">
            <mxPoint x="15" y="-6" as="offset" />
          </mxGeometry>
        </mxCell>
        <mxCell id="ZaGhDLhcAFXalhAohprH-49" style="edgeStyle=orthogonalEdgeStyle;rounded=0;orthogonalLoop=1;jettySize=auto;html=1;entryX=0;entryY=0.25;entryDx=0;entryDy=0;exitX=1;exitY=0.25;exitDx=0;exitDy=0;labelBorderColor=none;labelBackgroundColor=none;" parent="1" source="ZaGhDLhcAFXalhAohprH-39" target="ZaGhDLhcAFXalhAohprH-4" edge="1">
          <mxGeometry relative="1" as="geometry" />
        </mxCell>
        <mxCell id="ZaGhDLhcAFXalhAohprH-50" value="ส่งคำร้อง" style="edgeLabel;html=1;align=center;verticalAlign=middle;resizable=0;points=[];labelBorderColor=none;labelBackgroundColor=none;" parent="ZaGhDLhcAFXalhAohprH-49" vertex="1" connectable="0">
          <mxGeometry x="-0.2744" y="3" relative="1" as="geometry">
            <mxPoint x="13" y="-4" as="offset" />
          </mxGeometry>
        </mxCell>
        <mxCell id="ZaGhDLhcAFXalhAohprH-39" value="นักศึกษา" style="html=1;whiteSpace=wrap;fontFamily=Sarabun;fontSource=https%3A%2F%2Ffonts.googleapis.com%2Fcss%3Ffamily%3DSarabun;labelBorderColor=none;labelBackgroundColor=none;" parent="1" vertex="1">
          <mxGeometry x="-775" y="-2043" width="110" height="50" as="geometry" />
        </mxCell>
        <mxCell id="ZaGhDLhcAFXalhAohprH-46" style="edgeStyle=orthogonalEdgeStyle;rounded=0;orthogonalLoop=1;jettySize=auto;html=1;entryX=0.149;entryY=1.04;entryDx=0;entryDy=0;entryPerimeter=0;exitX=-0.013;exitY=0.769;exitDx=0;exitDy=0;exitPerimeter=0;labelBorderColor=none;labelBackgroundColor=none;" parent="1" source="ZaGhDLhcAFXalhAohprH-11" target="ZaGhDLhcAFXalhAohprH-39" edge="1">
          <mxGeometry relative="1" as="geometry" />
        </mxCell>
        <mxCell id="ZaGhDLhcAFXalhAohprH-84" value="&lt;span style=&quot;font-family: Sarabun; font-size: 10px;&quot;&gt;เอกสารแบบร่าง&lt;/span&gt;" style="edgeLabel;html=1;align=center;verticalAlign=middle;resizable=0;points=[];labelBorderColor=none;labelBackgroundColor=none;" parent="ZaGhDLhcAFXalhAohprH-46" vertex="1" connectable="0">
          <mxGeometry x="-0.663" y="2" relative="1" as="geometry">
            <mxPoint x="13" y="5" as="offset" />
          </mxGeometry>
        </mxCell>
        <mxCell id="ZaGhDLhcAFXalhAohprH-48" value="&lt;span style=&quot;font-family: Sarabun;&quot;&gt;DFD LV1 ระบบบริหารจัดการโครงงาน&lt;/span&gt;" style="text;html=1;align=center;verticalAlign=middle;resizable=0;points=[];autosize=1;strokeColor=none;fillColor=none;labelBorderColor=none;labelBackgroundColor=none;" parent="1" vertex="1">
          <mxGeometry x="-528.5" y="-2223" width="200" height="30" as="geometry" />
        </mxCell>
        <mxCell id="ZaGhDLhcAFXalhAohprH-59" style="edgeStyle=orthogonalEdgeStyle;rounded=0;orthogonalLoop=1;jettySize=auto;html=1;exitX=0.75;exitY=1;exitDx=0;exitDy=0;labelBorderColor=none;labelBackgroundColor=none;" parent="1" source="ZaGhDLhcAFXalhAohprH-39" edge="1">
          <mxGeometry relative="1" as="geometry">
            <mxPoint x="-693.5000000000002" y="-1983.59" as="sourcePoint" />
            <mxPoint x="-553.5" y="-1913" as="targetPoint" />
            <Array as="points">
              <mxPoint x="-692.5" y="-1917" />
              <mxPoint x="-693.5" y="-1917" />
              <mxPoint x="-693.5" y="-1913" />
            </Array>
          </mxGeometry>
        </mxCell>
        <mxCell id="ZaGhDLhcAFXalhAohprH-61" value="&lt;span style=&quot;font-family: Sarabun; font-size: 10px;&quot;&gt;เอกสารในกระบวนการ&lt;/span&gt;" style="edgeLabel;html=1;align=center;verticalAlign=middle;resizable=0;points=[];labelBorderColor=none;labelBackgroundColor=none;" parent="ZaGhDLhcAFXalhAohprH-59" vertex="1" connectable="0">
          <mxGeometry x="0.3049" y="-1" relative="1" as="geometry">
            <mxPoint x="-1" y="-8" as="offset" />
          </mxGeometry>
        </mxCell>
        <mxCell id="ZaGhDLhcAFXalhAohprH-62" style="edgeStyle=orthogonalEdgeStyle;rounded=0;orthogonalLoop=1;jettySize=auto;html=1;entryX=0.588;entryY=1.024;entryDx=0;entryDy=0;entryPerimeter=0;exitX=-0.01;exitY=0.694;exitDx=0;exitDy=0;exitPerimeter=0;labelBorderColor=none;labelBackgroundColor=none;" parent="1" source="ZaGhDLhcAFXalhAohprH-7" target="ZaGhDLhcAFXalhAohprH-39" edge="1">
          <mxGeometry relative="1" as="geometry" />
        </mxCell>
        <mxCell id="ZaGhDLhcAFXalhAohprH-63" value="สถานะเอกสารในกระบวนการ" style="edgeLabel;html=1;align=center;verticalAlign=middle;resizable=0;points=[];labelBorderColor=none;labelBackgroundColor=none;" parent="ZaGhDLhcAFXalhAohprH-62" vertex="1" connectable="0">
          <mxGeometry x="-0.1992" y="1" relative="1" as="geometry">
            <mxPoint x="75" y="-8" as="offset" />
          </mxGeometry>
        </mxCell>
        <mxCell id="ZaGhDLhcAFXalhAohprH-64" value="" style="group;labelBorderColor=none;labelBackgroundColor=none;" parent="1" vertex="1" connectable="0">
          <mxGeometry x="-331.5" y="-1930" width="150" height="30" as="geometry" />
        </mxCell>
        <mxCell id="ZaGhDLhcAFXalhAohprH-20" value="D3" style="html=1;dashed=0;whiteSpace=wrap;shape=mxgraph.dfd.dataStoreID;align=left;spacingLeft=3;points=[[0,0],[0.5,0],[1,0],[0,0.5],[1,0.5],[0,1],[0.5,1],[1,1]];fontFamily=Sarabun;fontSource=https%3A%2F%2Ffonts.googleapis.com%2Fcss%3Ffamily%3DSarabun;labelBorderColor=none;labelBackgroundColor=none;" parent="ZaGhDLhcAFXalhAohprH-64" vertex="1">
          <mxGeometry width="140" height="30" as="geometry" />
        </mxCell>
        <mxCell id="ZaGhDLhcAFXalhAohprH-21" value="Projects Document" style="text;html=1;align=left;verticalAlign=middle;resizable=0;points=[];autosize=1;strokeColor=none;fillColor=none;fontFamily=Sarabun;fontSource=https%3A%2F%2Ffonts.googleapis.com%2Fcss%3Ffamily%3DSarabun;labelBorderColor=none;labelBackgroundColor=none;" parent="ZaGhDLhcAFXalhAohprH-64" vertex="1">
          <mxGeometry x="30" width="120" height="30" as="geometry" />
        </mxCell>
        <mxCell id="ZaGhDLhcAFXalhAohprH-65" style="edgeStyle=orthogonalEdgeStyle;rounded=0;orthogonalLoop=1;jettySize=auto;html=1;entryX=-0.008;entryY=0.407;entryDx=0;entryDy=0;exitX=1;exitY=0.067;exitDx=0;exitDy=0;exitPerimeter=0;entryPerimeter=0;labelBorderColor=none;labelBackgroundColor=none;" parent="1" source="ZaGhDLhcAFXalhAohprH-9" target="ZaGhDLhcAFXalhAohprH-20" edge="1">
          <mxGeometry relative="1" as="geometry">
            <mxPoint x="-403.50000000000045" y="-1953" as="targetPoint" />
            <mxPoint x="-453.5" y="-1913" as="sourcePoint" />
            <Array as="points">
              <mxPoint x="-453.5" y="-1918" />
              <mxPoint x="-351.5" y="-1918" />
            </Array>
          </mxGeometry>
        </mxCell>
        <mxCell id="ZaGhDLhcAFXalhAohprH-66" value="จัดเก็บเอกสาร" style="edgeLabel;html=1;align=center;verticalAlign=middle;resizable=0;points=[];labelBorderColor=none;labelBackgroundColor=none;" parent="ZaGhDLhcAFXalhAohprH-65" vertex="1" connectable="0">
          <mxGeometry x="0.0013" y="-2" relative="1" as="geometry">
            <mxPoint x="-6" y="-9" as="offset" />
          </mxGeometry>
        </mxCell>
        <mxCell id="ZaGhDLhcAFXalhAohprH-69" style="edgeStyle=orthogonalEdgeStyle;rounded=0;orthogonalLoop=1;jettySize=auto;html=1;entryX=0.5;entryY=0;entryDx=0;entryDy=0;labelBorderColor=none;labelBackgroundColor=none;" parent="1" source="ZaGhDLhcAFXalhAohprH-20" target="ZaGhDLhcAFXalhAohprH-6" edge="1">
          <mxGeometry relative="1" as="geometry">
            <Array as="points">
              <mxPoint x="-273" y="-1843" />
              <mxPoint x="-500" y="-1843" />
              <mxPoint x="-500" y="-1803" />
            </Array>
          </mxGeometry>
        </mxCell>
        <mxCell id="ZaGhDLhcAFXalhAohprH-70" value="นำเอกสารมาตรวจสอบ" style="edgeLabel;html=1;align=center;verticalAlign=middle;resizable=0;points=[];labelBorderColor=none;labelBackgroundColor=none;" parent="ZaGhDLhcAFXalhAohprH-69" vertex="1" connectable="0">
          <mxGeometry x="-0.0403" y="-1" relative="1" as="geometry">
            <mxPoint y="-6" as="offset" />
          </mxGeometry>
        </mxCell>
        <mxCell id="ZaGhDLhcAFXalhAohprH-76" style="edgeStyle=orthogonalEdgeStyle;rounded=0;orthogonalLoop=1;jettySize=auto;html=1;entryX=-0.005;entryY=0.656;entryDx=0;entryDy=0;exitX=0.234;exitY=1.004;exitDx=0;exitDy=0;exitPerimeter=0;entryPerimeter=0;labelBorderColor=none;labelBackgroundColor=none;" parent="1" target="ZaGhDLhcAFXalhAohprH-24" edge="1">
          <mxGeometry relative="1" as="geometry">
            <mxPoint x="-528.4979999999996" y="-1750.3799999999999" as="sourcePoint" />
            <mxPoint x="-203.76999999999998" y="-1703" as="targetPoint" />
            <Array as="points">
              <mxPoint x="-528.5" y="-1710" />
              <mxPoint x="-204.5" y="-1710" />
            </Array>
          </mxGeometry>
        </mxCell>
        <mxCell id="ZaGhDLhcAFXalhAohprH-77" value="&lt;span style=&quot;font-family: Sarabun; font-size: 10px;&quot;&gt;ข้อมูลเอกสารโครงงาน&lt;/span&gt;" style="edgeLabel;html=1;align=center;verticalAlign=middle;resizable=0;points=[];labelBorderColor=none;labelBackgroundColor=none;" parent="ZaGhDLhcAFXalhAohprH-76" vertex="1" connectable="0">
          <mxGeometry x="0.0687" y="-1" relative="1" as="geometry">
            <mxPoint y="-8" as="offset" />
          </mxGeometry>
        </mxCell>
        <mxCell id="ZaGhDLhcAFXalhAohprH-78" value="" style="group;labelBorderColor=none;labelBackgroundColor=none;" parent="1" vertex="1" connectable="0">
          <mxGeometry x="-693.5" y="-1703" width="140" height="30" as="geometry" />
        </mxCell>
        <mxCell id="ZaGhDLhcAFXalhAohprH-26" value="D1" style="html=1;dashed=0;whiteSpace=wrap;shape=mxgraph.dfd.dataStoreID;align=left;spacingLeft=3;points=[[0,0],[0.5,0],[1,0],[0,0.5],[1,0.5],[0,1],[0.5,1],[1,1]];fontFamily=Sarabun;fontSource=https%3A%2F%2Ffonts.googleapis.com%2Fcss%3Ffamily%3DSarabun;labelBorderColor=none;labelBackgroundColor=none;" parent="ZaGhDLhcAFXalhAohprH-78" vertex="1">
          <mxGeometry width="120" height="30" as="geometry" />
        </mxCell>
        <mxCell id="ZaGhDLhcAFXalhAohprH-27" value="Document Form" style="text;html=1;align=left;verticalAlign=middle;resizable=0;points=[];autosize=1;strokeColor=none;fillColor=none;fontFamily=Sarabun;fontSource=https%3A%2F%2Ffonts.googleapis.com%2Fcss%3Ffamily%3DSarabun;labelBorderColor=none;labelBackgroundColor=none;" parent="ZaGhDLhcAFXalhAohprH-78" vertex="1">
          <mxGeometry x="30" width="110" height="30" as="geometry" />
        </mxCell>
        <mxCell id="ZaGhDLhcAFXalhAohprH-79" style="edgeStyle=orthogonalEdgeStyle;rounded=0;orthogonalLoop=1;jettySize=auto;html=1;entryX=-0.005;entryY=0.218;entryDx=0;entryDy=0;entryPerimeter=0;labelBorderColor=none;labelBackgroundColor=none;" parent="1" source="ZaGhDLhcAFXalhAohprH-39" target="ZaGhDLhcAFXalhAohprH-11" edge="1">
          <mxGeometry relative="1" as="geometry">
            <Array as="points">
              <mxPoint x="-733.5" y="-1636" />
            </Array>
          </mxGeometry>
        </mxCell>
        <mxCell id="ZaGhDLhcAFXalhAohprH-83" value="&lt;span style=&quot;font-family: Sarabun; font-size: 10px;&quot;&gt;ค้นหาเอกสารแบบร่าง&lt;/span&gt;" style="edgeLabel;html=1;align=center;verticalAlign=middle;resizable=0;points=[];labelBorderColor=none;labelBackgroundColor=none;" parent="ZaGhDLhcAFXalhAohprH-79" vertex="1" connectable="0">
          <mxGeometry x="0.6978" y="2" relative="1" as="geometry">
            <mxPoint y="-5" as="offset" />
          </mxGeometry>
        </mxCell>
        <mxCell id="ZaGhDLhcAFXalhAohprH-104" style="edgeStyle=orthogonalEdgeStyle;rounded=0;orthogonalLoop=1;jettySize=auto;html=1;entryX=0.373;entryY=0.002;entryDx=0;entryDy=0;exitX=0;exitY=0.5;exitDx=0;exitDy=0;entryPerimeter=0;labelBorderColor=none;labelBackgroundColor=none;" parent="1" source="ZaGhDLhcAFXalhAohprH-96" target="ZaGhDLhcAFXalhAohprH-4" edge="1">
          <mxGeometry relative="1" as="geometry">
            <Array as="points">
              <mxPoint x="-671.5" y="-2118" />
              <mxPoint x="-671.5" y="-2083" />
              <mxPoint x="-521.5" y="-2083" />
              <mxPoint x="-521.5" y="-2043" />
            </Array>
          </mxGeometry>
        </mxCell>
        <mxCell id="ZaGhDLhcAFXalhAohprH-115" value="รายชื่ออาจารย์" style="edgeLabel;html=1;align=center;verticalAlign=middle;resizable=0;points=[];labelBorderColor=none;labelBackgroundColor=none;" parent="ZaGhDLhcAFXalhAohprH-104" vertex="1" connectable="0">
          <mxGeometry x="-0.1094" y="1" relative="1" as="geometry">
            <mxPoint x="4" y="-5" as="offset" />
          </mxGeometry>
        </mxCell>
        <mxCell id="ZaGhDLhcAFXalhAohprH-105" value="" style="group;labelBorderColor=none;labelBackgroundColor=none;" parent="1" vertex="1" connectable="0">
          <mxGeometry x="-343.5" y="-2133" width="140" height="30" as="geometry" />
        </mxCell>
        <mxCell id="ZaGhDLhcAFXalhAohprH-12" value="D5" style="html=1;dashed=0;whiteSpace=wrap;shape=mxgraph.dfd.dataStoreID;align=left;spacingLeft=3;points=[[0,0],[0.5,0],[1,0],[0,0.5],[1,0.5],[0,1],[0.5,1],[1,1]];fontFamily=Sarabun;fontSource=https%3A%2F%2Ffonts.googleapis.com%2Fcss%3Ffamily%3DSarabun;labelBorderColor=none;labelBackgroundColor=none;" parent="ZaGhDLhcAFXalhAohprH-105" vertex="1">
          <mxGeometry width="117" height="30" as="geometry" />
        </mxCell>
        <mxCell id="ZaGhDLhcAFXalhAohprH-17" value="Projects_request" style="text;html=1;align=left;verticalAlign=middle;resizable=0;points=[];autosize=1;strokeColor=none;fillColor=none;fontFamily=Sarabun;fontSource=https%3A%2F%2Ffonts.googleapis.com%2Fcss%3Ffamily%3DSarabun;labelBorderColor=none;labelBackgroundColor=none;" parent="ZaGhDLhcAFXalhAohprH-105" vertex="1">
          <mxGeometry x="30" width="110" height="30" as="geometry" />
        </mxCell>
        <mxCell id="ZaGhDLhcAFXalhAohprH-106" value="" style="group;labelBorderColor=none;labelBackgroundColor=none;" parent="1" vertex="1" connectable="0">
          <mxGeometry x="-343.5" y="-2173" width="153" height="30" as="geometry" />
        </mxCell>
        <mxCell id="ZaGhDLhcAFXalhAohprH-89" value="D7" style="html=1;dashed=0;whiteSpace=wrap;shape=mxgraph.dfd.dataStoreID;align=left;spacingLeft=3;points=[[0,0],[0.5,0],[1,0],[0,0.5],[1,0.5],[0,1],[0.5,1],[1,1]];fontFamily=Sarabun;fontSource=https%3A%2F%2Ffonts.googleapis.com%2Fcss%3Ffamily%3DSarabun;labelBorderColor=none;labelBackgroundColor=none;" parent="ZaGhDLhcAFXalhAohprH-106" vertex="1">
          <mxGeometry width="127" height="30" as="geometry" />
        </mxCell>
        <mxCell id="ZaGhDLhcAFXalhAohprH-90" value="students_projects" style="text;html=1;align=left;verticalAlign=middle;resizable=0;points=[];autosize=1;strokeColor=none;fillColor=none;labelBorderColor=none;labelBackgroundColor=none;" parent="ZaGhDLhcAFXalhAohprH-106" vertex="1">
          <mxGeometry x="33" width="120" height="30" as="geometry" />
        </mxCell>
        <mxCell id="ZaGhDLhcAFXalhAohprH-107" value="" style="group;labelBorderColor=none;labelBackgroundColor=none;" parent="1" vertex="1" connectable="0">
          <mxGeometry x="-648.5" y="-2133" width="121.5" height="30" as="geometry" />
        </mxCell>
        <mxCell id="ZaGhDLhcAFXalhAohprH-96" value="D8" style="html=1;dashed=0;whiteSpace=wrap;shape=mxgraph.dfd.dataStoreID;align=left;spacingLeft=3;points=[[0,0],[0.5,0],[1,0],[0,0.5],[1,0.5],[0,1],[0.5,1],[1,1]];labelBorderColor=none;labelBackgroundColor=none;" parent="ZaGhDLhcAFXalhAohprH-107" vertex="1">
          <mxGeometry width="100" height="30" as="geometry" />
        </mxCell>
        <mxCell id="ZaGhDLhcAFXalhAohprH-97" value="teacher_info" style="text;html=1;align=left;verticalAlign=middle;resizable=0;points=[];autosize=1;strokeColor=none;fillColor=none;labelBorderColor=none;labelBackgroundColor=none;" parent="ZaGhDLhcAFXalhAohprH-107" vertex="1">
          <mxGeometry x="31.5" width="90" height="30" as="geometry" />
        </mxCell>
        <mxCell id="ZaGhDLhcAFXalhAohprH-112" value="" style="group;labelBorderColor=none;labelBackgroundColor=none;" parent="1" vertex="1" connectable="0">
          <mxGeometry x="-331.5" y="-1973" width="140" height="30" as="geometry" />
        </mxCell>
        <mxCell id="ZaGhDLhcAFXalhAohprH-100" value="D2" style="html=1;dashed=0;whiteSpace=wrap;shape=mxgraph.dfd.dataStoreID;align=left;spacingLeft=3;points=[[0,0],[0.5,0],[1,0],[0,0.5],[1,0.5],[0,1],[0.5,1],[1,1]];labelBorderColor=none;labelBackgroundColor=none;" parent="ZaGhDLhcAFXalhAohprH-112" vertex="1">
          <mxGeometry width="120" height="30" as="geometry" />
        </mxCell>
        <mxCell id="ZaGhDLhcAFXalhAohprH-101" value="document_types" style="text;html=1;align=left;verticalAlign=middle;resizable=0;points=[];autosize=1;strokeColor=none;fillColor=none;labelBorderColor=none;labelBackgroundColor=none;" parent="ZaGhDLhcAFXalhAohprH-112" vertex="1">
          <mxGeometry x="30" width="110" height="30" as="geometry" />
        </mxCell>
        <mxCell id="ZaGhDLhcAFXalhAohprH-113" style="edgeStyle=orthogonalEdgeStyle;rounded=0;orthogonalLoop=1;jettySize=auto;html=1;exitX=0;exitY=0.5;exitDx=0;exitDy=0;labelBorderColor=none;labelBackgroundColor=none;" parent="1" source="ZaGhDLhcAFXalhAohprH-100" edge="1">
          <mxGeometry relative="1" as="geometry">
            <mxPoint x="-503.5" y="-1930" as="targetPoint" />
            <Array as="points">
              <mxPoint x="-503.5" y="-1958" />
            </Array>
          </mxGeometry>
        </mxCell>
        <mxCell id="ZaGhDLhcAFXalhAohprH-114" value="หัวข้อเอกสารที่ต้องส่ง" style="edgeLabel;html=1;align=center;verticalAlign=middle;resizable=0;points=[];labelBorderColor=none;labelBackgroundColor=none;" parent="ZaGhDLhcAFXalhAohprH-113" vertex="1" connectable="0">
          <mxGeometry x="-0.1395" y="-2" relative="1" as="geometry">
            <mxPoint x="3" y="-5" as="offset" />
          </mxGeometry>
        </mxCell>
        <mxCell id="ZaGhDLhcAFXalhAohprH-121" style="edgeStyle=orthogonalEdgeStyle;rounded=0;orthogonalLoop=1;jettySize=auto;html=1;entryX=0.75;entryY=0;entryDx=0;entryDy=0;labelBorderColor=none;labelBackgroundColor=none;" parent="1" source="ZaGhDLhcAFXalhAohprH-119" target="ZaGhDLhcAFXalhAohprH-4" edge="1">
          <mxGeometry relative="1" as="geometry" />
        </mxCell>
        <mxCell id="ZaGhDLhcAFXalhAohprH-122" value="ประเภทโครงงาน" style="edgeLabel;html=1;align=center;verticalAlign=middle;resizable=0;points=[];labelBorderColor=none;labelBackgroundColor=none;" parent="ZaGhDLhcAFXalhAohprH-121" vertex="1" connectable="0">
          <mxGeometry x="0.0391" y="-2" relative="1" as="geometry">
            <mxPoint x="11" y="-5" as="offset" />
          </mxGeometry>
        </mxCell>
        <mxCell id="YyjMaU0Ngdekt9YktJRk-2" value="D2" style="html=1;dashed=0;whiteSpace=wrap;shape=mxgraph.dfd.dataStoreID;align=left;spacingLeft=3;points=[[0,0],[0.5,0],[1,0],[0,0.5],[1,0.5],[0,1],[0.5,1],[1,1]];labelBorderColor=none;labelBackgroundColor=none;" parent="1" vertex="1">
          <mxGeometry x="-693.5" y="-1583" width="112" height="30" as="geometry" />
        </mxCell>
        <mxCell id="YyjMaU0Ngdekt9YktJRk-3" value="Projects_type" style="text;html=1;align=left;verticalAlign=middle;resizable=0;points=[];autosize=1;strokeColor=none;fillColor=none;labelBorderColor=none;labelBackgroundColor=none;" parent="1" vertex="1">
          <mxGeometry x="-662" y="-1583" width="100" height="30" as="geometry" />
        </mxCell>
        <mxCell id="YyjMaU0Ngdekt9YktJRk-4" style="edgeStyle=orthogonalEdgeStyle;rounded=0;orthogonalLoop=1;jettySize=auto;html=1;entryX=0.992;entryY=0.611;entryDx=0;entryDy=0;entryPerimeter=0;labelBorderColor=none;labelBackgroundColor=none;" parent="1" source="ZaGhDLhcAFXalhAohprH-11" target="YyjMaU0Ngdekt9YktJRk-3" edge="1">
          <mxGeometry relative="1" as="geometry">
            <Array as="points">
              <mxPoint x="-499.5" y="-1565" />
            </Array>
          </mxGeometry>
        </mxCell>
        <mxCell id="YyjMaU0Ngdekt9YktJRk-13" value="" style="group;labelBorderColor=none;labelBackgroundColor=none;" parent="1" vertex="1" connectable="0">
          <mxGeometry x="-648.5" y="-2173" width="80" height="30" as="geometry" />
        </mxCell>
        <mxCell id="ZaGhDLhcAFXalhAohprH-14" value="D9" style="html=1;dashed=0;whiteSpace=wrap;shape=mxgraph.dfd.dataStoreID;align=left;spacingLeft=3;points=[[0,0],[0.5,0],[1,0],[0,0.5],[1,0.5],[0,1],[0.5,1],[1,1]];fontFamily=Sarabun;fontSource=https%3A%2F%2Ffonts.googleapis.com%2Fcss%3Ffamily%3DSarabun;labelBorderColor=none;labelBackgroundColor=none;" parent="YyjMaU0Ngdekt9YktJRk-13" vertex="1">
          <mxGeometry width="67" height="30" as="geometry" />
        </mxCell>
        <mxCell id="ZaGhDLhcAFXalhAohprH-16" value="Users" style="text;html=1;align=left;verticalAlign=middle;resizable=0;points=[];autosize=1;strokeColor=none;fillColor=none;fontFamily=Sarabun;fontSource=https%3A%2F%2Ffonts.googleapis.com%2Fcss%3Ffamily%3DSarabun;labelBorderColor=none;labelBackgroundColor=none;" parent="YyjMaU0Ngdekt9YktJRk-13" vertex="1">
          <mxGeometry x="30" width="50" height="30" as="geometry" />
        </mxCell>
        <mxCell id="YyjMaU0Ngdekt9YktJRk-14" value="" style="group;labelBorderColor=none;labelBackgroundColor=none;" parent="1" vertex="1" connectable="0">
          <mxGeometry x="-343.5" y="-2093" width="132" height="30" as="geometry" />
        </mxCell>
        <mxCell id="ZaGhDLhcAFXalhAohprH-119" value="D6" style="html=1;dashed=0;whiteSpace=wrap;shape=mxgraph.dfd.dataStoreID;align=left;spacingLeft=3;points=[[0,0],[0.5,0],[1,0],[0,0.5],[1,0.5],[0,1],[0.5,1],[1,1]];labelBorderColor=none;labelBackgroundColor=none;" parent="YyjMaU0Ngdekt9YktJRk-14" vertex="1">
          <mxGeometry width="112" height="30" as="geometry" />
        </mxCell>
        <mxCell id="ZaGhDLhcAFXalhAohprH-120" value="Projects_type" style="text;html=1;align=left;verticalAlign=middle;resizable=0;points=[];autosize=1;strokeColor=none;fillColor=none;labelBorderColor=none;labelBackgroundColor=none;" parent="YyjMaU0Ngdekt9YktJRk-14" vertex="1">
          <mxGeometry x="32" width="100" height="30" as="geometry" />
        </mxCell>
        <mxCell id="0Hs6mU-e-wpHHnGf_45k-60" value="" style="html=1;whiteSpace=wrap;fontFamily=Sarabun;fontSource=https%3A%2F%2Ffonts.googleapis.com%2Fcss%3Ffamily%3DSarabun;labelBorderColor=none;labelBackgroundColor=none;fontColor=default;fontSize=12;strokeColor=none;movable=1;resizable=1;rotatable=1;deletable=1;editable=1;locked=0;connectable=1;" parent="1" vertex="1">
          <mxGeometry x="-1635" y="-1649" width="790" height="310" as="geometry" />
        </mxCell>
        <mxCell id="0Hs6mU-e-wpHHnGf_45k-71" style="edgeStyle=orthogonalEdgeStyle;rounded=0;orthogonalLoop=1;jettySize=auto;html=1;exitX=0;exitY=0.25;exitDx=0;exitDy=0;entryX=0.5;entryY=1;entryDx=0;entryDy=0;fontFamily=Sarabun;fontSource=https%3A%2F%2Ffonts.googleapis.com%2Fcss%3Ffamily%3DSarabun;labelBorderColor=none;labelBackgroundColor=none;fontColor=default;fontSize=12;" parent="1" source="0Hs6mU-e-wpHHnGf_45k-62" target="0Hs6mU-e-wpHHnGf_45k-67" edge="1">
          <mxGeometry relative="1" as="geometry" />
        </mxCell>
        <mxCell id="0Hs6mU-e-wpHHnGf_45k-62" value="1" style="swimlane;fontStyle=0;childLayout=stackLayout;horizontal=1;startSize=20;fillColor=#ffffff;horizontalStack=0;resizeParent=1;resizeParentMax=0;resizeLast=0;collapsible=0;marginBottom=0;swimlaneFillColor=#ffffff;fontFamily=Sarabun;fontSource=https%3A%2F%2Ffonts.googleapis.com%2Fcss%3Ffamily%3DSarabun;labelBorderColor=none;labelBackgroundColor=none;fontColor=default;fontSize=12;" parent="1" vertex="1">
          <mxGeometry x="-1389.5" y="-1509" width="100" height="50" as="geometry" />
        </mxCell>
        <mxCell id="0Hs6mU-e-wpHHnGf_45k-64" value="ระบบค้นหา" style="text;html=1;align=center;verticalAlign=middle;resizable=0;points=[];autosize=1;strokeColor=none;fillColor=none;fontFamily=Sarabun;fontSource=https%3A%2F%2Ffonts.googleapis.com%2Fcss%3Ffamily%3DSarabun;labelBorderColor=none;labelBackgroundColor=none;fontColor=default;fontSize=12;" parent="0Hs6mU-e-wpHHnGf_45k-62" vertex="1">
          <mxGeometry y="20" width="100" height="30" as="geometry" />
        </mxCell>
        <mxCell id="0Hs6mU-e-wpHHnGf_45k-63" value="2" style="swimlane;fontStyle=0;childLayout=stackLayout;horizontal=1;startSize=20;fillColor=#ffffff;horizontalStack=0;resizeParent=1;resizeParentMax=0;resizeLast=0;collapsible=0;marginBottom=0;swimlaneFillColor=#ffffff;fontFamily=Sarabun;fontSource=https%3A%2F%2Ffonts.googleapis.com%2Fcss%3Ffamily%3DSarabun;labelBorderColor=none;labelBackgroundColor=none;fontColor=default;fontSize=12;" parent="1" vertex="1">
          <mxGeometry x="-1159.5" y="-1509" width="105" height="50" as="geometry" />
        </mxCell>
        <mxCell id="0Hs6mU-e-wpHHnGf_45k-66" value="เผยแพร่เอกสาร" style="text;html=1;align=center;verticalAlign=middle;resizable=0;points=[];autosize=1;strokeColor=none;fillColor=none;fontFamily=Sarabun;fontSource=https%3A%2F%2Ffonts.googleapis.com%2Fcss%3Ffamily%3DSarabun;labelBorderColor=none;labelBackgroundColor=none;fontColor=default;fontSize=12;" parent="0Hs6mU-e-wpHHnGf_45k-63" vertex="1">
          <mxGeometry y="20" width="105" height="30" as="geometry" />
        </mxCell>
        <mxCell id="0Hs6mU-e-wpHHnGf_45k-69" style="edgeStyle=orthogonalEdgeStyle;rounded=0;orthogonalLoop=1;jettySize=auto;html=1;entryX=0.25;entryY=0;entryDx=0;entryDy=0;fontFamily=Sarabun;fontSource=https%3A%2F%2Ffonts.googleapis.com%2Fcss%3Ffamily%3DSarabun;labelBorderColor=none;labelBackgroundColor=none;fontColor=default;fontSize=12;" parent="1" source="0Hs6mU-e-wpHHnGf_45k-67" target="0Hs6mU-e-wpHHnGf_45k-62" edge="1">
          <mxGeometry relative="1" as="geometry" />
        </mxCell>
        <mxCell id="0Hs6mU-e-wpHHnGf_45k-67" value="นักเรียน" style="html=1;whiteSpace=wrap;fontFamily=Sarabun;fontSource=https%3A%2F%2Ffonts.googleapis.com%2Fcss%3Ffamily%3DSarabun;labelBorderColor=none;labelBackgroundColor=none;fontColor=default;fontSize=12;" parent="1" vertex="1">
          <mxGeometry x="-1605" y="-1579" width="110" height="50" as="geometry" />
        </mxCell>
        <mxCell id="0Hs6mU-e-wpHHnGf_45k-70" style="edgeStyle=orthogonalEdgeStyle;rounded=0;orthogonalLoop=1;jettySize=auto;html=1;entryX=0.24;entryY=1.061;entryDx=0;entryDy=0;entryPerimeter=0;fontFamily=Sarabun;fontSource=https%3A%2F%2Ffonts.googleapis.com%2Fcss%3Ffamily%3DSarabun;labelBorderColor=none;labelBackgroundColor=none;fontColor=default;fontSize=12;" parent="1" source="0Hs6mU-e-wpHHnGf_45k-68" target="0Hs6mU-e-wpHHnGf_45k-64" edge="1">
          <mxGeometry relative="1" as="geometry" />
        </mxCell>
        <mxCell id="0Hs6mU-e-wpHHnGf_45k-68" value="บุคคลทั่วไป" style="html=1;whiteSpace=wrap;fontFamily=Sarabun;fontSource=https%3A%2F%2Ffonts.googleapis.com%2Fcss%3Ffamily%3DSarabun;labelBorderColor=none;labelBackgroundColor=none;fontColor=default;fontSize=12;" parent="1" vertex="1">
          <mxGeometry x="-1605" y="-1429" width="110" height="50" as="geometry" />
        </mxCell>
        <mxCell id="0Hs6mU-e-wpHHnGf_45k-72" style="edgeStyle=orthogonalEdgeStyle;rounded=0;orthogonalLoop=1;jettySize=auto;html=1;entryX=0.5;entryY=0;entryDx=0;entryDy=0;fontFamily=Sarabun;fontSource=https%3A%2F%2Ffonts.googleapis.com%2Fcss%3Ffamily%3DSarabun;labelBorderColor=none;labelBackgroundColor=none;fontColor=default;fontSize=12;" parent="1" source="0Hs6mU-e-wpHHnGf_45k-64" target="0Hs6mU-e-wpHHnGf_45k-68" edge="1">
          <mxGeometry relative="1" as="geometry" />
        </mxCell>
        <mxCell id="0Hs6mU-e-wpHHnGf_45k-74" value="&lt;font&gt;ชื่อโครงงาน , ปีการศึกษา&lt;/font&gt;&lt;div&gt;&lt;font&gt;&amp;nbsp;ประเภท&amp;nbsp;&lt;/font&gt;&lt;/div&gt;" style="edgeLabel;html=1;align=center;verticalAlign=middle;resizable=0;points=[];fontFamily=Sarabun;fontSource=https%3A%2F%2Ffonts.googleapis.com%2Fcss%3Ffamily%3DSarabun;labelBorderColor=none;labelBackgroundColor=none;fontColor=default;fontSize=12;" parent="1" vertex="1" connectable="0">
          <mxGeometry x="-1430.996666666667" y="-1554" as="geometry">
            <mxPoint as="offset" />
          </mxGeometry>
        </mxCell>
        <mxCell id="0Hs6mU-e-wpHHnGf_45k-75" value="&lt;span&gt;ข้อมูลโครงงานที่ผ่านแล้ว&lt;/span&gt;" style="text;html=1;align=center;verticalAlign=middle;resizable=0;points=[];autosize=1;strokeColor=none;fillColor=none;fontFamily=Sarabun;fontSource=https%3A%2F%2Ffonts.googleapis.com%2Fcss%3Ffamily%3DSarabun;labelBorderColor=none;labelBackgroundColor=none;fontColor=default;fontSize=12;" parent="1" vertex="1">
          <mxGeometry x="-1539.5" y="-1519" width="140" height="30" as="geometry" />
        </mxCell>
        <mxCell id="0Hs6mU-e-wpHHnGf_45k-76" value="&lt;font&gt;ข้อมูลโครงงานที่ผ่านแล้ว&lt;/font&gt;" style="text;html=1;align=center;verticalAlign=middle;resizable=0;points=[];autosize=1;strokeColor=none;fillColor=none;fontFamily=Sarabun;fontSource=https%3A%2F%2Ffonts.googleapis.com%2Fcss%3Ffamily%3DSarabun;labelBorderColor=none;labelBackgroundColor=none;fontColor=default;fontSize=12;" parent="1" vertex="1">
          <mxGeometry x="-1539.5" y="-1479" width="140" height="30" as="geometry" />
        </mxCell>
        <mxCell id="0Hs6mU-e-wpHHnGf_45k-77" value="&lt;font&gt;ชื่อโครงงาน , ปีการศึกษา&lt;/font&gt;&lt;div&gt;&lt;font&gt;&amp;nbsp;ประเภท&amp;nbsp;&lt;/font&gt;&lt;/div&gt;" style="edgeLabel;html=1;align=center;verticalAlign=middle;resizable=0;points=[];fontFamily=Sarabun;fontSource=https%3A%2F%2Ffonts.googleapis.com%2Fcss%3Ffamily%3DSarabun;labelBorderColor=none;labelBackgroundColor=none;fontColor=default;fontSize=12;" parent="1" vertex="1" connectable="0">
          <mxGeometry x="-1430.996666666667" y="-1404" as="geometry">
            <mxPoint as="offset" />
          </mxGeometry>
        </mxCell>
        <mxCell id="0Hs6mU-e-wpHHnGf_45k-82" style="edgeStyle=orthogonalEdgeStyle;rounded=0;orthogonalLoop=1;jettySize=auto;html=1;entryX=0.75;entryY=0;entryDx=0;entryDy=0;fontFamily=Sarabun;fontSource=https%3A%2F%2Ffonts.googleapis.com%2Fcss%3Ffamily%3DSarabun;labelBorderColor=none;labelBackgroundColor=none;fontColor=default;fontSize=12;" parent="1" source="0Hs6mU-e-wpHHnGf_45k-78" target="0Hs6mU-e-wpHHnGf_45k-62" edge="1">
          <mxGeometry relative="1" as="geometry">
            <Array as="points">
              <mxPoint x="-1314.5" y="-1554" />
            </Array>
          </mxGeometry>
        </mxCell>
        <mxCell id="0Hs6mU-e-wpHHnGf_45k-84" value="อาจารย์" style="html=1;whiteSpace=wrap;fontFamily=Sarabun;fontSource=https%3A%2F%2Ffonts.googleapis.com%2Fcss%3Ffamily%3DSarabun;labelBorderColor=none;labelBackgroundColor=none;fontColor=default;fontSize=12;" parent="1" vertex="1">
          <mxGeometry x="-969.5" y="-1509" width="110" height="50" as="geometry" />
        </mxCell>
        <mxCell id="0Hs6mU-e-wpHHnGf_45k-89" value="DFD LV1 ระบบค้นหา" style="text;html=1;align=center;verticalAlign=middle;resizable=0;points=[];autosize=1;strokeColor=none;fillColor=none;fontFamily=Sarabun;fontSource=https%3A%2F%2Ffonts.googleapis.com%2Fcss%3Ffamily%3DSarabun;labelBorderColor=none;labelBackgroundColor=none;fontColor=default;fontSize=12;" parent="1" vertex="1">
          <mxGeometry x="-1320" y="-1629" width="130" height="30" as="geometry" />
        </mxCell>
        <mxCell id="ZaGhDLhcAFXalhAohprH-52" style="edgeStyle=orthogonalEdgeStyle;rounded=0;orthogonalLoop=1;jettySize=auto;html=1;entryX=0.323;entryY=1.093;entryDx=0;entryDy=0;entryPerimeter=0;labelBorderColor=none;labelBackgroundColor=none;fontColor=default;fontFamily=Sarabun;fontSource=https%3A%2F%2Ffonts.googleapis.com%2Fcss%3Ffamily%3DSarabun;fontSize=12;" parent="1" source="0Hs6mU-e-wpHHnGf_45k-66" target="0Hs6mU-e-wpHHnGf_45k-80" edge="1">
          <mxGeometry relative="1" as="geometry">
            <Array as="points">
              <mxPoint x="-1232.5" y="-1474" />
            </Array>
          </mxGeometry>
        </mxCell>
        <mxCell id="oR3_0PMQ9E6IMNoJmGb4-19" value="ข้อมูลโครงงาน" style="edgeLabel;html=1;align=center;verticalAlign=middle;resizable=0;points=[];" parent="ZaGhDLhcAFXalhAohprH-52" vertex="1" connectable="0">
          <mxGeometry x="-0.3138" y="1" relative="1" as="geometry">
            <mxPoint x="9" y="-10" as="offset" />
          </mxGeometry>
        </mxCell>
        <mxCell id="ZaGhDLhcAFXalhAohprH-53" style="edgeStyle=orthogonalEdgeStyle;rounded=0;orthogonalLoop=1;jettySize=auto;html=1;entryX=0.997;entryY=0.188;entryDx=0;entryDy=0;entryPerimeter=0;labelBorderColor=none;labelBackgroundColor=none;fontColor=default;fontFamily=Sarabun;fontSource=https%3A%2F%2Ffonts.googleapis.com%2Fcss%3Ffamily%3DSarabun;fontSize=12;" parent="1" source="0Hs6mU-e-wpHHnGf_45k-84" target="0Hs6mU-e-wpHHnGf_45k-66" edge="1">
          <mxGeometry relative="1" as="geometry" />
        </mxCell>
        <mxCell id="ZaGhDLhcAFXalhAohprH-54" value="อนุมัติเอกสาร" style="edgeLabel;html=1;align=center;verticalAlign=middle;resizable=0;points=[];labelBorderColor=none;labelBackgroundColor=none;fontColor=default;fontFamily=Sarabun;fontSource=https%3A%2F%2Ffonts.googleapis.com%2Fcss%3Ffamily%3DSarabun;fontSize=12;" parent="ZaGhDLhcAFXalhAohprH-53" vertex="1" connectable="0">
          <mxGeometry x="0.0641" y="-1" relative="1" as="geometry">
            <mxPoint x="7" y="-10" as="offset" />
          </mxGeometry>
        </mxCell>
        <mxCell id="oR3_0PMQ9E6IMNoJmGb4-9" value="" style="group" parent="1" vertex="1" connectable="0">
          <mxGeometry x="-1289.5" y="-1569" width="125" height="30" as="geometry" />
        </mxCell>
        <mxCell id="0Hs6mU-e-wpHHnGf_45k-78" value="D4" style="html=1;dashed=0;whiteSpace=wrap;shape=mxgraph.dfd.dataStoreID;align=left;spacingLeft=3;points=[[0,0],[0.5,0],[1,0],[0,0.5],[1,0.5],[0,1],[0.5,1],[1,1]];fontFamily=Sarabun;fontSource=https%3A%2F%2Ffonts.googleapis.com%2Fcss%3Ffamily%3DSarabun;labelBorderColor=none;labelBackgroundColor=none;fontColor=default;fontSize=12;" parent="oR3_0PMQ9E6IMNoJmGb4-9" vertex="1">
          <mxGeometry width="100" height="30" as="geometry" />
        </mxCell>
        <mxCell id="0Hs6mU-e-wpHHnGf_45k-80" value="Project_Release" style="text;html=1;align=center;verticalAlign=middle;resizable=0;points=[];autosize=1;strokeColor=none;fillColor=none;fontFamily=Sarabun;fontSource=https%3A%2F%2Ffonts.googleapis.com%2Fcss%3Ffamily%3DSarabun;labelBorderColor=none;labelBackgroundColor=none;fontColor=default;fontSize=12;" parent="oR3_0PMQ9E6IMNoJmGb4-9" vertex="1">
          <mxGeometry x="25" width="100" height="30" as="geometry" />
        </mxCell>
        <mxCell id="oR3_0PMQ9E6IMNoJmGb4-11" value="" style="group;align=left;" parent="1" vertex="1" connectable="0">
          <mxGeometry x="-1289.5" y="-1599" width="125" height="30" as="geometry" />
        </mxCell>
        <mxCell id="oR3_0PMQ9E6IMNoJmGb4-12" value="D8" style="html=1;dashed=0;whiteSpace=wrap;shape=mxgraph.dfd.dataStoreID;align=left;spacingLeft=3;points=[[0,0],[0.5,0],[1,0],[0,0.5],[1,0.5],[0,1],[0.5,1],[1,1]];fontFamily=Sarabun;fontSource=https%3A%2F%2Ffonts.googleapis.com%2Fcss%3Ffamily%3DSarabun;labelBorderColor=none;labelBackgroundColor=none;fontColor=default;fontSize=12;" parent="oR3_0PMQ9E6IMNoJmGb4-11" vertex="1">
          <mxGeometry width="100" height="30" as="geometry" />
        </mxCell>
        <mxCell id="oR3_0PMQ9E6IMNoJmGb4-13" value="Teacher_info" style="text;html=1;align=left;verticalAlign=middle;resizable=0;points=[];autosize=1;strokeColor=none;fillColor=none;fontFamily=Sarabun;fontSource=https%3A%2F%2Ffonts.googleapis.com%2Fcss%3Ffamily%3DSarabun;labelBorderColor=none;labelBackgroundColor=none;fontColor=default;fontSize=12;" parent="oR3_0PMQ9E6IMNoJmGb4-11" vertex="1">
          <mxGeometry x="30" width="90" height="30" as="geometry" />
        </mxCell>
        <mxCell id="oR3_0PMQ9E6IMNoJmGb4-14" style="edgeStyle=orthogonalEdgeStyle;rounded=0;orthogonalLoop=1;jettySize=auto;html=1;entryX=0.75;entryY=0;entryDx=0;entryDy=0;" parent="1" source="oR3_0PMQ9E6IMNoJmGb4-12" target="0Hs6mU-e-wpHHnGf_45k-62" edge="1">
          <mxGeometry relative="1" as="geometry">
            <Array as="points">
              <mxPoint x="-1314" y="-1584" />
            </Array>
          </mxGeometry>
        </mxCell>
        <mxCell id="oR3_0PMQ9E6IMNoJmGb4-20" value="5" style="swimlane;fontStyle=0;childLayout=stackLayout;horizontal=1;startSize=20;fillColor=#ffffff;horizontalStack=0;resizeParent=1;resizeParentMax=0;resizeLast=0;collapsible=0;marginBottom=0;swimlaneFillColor=#ffffff;fontFamily=Sarabun;fontSource=https%3A%2F%2Ffonts.googleapis.com%2Fcss%3Ffamily%3DSarabun;labelBorderColor=none;labelBackgroundColor=none;" parent="1" vertex="1">
          <mxGeometry x="-552" y="-1505" width="105" height="50" as="geometry" />
        </mxCell>
        <mxCell id="oR3_0PMQ9E6IMNoJmGb4-21" value="เผยแพร่โครงงาน" style="text;html=1;align=center;verticalAlign=middle;resizable=0;points=[];autosize=1;strokeColor=none;fillColor=none;fontFamily=Sarabun;fontSource=https%3A%2F%2Ffonts.googleapis.com%2Fcss%3Ffamily%3DSarabun;labelBorderColor=none;labelBackgroundColor=none;" parent="oR3_0PMQ9E6IMNoJmGb4-20" vertex="1">
          <mxGeometry y="20" width="105" height="30" as="geometry" />
        </mxCell>
        <mxCell id="oR3_0PMQ9E6IMNoJmGb4-23" style="edgeStyle=orthogonalEdgeStyle;rounded=0;orthogonalLoop=1;jettySize=auto;html=1;entryX=0.5;entryY=0;entryDx=0;entryDy=0;" parent="1" source="ZaGhDLhcAFXalhAohprH-24" target="oR3_0PMQ9E6IMNoJmGb4-20" edge="1">
          <mxGeometry relative="1" as="geometry">
            <Array as="points">
              <mxPoint x="-135" y="-1548" />
              <mxPoint x="-499" y="-1548" />
            </Array>
          </mxGeometry>
        </mxCell>
        <mxCell id="oR3_0PMQ9E6IMNoJmGb4-26" value="เผยแพร่โครงงาน" style="edgeLabel;html=1;align=center;verticalAlign=middle;resizable=0;points=[];" parent="oR3_0PMQ9E6IMNoJmGb4-23" vertex="1" connectable="0">
          <mxGeometry x="0.2672" y="1" relative="1" as="geometry">
            <mxPoint x="39" y="-10" as="offset" />
          </mxGeometry>
        </mxCell>
        <mxCell id="oR3_0PMQ9E6IMNoJmGb4-24" style="edgeStyle=orthogonalEdgeStyle;rounded=0;orthogonalLoop=1;jettySize=auto;html=1;entryX=0.75;entryY=1;entryDx=0;entryDy=0;" parent="1" source="oR3_0PMQ9E6IMNoJmGb4-21" target="ZaGhDLhcAFXalhAohprH-24" edge="1">
          <mxGeometry relative="1" as="geometry" />
        </mxCell>
        <mxCell id="oR3_0PMQ9E6IMNoJmGb4-25" value="ข้อมูลโครงงานที่พร้อมเผยแพร่" style="edgeLabel;html=1;align=center;verticalAlign=middle;resizable=0;points=[];" parent="oR3_0PMQ9E6IMNoJmGb4-24" vertex="1" connectable="0">
          <mxGeometry x="-0.5445" y="1" relative="1" as="geometry">
            <mxPoint x="21" y="-8" as="offset" />
          </mxGeometry>
        </mxCell>
        <mxCell id="oR3_0PMQ9E6IMNoJmGb4-27" value="" style="group" parent="1" vertex="1" connectable="0">
          <mxGeometry x="-555" y="-1408" width="125" height="30" as="geometry" />
        </mxCell>
        <mxCell id="oR3_0PMQ9E6IMNoJmGb4-28" value="D4" style="html=1;dashed=0;whiteSpace=wrap;shape=mxgraph.dfd.dataStoreID;align=left;spacingLeft=3;points=[[0,0],[0.5,0],[1,0],[0,0.5],[1,0.5],[0,1],[0.5,1],[1,1]];fontFamily=Sarabun;fontSource=https%3A%2F%2Ffonts.googleapis.com%2Fcss%3Ffamily%3DSarabun;labelBorderColor=none;labelBackgroundColor=none;fontColor=default;fontSize=12;" parent="oR3_0PMQ9E6IMNoJmGb4-27" vertex="1">
          <mxGeometry width="100" height="30" as="geometry" />
        </mxCell>
        <mxCell id="oR3_0PMQ9E6IMNoJmGb4-29" value="Project_Release" style="text;html=1;align=center;verticalAlign=middle;resizable=0;points=[];autosize=1;strokeColor=none;fillColor=none;fontFamily=Sarabun;fontSource=https%3A%2F%2Ffonts.googleapis.com%2Fcss%3Ffamily%3DSarabun;labelBorderColor=none;labelBackgroundColor=none;fontColor=default;fontSize=12;" parent="oR3_0PMQ9E6IMNoJmGb4-27" vertex="1">
          <mxGeometry x="25" width="100" height="30" as="geometry" />
        </mxCell>
        <mxCell id="oR3_0PMQ9E6IMNoJmGb4-30" style="edgeStyle=orthogonalEdgeStyle;rounded=0;orthogonalLoop=1;jettySize=auto;html=1;entryX=0;entryY=0.5;entryDx=0;entryDy=0;" parent="1" source="oR3_0PMQ9E6IMNoJmGb4-28" target="oR3_0PMQ9E6IMNoJmGb4-20" edge="1">
          <mxGeometry relative="1" as="geometry">
            <Array as="points">
              <mxPoint x="-572" y="-1393" />
              <mxPoint x="-572" y="-1480" />
            </Array>
          </mxGeometry>
        </mxCell>
        <mxCell id="oR3_0PMQ9E6IMNoJmGb4-34" value="&lt;span style=&quot;font-size: 11px;&quot;&gt;สถานะคำร้อง&lt;/span&gt;" style="text;html=1;align=center;verticalAlign=middle;resizable=0;points=[];autosize=1;strokeColor=none;fillColor=none;" parent="1" vertex="1">
          <mxGeometry x="-656" y="-2028" width="80" height="30" as="geometry" />
        </mxCell>
        <mxCell id="oR3_0PMQ9E6IMNoJmGb4-35" value="" style="group" parent="1" vertex="1" connectable="0">
          <mxGeometry x="-306.5" y="-2046" width="125" height="30" as="geometry" />
        </mxCell>
        <mxCell id="oR3_0PMQ9E6IMNoJmGb4-36" value="D4" style="html=1;dashed=0;whiteSpace=wrap;shape=mxgraph.dfd.dataStoreID;align=left;spacingLeft=3;points=[[0,0],[0.5,0],[1,0],[0,0.5],[1,0.5],[0,1],[0.5,1],[1,1]];fontFamily=Sarabun;fontSource=https%3A%2F%2Ffonts.googleapis.com%2Fcss%3Ffamily%3DSarabun;labelBorderColor=none;labelBackgroundColor=none;fontColor=default;fontSize=12;" parent="oR3_0PMQ9E6IMNoJmGb4-35" vertex="1">
          <mxGeometry width="100" height="30" as="geometry" />
        </mxCell>
        <mxCell id="oR3_0PMQ9E6IMNoJmGb4-37" value="Project_Release" style="text;html=1;align=center;verticalAlign=middle;resizable=0;points=[];autosize=1;strokeColor=none;fillColor=none;fontFamily=Sarabun;fontSource=https%3A%2F%2Ffonts.googleapis.com%2Fcss%3Ffamily%3DSarabun;labelBorderColor=none;labelBackgroundColor=none;fontColor=default;fontSize=12;" parent="oR3_0PMQ9E6IMNoJmGb4-35" vertex="1">
          <mxGeometry x="25" width="100" height="30" as="geometry" />
        </mxCell>
        <mxCell id="oR3_0PMQ9E6IMNoJmGb4-39" style="edgeStyle=orthogonalEdgeStyle;rounded=0;orthogonalLoop=1;jettySize=auto;html=1;entryX=0;entryY=0.5;entryDx=0;entryDy=0;exitX=1;exitY=0.25;exitDx=0;exitDy=0;" parent="1" source="ZaGhDLhcAFXalhAohprH-4" target="oR3_0PMQ9E6IMNoJmGb4-36" edge="1">
          <mxGeometry relative="1" as="geometry" />
        </mxCell>
        <mxCell id="oR3_0PMQ9E6IMNoJmGb4-40" value="เก็บสถานะโครงงาน" style="text;html=1;align=center;verticalAlign=middle;resizable=0;points=[];autosize=1;strokeColor=none;fillColor=none;" parent="1" vertex="1">
          <mxGeometry x="-432" y="-2053" width="120" height="30" as="geometry" />
        </mxCell>
        <mxCell id="oR3_0PMQ9E6IMNoJmGb4-41" value="" style="group;labelBorderColor=none;labelBackgroundColor=none;" parent="1" vertex="1" connectable="0">
          <mxGeometry x="3335" y="-1908" width="768.5" height="470" as="geometry" />
        </mxCell>
        <mxCell id="oR3_0PMQ9E6IMNoJmGb4-42" value="" style="html=1;whiteSpace=wrap;align=center;movable=1;resizable=1;rotatable=1;deletable=1;editable=1;locked=0;connectable=1;labelBorderColor=none;labelBackgroundColor=none;" parent="oR3_0PMQ9E6IMNoJmGb4-41" vertex="1">
          <mxGeometry width="768.5" height="470" as="geometry" />
        </mxCell>
        <mxCell id="oR3_0PMQ9E6IMNoJmGb4-43" value="&lt;span style=&quot;font-family: Sarabun; color: rgb(255, 0, 0);&quot;&gt;DFD LV2 &lt;/span&gt;&lt;span style=&quot;color: rgb(255, 0, 0);&quot;&gt;&lt;span style=&quot;color: rgba(0, 0, 0, 0);&quot;&gt;เผยแพร่โครงงาน&lt;/span&gt;&lt;/span&gt;" style="text;html=1;align=center;verticalAlign=middle;resizable=0;points=[];autosize=1;strokeColor=none;fillColor=none;labelBorderColor=none;labelBackgroundColor=none;" parent="oR3_0PMQ9E6IMNoJmGb4-41" vertex="1">
          <mxGeometry x="254.59090909090912" y="21.362637362637315" width="150" height="30" as="geometry" />
        </mxCell>
        <mxCell id="oR3_0PMQ9E6IMNoJmGb4-44" value="4.1" style="swimlane;fontStyle=0;childLayout=stackLayout;horizontal=1;startSize=20;fillColor=#ffffff;horizontalStack=0;resizeParent=1;resizeParentMax=0;resizeLast=0;collapsible=0;marginBottom=0;swimlaneFillColor=#ffffff;fontFamily=Sarabun;fontSource=https%3A%2F%2Ffonts.googleapis.com%2Fcss%3Ffamily%3DSarabun;labelBorderColor=none;labelBackgroundColor=none;" parent="oR3_0PMQ9E6IMNoJmGb4-41" vertex="1">
          <mxGeometry x="236.31515151515146" y="146.42571428571432" width="169.52121212121213" height="50" as="geometry" />
        </mxCell>
        <mxCell id="oR3_0PMQ9E6IMNoJmGb4-45" value="การจัดกการข้อมูล" style="text;html=1;align=center;verticalAlign=middle;resizable=0;points=[];autosize=1;strokeColor=none;fillColor=none;fontFamily=Sarabun;fontSource=https%3A%2F%2Ffonts.googleapis.com%2Fcss%3Ffamily%3DSarabun;labelBorderColor=none;labelBackgroundColor=none;" parent="oR3_0PMQ9E6IMNoJmGb4-44" vertex="1">
          <mxGeometry y="20" width="169.52121212121213" height="30" as="geometry" />
        </mxCell>
        <mxCell id="oR3_0PMQ9E6IMNoJmGb4-46" style="edgeStyle=orthogonalEdgeStyle;rounded=0;orthogonalLoop=1;jettySize=auto;html=1;entryX=0.367;entryY=0.983;entryDx=0;entryDy=0;entryPerimeter=0;exitX=1;exitY=0.25;exitDx=0;exitDy=0;labelBorderColor=none;labelBackgroundColor=none;" parent="oR3_0PMQ9E6IMNoJmGb4-41" target="oR3_0PMQ9E6IMNoJmGb4-50" edge="1">
          <mxGeometry relative="1" as="geometry">
            <mxPoint x="160.83242424242417" y="394.75307692307706" as="sourcePoint" />
            <mxPoint x="289.71433333333334" y="312.1357142857146" as="targetPoint" />
            <Array as="points">
              <mxPoint x="298.5" y="395" />
            </Array>
          </mxGeometry>
        </mxCell>
        <mxCell id="oR3_0PMQ9E6IMNoJmGb4-47" value="ค้นหาเอกสารแบบร่าง" style="edgeLabel;html=1;align=center;verticalAlign=middle;resizable=0;points=[];labelBorderColor=none;labelBackgroundColor=none;" parent="oR3_0PMQ9E6IMNoJmGb4-46" vertex="1" connectable="0">
          <mxGeometry x="-0.4635" y="1" relative="1" as="geometry">
            <mxPoint x="10" y="-2" as="offset" />
          </mxGeometry>
        </mxCell>
        <mxCell id="oR3_0PMQ9E6IMNoJmGb4-48" value="นักศึกษา" style="html=1;whiteSpace=wrap;fontFamily=Sarabun;fontSource=https%3A%2F%2Ffonts.googleapis.com%2Fcss%3Ffamily%3DSarabun;labelBorderColor=none;labelBackgroundColor=none;" parent="oR3_0PMQ9E6IMNoJmGb4-41" vertex="1">
          <mxGeometry x="48.49909090909091" y="385.22296703296706" width="112.33333333333334" height="39.56043956043956" as="geometry" />
        </mxCell>
        <mxCell id="oR3_0PMQ9E6IMNoJmGb4-49" value="4.2" style="swimlane;fontStyle=0;childLayout=stackLayout;horizontal=1;startSize=20;fillColor=#ffffff;horizontalStack=0;resizeParent=1;resizeParentMax=0;resizeLast=0;collapsible=0;marginBottom=0;swimlaneFillColor=#ffffff;fontFamily=Sarabun;fontSource=https%3A%2F%2Ffonts.googleapis.com%2Fcss%3Ffamily%3DSarabun;labelBorderColor=none;labelBackgroundColor=none;" parent="oR3_0PMQ9E6IMNoJmGb4-41" vertex="1">
          <mxGeometry x="236.31515151515146" y="262.13571428571436" width="169.52121212121213" height="50" as="geometry" />
        </mxCell>
        <mxCell id="oR3_0PMQ9E6IMNoJmGb4-50" value="ค้นหา" style="text;html=1;align=center;verticalAlign=middle;resizable=0;points=[];autosize=1;strokeColor=none;fillColor=none;fontFamily=Sarabun;fontSource=https%3A%2F%2Ffonts.googleapis.com%2Fcss%3Ffamily%3DSarabun;labelBorderColor=none;labelBackgroundColor=none;" parent="oR3_0PMQ9E6IMNoJmGb4-49" vertex="1">
          <mxGeometry y="20" width="169.52121212121213" height="30" as="geometry" />
        </mxCell>
        <mxCell id="oR3_0PMQ9E6IMNoJmGb4-51" value="อาจารย์" style="html=1;whiteSpace=wrap;fontFamily=Sarabun;fontSource=https%3A%2F%2Ffonts.googleapis.com%2Fcss%3Ffamily%3DSarabun;labelBorderColor=none;labelBackgroundColor=none;" parent="oR3_0PMQ9E6IMNoJmGb4-41" vertex="1">
          <mxGeometry x="608.4993939393939" y="90" width="112.33333333333334" height="50" as="geometry" />
        </mxCell>
        <mxCell id="oR3_0PMQ9E6IMNoJmGb4-52" style="edgeStyle=orthogonalEdgeStyle;rounded=0;orthogonalLoop=1;jettySize=auto;html=1;entryX=0.5;entryY=0;entryDx=0;entryDy=0;labelBorderColor=none;labelBackgroundColor=none;" parent="oR3_0PMQ9E6IMNoJmGb4-41" source="oR3_0PMQ9E6IMNoJmGb4-51" target="oR3_0PMQ9E6IMNoJmGb4-44" edge="1">
          <mxGeometry relative="1" as="geometry" />
        </mxCell>
        <mxCell id="oR3_0PMQ9E6IMNoJmGb4-53" value="เอกสารแบบร่าง / ประเภทโครงงาน /&amp;nbsp; อาจารย์" style="edgeLabel;html=1;align=center;verticalAlign=middle;resizable=0;points=[];labelBorderColor=none;labelBackgroundColor=none;" parent="oR3_0PMQ9E6IMNoJmGb4-52" vertex="1" connectable="0">
          <mxGeometry x="-0.3831" y="-2" relative="1" as="geometry">
            <mxPoint x="-29" y="-3" as="offset" />
          </mxGeometry>
        </mxCell>
        <mxCell id="oR3_0PMQ9E6IMNoJmGb4-54" value="" style="group;labelBorderColor=none;labelBackgroundColor=none;" parent="oR3_0PMQ9E6IMNoJmGb4-41" vertex="1" connectable="0">
          <mxGeometry x="48.50090909090909" y="220" width="142.96969696969697" height="30" as="geometry" />
        </mxCell>
        <mxCell id="oR3_0PMQ9E6IMNoJmGb4-55" value="D3" style="html=1;dashed=0;whiteSpace=wrap;shape=mxgraph.dfd.dataStoreID;align=left;spacingLeft=3;points=[[0,0],[0.5,0],[1,0],[0,0.5],[1,0.5],[0,1],[0.5,1],[1,1]];fontFamily=Sarabun;fontSource=https%3A%2F%2Ffonts.googleapis.com%2Fcss%3Ffamily%3DSarabun;labelBorderColor=none;labelBackgroundColor=none;" parent="oR3_0PMQ9E6IMNoJmGb4-54" vertex="1">
          <mxGeometry width="122.54545454545455" height="30" as="geometry" />
        </mxCell>
        <mxCell id="oR3_0PMQ9E6IMNoJmGb4-56" value="Document Form" style="text;html=1;align=left;verticalAlign=middle;resizable=0;points=[];autosize=1;strokeColor=none;fillColor=none;fontFamily=Sarabun;fontSource=https%3A%2F%2Ffonts.googleapis.com%2Fcss%3Ffamily%3DSarabun;labelBorderColor=none;labelBackgroundColor=none;" parent="oR3_0PMQ9E6IMNoJmGb4-54" vertex="1">
          <mxGeometry x="30.636363636363637" width="110" height="30" as="geometry" />
        </mxCell>
        <mxCell id="oR3_0PMQ9E6IMNoJmGb4-57" style="edgeStyle=orthogonalEdgeStyle;rounded=0;orthogonalLoop=1;jettySize=auto;html=1;entryX=-0.005;entryY=0.457;entryDx=0;entryDy=0;entryPerimeter=0;labelBorderColor=none;labelBackgroundColor=none;" parent="oR3_0PMQ9E6IMNoJmGb4-41" source="oR3_0PMQ9E6IMNoJmGb4-55" target="oR3_0PMQ9E6IMNoJmGb4-50" edge="1">
          <mxGeometry relative="1" as="geometry">
            <Array as="points">
              <mxPoint x="118.5" y="296" />
            </Array>
          </mxGeometry>
        </mxCell>
        <mxCell id="oR3_0PMQ9E6IMNoJmGb4-58" value="เอกสารแบบร่าง" style="edgeLabel;html=1;align=center;verticalAlign=middle;resizable=0;points=[];labelBorderColor=none;labelBackgroundColor=none;" parent="oR3_0PMQ9E6IMNoJmGb4-57" vertex="1" connectable="0">
          <mxGeometry x="-0.0562" y="-1" relative="1" as="geometry">
            <mxPoint x="22" as="offset" />
          </mxGeometry>
        </mxCell>
        <mxCell id="oR3_0PMQ9E6IMNoJmGb4-59" value="" style="group;labelBorderColor=none;labelBackgroundColor=none;" parent="oR3_0PMQ9E6IMNoJmGb4-41" vertex="1" connectable="0">
          <mxGeometry x="48.5" y="70" width="130" height="30" as="geometry" />
        </mxCell>
        <mxCell id="oR3_0PMQ9E6IMNoJmGb4-60" value="D9" style="html=1;dashed=0;whiteSpace=wrap;shape=mxgraph.dfd.dataStoreID;align=left;spacingLeft=3;points=[[0,0],[0.5,0],[1,0],[0,0.5],[1,0.5],[0,1],[0.5,1],[1,1]];labelBorderColor=none;labelBackgroundColor=none;" parent="oR3_0PMQ9E6IMNoJmGb4-59" vertex="1">
          <mxGeometry width="112" height="30" as="geometry" />
        </mxCell>
        <mxCell id="oR3_0PMQ9E6IMNoJmGb4-61" value="Projects_type" style="text;html=1;align=left;verticalAlign=middle;resizable=0;points=[];autosize=1;strokeColor=none;fillColor=none;labelBorderColor=none;labelBackgroundColor=none;" parent="oR3_0PMQ9E6IMNoJmGb4-59" vertex="1">
          <mxGeometry x="30" width="100" height="30" as="geometry" />
        </mxCell>
        <mxCell id="oR3_0PMQ9E6IMNoJmGb4-62" style="edgeStyle=orthogonalEdgeStyle;rounded=0;orthogonalLoop=1;jettySize=auto;html=1;entryX=0.5;entryY=1;entryDx=0;entryDy=0;exitX=0.25;exitY=0;exitDx=0;exitDy=0;labelBorderColor=none;labelBackgroundColor=none;" parent="oR3_0PMQ9E6IMNoJmGb4-41" source="oR3_0PMQ9E6IMNoJmGb4-44" target="oR3_0PMQ9E6IMNoJmGb4-60" edge="1">
          <mxGeometry relative="1" as="geometry">
            <Array as="points">
              <mxPoint x="278.5" y="120" />
              <mxPoint x="104.5" y="120" />
            </Array>
          </mxGeometry>
        </mxCell>
        <mxCell id="oR3_0PMQ9E6IMNoJmGb4-63" value="ข้อมูลประเภทโครงงาน" style="edgeLabel;html=1;align=center;verticalAlign=middle;resizable=0;points=[];labelBorderColor=none;labelBackgroundColor=none;" parent="oR3_0PMQ9E6IMNoJmGb4-62" vertex="1" connectable="0">
          <mxGeometry x="-0.1594" y="-2" relative="1" as="geometry">
            <mxPoint x="-26" y="-4" as="offset" />
          </mxGeometry>
        </mxCell>
        <mxCell id="oR3_0PMQ9E6IMNoJmGb4-64" style="edgeStyle=orthogonalEdgeStyle;rounded=0;orthogonalLoop=1;jettySize=auto;html=1;entryX=0.338;entryY=0.028;entryDx=0;entryDy=0;entryPerimeter=0;labelBorderColor=none;labelBackgroundColor=none;" parent="oR3_0PMQ9E6IMNoJmGb4-41" source="oR3_0PMQ9E6IMNoJmGb4-45" target="oR3_0PMQ9E6IMNoJmGb4-56" edge="1">
          <mxGeometry relative="1" as="geometry" />
        </mxCell>
        <mxCell id="oR3_0PMQ9E6IMNoJmGb4-65" value="ข้อมูลเอกสารแบบร่าง" style="edgeLabel;html=1;align=center;verticalAlign=middle;resizable=0;points=[];labelBorderColor=none;labelBackgroundColor=none;" parent="oR3_0PMQ9E6IMNoJmGb4-64" vertex="1" connectable="0">
          <mxGeometry x="-0.2999" y="1" relative="1" as="geometry">
            <mxPoint x="-2" y="-11" as="offset" />
          </mxGeometry>
        </mxCell>
        <mxCell id="oR3_0PMQ9E6IMNoJmGb4-66" style="edgeStyle=orthogonalEdgeStyle;rounded=0;orthogonalLoop=1;jettySize=auto;html=1;entryX=1;entryY=0.75;entryDx=0;entryDy=0;labelBorderColor=none;labelBackgroundColor=none;" parent="oR3_0PMQ9E6IMNoJmGb4-41" source="oR3_0PMQ9E6IMNoJmGb4-50" target="oR3_0PMQ9E6IMNoJmGb4-48" edge="1">
          <mxGeometry relative="1" as="geometry">
            <Array as="points">
              <mxPoint x="358.5" y="415" />
            </Array>
          </mxGeometry>
        </mxCell>
        <mxCell id="oR3_0PMQ9E6IMNoJmGb4-67" value="เอกสารแบบร่าง" style="edgeLabel;html=1;align=center;verticalAlign=middle;resizable=0;points=[];labelBorderColor=none;labelBackgroundColor=none;" parent="oR3_0PMQ9E6IMNoJmGb4-66" vertex="1" connectable="0">
          <mxGeometry x="0.4058" y="2" relative="1" as="geometry">
            <mxPoint y="-3" as="offset" />
          </mxGeometry>
        </mxCell>
        <mxCell id="oR3_0PMQ9E6IMNoJmGb4-68" value="4.3" style="swimlane;fontStyle=0;childLayout=stackLayout;horizontal=1;startSize=20;fillColor=#ffffff;horizontalStack=0;resizeParent=1;resizeParentMax=0;resizeLast=0;collapsible=0;marginBottom=0;swimlaneFillColor=#ffffff;fontFamily=Sarabun;fontSource=https%3A%2F%2Ffonts.googleapis.com%2Fcss%3Ffamily%3DSarabun;labelBorderColor=none;labelBackgroundColor=none;" parent="oR3_0PMQ9E6IMNoJmGb4-41" vertex="1">
          <mxGeometry x="438.9751515151515" y="262.13571428571436" width="169.52121212121213" height="50" as="geometry" />
        </mxCell>
        <mxCell id="oR3_0PMQ9E6IMNoJmGb4-69" value="ประวัติการเพิ่มข้อมูล" style="text;html=1;align=center;verticalAlign=middle;resizable=0;points=[];autosize=1;strokeColor=none;fillColor=none;fontFamily=Sarabun;fontSource=https%3A%2F%2Ffonts.googleapis.com%2Fcss%3Ffamily%3DSarabun;labelBorderColor=none;labelBackgroundColor=none;" parent="oR3_0PMQ9E6IMNoJmGb4-68" vertex="1">
          <mxGeometry y="20" width="169.52121212121213" height="30" as="geometry" />
        </mxCell>
        <mxCell id="oR3_0PMQ9E6IMNoJmGb4-70" style="edgeStyle=orthogonalEdgeStyle;rounded=0;orthogonalLoop=1;jettySize=auto;html=1;entryX=0.003;entryY=0.146;entryDx=0;entryDy=0;entryPerimeter=0;exitX=0.999;exitY=0.146;exitDx=0;exitDy=0;exitPerimeter=0;labelBorderColor=none;labelBackgroundColor=none;" parent="oR3_0PMQ9E6IMNoJmGb4-41" source="oR3_0PMQ9E6IMNoJmGb4-50" target="oR3_0PMQ9E6IMNoJmGb4-69" edge="1">
          <mxGeometry relative="1" as="geometry" />
        </mxCell>
        <mxCell id="oR3_0PMQ9E6IMNoJmGb4-71" style="edgeStyle=orthogonalEdgeStyle;rounded=0;orthogonalLoop=1;jettySize=auto;html=1;labelBorderColor=none;labelBackgroundColor=none;entryX=1;entryY=0.5;entryDx=0;entryDy=0;" parent="oR3_0PMQ9E6IMNoJmGb4-41" source="oR3_0PMQ9E6IMNoJmGb4-69" target="oR3_0PMQ9E6IMNoJmGb4-51" edge="1">
          <mxGeometry relative="1" as="geometry">
            <Array as="points">
              <mxPoint x="751" y="297" />
              <mxPoint x="751" y="115" />
            </Array>
            <mxPoint x="721" y="120" as="targetPoint" />
          </mxGeometry>
        </mxCell>
        <mxCell id="oR3_0PMQ9E6IMNoJmGb4-72" value="ข้อมูลเอกสารแบบร่าง&amp;nbsp;&lt;div&gt;ประเภทโครงงาน&lt;/div&gt;" style="edgeLabel;html=1;align=center;verticalAlign=middle;resizable=0;points=[];labelBorderColor=none;labelBackgroundColor=none;" parent="oR3_0PMQ9E6IMNoJmGb4-71" vertex="1" connectable="0">
          <mxGeometry x="0.3083" y="2" relative="1" as="geometry">
            <mxPoint x="-58" y="89" as="offset" />
          </mxGeometry>
        </mxCell>
        <mxCell id="oR3_0PMQ9E6IMNoJmGb4-73" value="" style="group;labelBorderColor=none;labelBackgroundColor=none;" parent="oR3_0PMQ9E6IMNoJmGb4-41" vertex="1" connectable="0">
          <mxGeometry x="441" y="166.42999999999984" width="130" height="30" as="geometry" />
        </mxCell>
        <mxCell id="oR3_0PMQ9E6IMNoJmGb4-74" value="D6" style="html=1;dashed=0;whiteSpace=wrap;shape=mxgraph.dfd.dataStoreID;align=left;spacingLeft=3;points=[[0,0],[0.5,0],[1,0],[0,0.5],[1,0.5],[0,1],[0.5,1],[1,1]];labelBorderColor=none;labelBackgroundColor=none;" parent="oR3_0PMQ9E6IMNoJmGb4-73" vertex="1">
          <mxGeometry width="112" height="30" as="geometry" />
        </mxCell>
        <mxCell id="oR3_0PMQ9E6IMNoJmGb4-75" value="teacher_info" style="text;html=1;align=left;verticalAlign=middle;resizable=0;points=[];autosize=1;strokeColor=none;fillColor=none;labelBorderColor=none;labelBackgroundColor=none;" parent="oR3_0PMQ9E6IMNoJmGb4-73" vertex="1">
          <mxGeometry x="30" width="90" height="30" as="geometry" />
        </mxCell>
        <mxCell id="oR3_0PMQ9E6IMNoJmGb4-76" style="edgeStyle=orthogonalEdgeStyle;rounded=0;orthogonalLoop=1;jettySize=auto;html=1;entryX=0;entryY=0.5;entryDx=0;entryDy=0;" parent="oR3_0PMQ9E6IMNoJmGb4-41" source="oR3_0PMQ9E6IMNoJmGb4-45" target="oR3_0PMQ9E6IMNoJmGb4-74" edge="1">
          <mxGeometry relative="1" as="geometry" />
        </mxCell>
      </root>
    </mxGraphModel>
  </diagram>
</mxfile>
